<?xml version="1.0" encoding="utf-8"?>
<!-- Generator: Adobe Illustrator 19.1.0, SVG Export Plug-In . SVG Version: 6.00 Build 0)  -->
<svg version="1.1" id="Layer_1" xmlns="http://www.w3.org/2000/svg" xmlns:xlink="http://www.w3.org/1999/xlink" x="0px" y="0px"
	 viewBox="0 0 100 100" style="enable-background:new 0 0 100 100;" xml:space="preserve">
<style type="text/css">
	.st0{fill:none;stroke:#000000;stroke-linecap:round;stroke-linejoin:round;stroke-miterlimit:10;}
</style>
<polyline class="st0" points="51.3,66.6 51,66.6 50.8,66.6 50.6,66.6 50.3,66.6 50.1,66.5 49.9,66.5 49.6,66.5 49.4,66.5 49.2,66.5 
	49,66.5 48.7,66.5 48.5,66.5 48.3,66.5 48.1,66.5 47.8,66.4 47.6,66.4 47.4,66.3 47.2,66.3 46.9,66.2 46.7,66.2 46.5,66.1 46.3,66 
	46.1,66 45.9,65.9 45.6,65.8 45.4,65.7 45.2,65.6 45,65.5 44.8,65.4 44.6,65.3 44.4,65.2 44.2,65 44.1,64.9 43.9,64.8 43.7,64.6 
	43.5,64.5 43.3,64.4 43.2,64.2 43,64 42.8,63.9 42.7,63.7 42.5,63.5 42.4,63.3 42.3,63.2 42.1,63 42,62.8 41.9,62.6 41.8,62.4 
	41.7,62.2 41.6,62 41.5,61.8 41.4,61.6 41.3,61.4 41.2,61.1 41.2,60.9 41.1,60.7 41.1,60.5 41,60.3 41,60 41,59.8 41,59.6 41,59.4 
	41,59.1 41,58.9 41,58.9 41,58.8 41,58.8 41,58.8 41,58.7 41,58.7 41,58.6 41,58.6 41,58.6 41,58.5 41,58.5 41.1,58.4 41.1,58.4 
	41.1,58.4 41.1,58.3 41.1,58.3 41.1,58.3 41.1,58.2 41.1,58.2 41.2,58.1 41.2,58.1 41.2,58.1 41.2,58 41.2,58 41.2,58 41.3,57.9 
	41.3,57.9 41.3,57.9 41.3,57.8 41.4,57.8 41.4,57.8 41.4,57.8 41.4,57.7 41.5,57.7 41.5,57.7 41.6,57.6 41.6,57.6 41.6,57.6 
	41.7,57.6 41.7,57.5 41.8,57.5 41.8,57.5 41.8,57.5 41.9,57.5 41.9,57.4 42,57.4 42,57.4 42.1,57.4 42.1,57.4 42.2,57.4 42.2,57.4 
	42.3,57.4 42.3,57.4 42.4,57.4 42.4,57.3 42.5,57.3 42.5,57.3 42.6,57.3 42.6,57.3 42.7,57.3 42.7,57.3 42.8,57.3 42.8,57.3 
	42.9,57.4 43,57.5 43.1,57.5 43.2,57.5 43.3,57.4 43.4,57.4 43.6,57.4 43.7,57.4 43.8,57.4 43.9,57.4 44,57.4 44.1,57.4 44.2,57.4 
	44.4,57.4 44.5,57.4 44.6,57.5 44.7,57.5 44.8,57.5 44.9,57.5 45,57.6 45.1,57.6 45.2,57.6 45.3,57.7 45.4,57.7 45.5,57.8 
	45.6,57.8 45.7,57.9 45.8,57.9 45.9,58 46,58.1 46.1,58.1 46.2,58.2 46.3,58.3 46.4,58.4 46.5,58.4 46.5,58.5 46.6,58.6 46.7,58.7 
	46.7,58.8 46.8,58.9 46.8,59 46.9,59.1 46.9,59.2 46.9,59.4 47,59.5 47,59.6 47,59.7 47.3,59.8 47.5,59.9 47.5,60 47.3,60.2 
	47.1,60.3 47,60.4 47,60.5 46.9,60.6 46.9,60.7 46.9,60.8 46.8,60.9 46.8,61 46.7,61.1 46.6,61.1 46.6,61.2 46.5,61.3 46.4,61.4 
	46.3,61.4 46.3,61.5 46.2,61.5 46.2,61.5 46.2,61.5 46.1,61.5 46.1,61.5 46.1,61.5 46,61.6 46,61.6 46,61.6 45.9,61.6 45.9,61.6 
	45.9,61.6 45.8,61.6 45.8,61.6 45.8,61.7 45.7,61.7 45.7,61.7 45.7,61.7 45.6,61.7 45.6,61.7 45.6,61.7 45.5,61.7 45.5,61.7 
	45.5,61.7 45.4,61.7 45.4,61.7 45.4,61.7 45.3,61.7 45.3,61.8 45.3,61.8 45.2,61.8 45.1,61.8 45,61.8 44.8,61.8 44.7,61.8 
	44.6,61.9 44.4,61.9 44.3,61.9 44.2,61.9 44.1,61.9 43.9,61.9 43.8,61.9 43.7,61.9 43.5,62 43.4,62 43.3,62 43.1,62 43,62 42.9,62 
	42.7,62.1 42.6,62.2 42.5,62.4 42.3,62.5 42.2,62.5 42.1,62.5 42,62.4 41.8,62.2 41.7,62.2 41.6,62.1 41.4,62.1 41.3,62 41.2,62 
	41,62 40.9,62 40.8,62 40.6,61.9 40.5,61.9 40.4,61.9 40.2,61.9 40.1,61.9 40,61.9 39.8,61.8 39.7,61.8 39.6,61.8 39.4,61.8 
	39.3,61.7 39.2,61.7 39.1,61.7 38.9,61.6 38.8,61.6 38.7,61.5 38.6,61.5 38.4,61.5 38.3,61.4 38.2,61.4 38.1,61.3 38,61.2 
	37.8,61.2 37.7,61.1 37.6,61.1 37.5,61 37.4,60.9 37.3,60.8 37.2,60.8 37.1,60.7 37,60.6 36.9,60.5 36.8,60.4 36.7,60.3 36.6,60.2 
	36.5,60.1 36.5,60 36.4,59.9 36.3,59.7 36.3,59.6 36.2,59.5 36.2,59.4 36.1,59.3 36.1,59.1 36,59 36,58.9 36,58.7 35.9,58.6 
	35.9,58.5 35.9,58.4 35.9,58.2 35.9,58.1 35.9,58 35.9,57.8 36,57.7 36,57.6 36,57.5 36.1,57.4 36.1,57.2 36.2,57.1 36.2,57 
	36.3,56.9 36.4,56.8 36.4,56.8 36.5,56.7 36.5,56.6 36.6,56.6 36.6,56.5 36.7,56.5 36.8,56.4 36.8,56.3 36.9,56.3 37,56.2 37,56.2 
	37.1,56.1 37.2,56.1 37.3,56.1 37.3,56 37.4,56 37.5,55.9 37.6,55.9 37.7,55.9 37.7,55.8 37.8,55.8 37.9,55.8 38,55.7 38.1,55.7 
	38.1,55.7 38.2,55.6 38.3,55.6 38.4,55.6 38.5,55.6 38.6,55.5 38.6,55.5 38.9,55.5 39.1,55.4 39.4,55.3 39.6,55.3 39.9,55.2 
	40.1,55.1 40.3,55.1 40.6,55 40.8,55 41.1,55 41.3,54.9 41.6,54.9 41.8,54.8 42.1,54.8 42.3,54.8 42.6,54.8 42.8,54.7 43.1,54.7 
	43.3,54.7 43.6,54.7 43.8,54.7 44.1,54.7 44.3,54.6 44.6,54.5 44.8,54.5 45.1,54.6 45.3,54.6 45.6,54.6 45.8,54.7 46.1,54.7 
	46.3,54.7 46.6,54.7 46.8,54.7 46.9,54.8 47.1,54.8 47.3,54.8 47.5,54.8 47.6,54.9 47.8,54.9 48,55 48.1,55 48.3,55.1 48.5,55.1 
	48.6,55.2 48.8,55.2 49,55.3 49.1,55.4 49.3,55.5 49.4,55.5 49.6,55.6 49.7,55.7 49.8,55.8 50,55.9 50.1,56 50.2,56.1 50.3,56.3 
	50.4,56.4 50.5,56.5 50.6,56.7 50.6,56.8 50.7,56.9 50.7,57.1 50.8,57.3 50.8,57.4 50.8,57.5 50.8,57.5 50.8,57.5 50.8,57.6 
	50.8,57.6 50.7,57.6 50.5,57.7 50.5,57.7 50.5,57.8 50.7,57.8 50.8,57.8 50.8,57.9 50.7,57.9 50.5,57.9 50.5,58 50.7,58 50.7,58.1 
	50.8,58.1 50.8,58.1 50.8,58.2 50.8,58.2 50.8,58.2 50.7,58.3 50.7,58.3 50.7,58.3 50.7,58.4 50.7,58.4 50.7,58.4 50.7,58.5 
	50.6,58.5 50.6,58.5 50.6,58.6 50.5,58.6 50.5,58.7 50.4,58.7 50.4,58.8 50.3,58.8 50.2,58.9 50.2,58.9 50.1,59 50,59 50,59 
	49.9,59.1 49.8,59.1 49.7,59.1 49.7,59.1 49.6,59.1 49.5,59.1 49.4,59.2 49.3,59.3 49.2,59.5 49.2,59.5 49.1,59.3 49,59.2 
	48.9,59.2 48.8,59.2 48.7,59.1 48.6,59.1 48.6,59.1 48.5,59.1 48.4,59.1 48.3,59.1 48.2,59 48.1,59 47.8,59 47.5,58.9 47.2,58.8 
	46.9,58.7 46.6,58.6 46.3,58.5 46.1,58.4 45.8,58.3 45.5,58.1 45.2,58 44.9,57.9 44.6,57.7 44.3,57.6 44.1,57.4 43.8,57.3 
	43.5,57.1 43.3,57 43,56.8 42.7,56.6 42.5,56.4 42.2,56.2 42,56.1 41.7,55.9 41.5,55.7 41.2,55.5 41,55.2 40.8,55 40.6,54.8 
	40.3,54.6 40.1,54.4 39.9,54.1 39.7,53.9 39.9,53.9 40.1,53.9 40.4,54 40.6,54 40.8,54.1 41,54.2 41.2,54.2 41.4,54.3 41.6,54.4 
	41.8,54.5 42,54.6 42.2,54.7 42.4,54.8 42.6,55 42.8,55.1 43,55.2 43.1,55.4 43.3,55.5 43.5,55.7 43.6,55.9 43.8,56 43.9,56.2 
	44,56.4 44.1,56.6 44.3,56.8 44.4,57 44.5,57.2 44.6,57.4 44.7,57.6 44.7,57.8 44.8,58 44.9,58.2 44.9,58.2 44.9,58.3 44.9,58.3 
	44.9,58.3 44.9,58.3 44.9,58.4 44.9,58.4 44.9,58.4 44.9,58.4 44.9,58.5 44.9,58.5 44.9,58.5 44.8,58.5 44.7,58.6 44.6,58.6 
	44.5,58.6 44.5,58.6 44.5,58.7 44.6,58.7 44.7,58.7 44.8,58.7 44.8,58.7 44.8,58.8 44.9,58.8 44.7,58.8 44.5,58.8 44.5,58.9 
	44.5,58.9 44.7,58.9 44.8,58.9 44.8,59 44.8,59 44.8,59 44.8,59 44.8,59 44.8,59.1 44.8,59.1 44.8,59.1 44.8,59.1 44.8,59.1 
	44.8,59.1 44.7,59.2 44.7,59.2 44.7,59.2 44.7,59.2 44.7,59.2 44.7,59.2 44.7,59.2 44.6,59.3 44.6,59.3 44.6,59.3 44.6,59.3 
	44.6,59.3 44.6,59.3 44.5,59.3 44.5,59.3 44.5,59.4 44.5,59.4 44.5,59.4 44.4,59.4 44.4,59.4 44.4,59.4 44.4,59.4 44.4,59.4 
	44.1,59.6 43.9,59.7 43.7,59.7 43.4,59.8 43.2,59.9 42.9,59.9 42.6,59.7 42.4,59.5 42.1,59.5 41.9,59.7 41.6,59.8 41.3,59.8 
	41.1,59.8 40.8,59.8 40.6,59.7 40.3,59.6 40.1,59.5 39.9,59.4 39.6,59.3 39.4,59.1 39.2,59 39,58.8 38.8,58.6 38.6,58.5 38.4,58.3 
	38.2,58.1 38.1,57.9 37.9,57.7 37.8,57.4 37.7,57.2 37.6,57 37.5,56.7 37.5,56.7 37.5,56.6 37.5,56.6 37.5,56.6 37.4,56.5 
	37.4,56.5 37.4,56.5 37.4,56.4 37.4,56.4 37.4,56.4 37.4,56.3 37.4,56.3 37.4,56.2 37.4,56.2 37.4,56.2 37.4,56.1 37.5,56.1 
	37.5,56.1 37.5,56 37.5,56 37.5,56 37.4,55.9 37.4,55.9 37.4,55.8 37.4,55.8 37.4,55.8 37.4,55.7 37.4,55.7 37.4,55.7 37.4,55.6 
	37.4,55.6 37.5,55.6 37.5,55.5 37.5,55.5 37.5,55.5 37.5,55.4 37.6,55.4 37.6,55.4 37.6,55.3 37.6,55.3 37.6,55.3 37.7,55.2 
	37.7,55.2 37.7,55.2 37.8,55.1 37.8,55.1 37.8,55.1 37.9,55.1 37.9,55 37.9,55 37.9,55 38,55 38,54.9 38,54.9 38.1,54.9 38.1,54.9 
	38.2,54.8 38.2,54.8 38.2,54.8 38.3,54.8 38.3,54.8 38.3,54.7 38.4,54.7 38.4,54.7 38.7,54.5 39,54.3 39.3,54.2 39.6,54 39.9,53.9 
	40.3,53.7 40.6,53.5 40.9,53.4 41.2,53.2 41.5,53.1 41.9,52.9 42.2,52.8 42.5,52.7 42.8,52.5 43.2,52.4 43.5,52.3 43.8,52.2 
	44.2,52 44.5,51.9 44.8,51.8 45.2,51.7 45.5,51.6 45.8,51.5 46.2,51.4 46.5,51.3 46.8,51.2 47.2,51.1 47.5,51.1 47.9,51 48.2,50.9 
	48.6,50.8 48.9,50.7 49,50.7 49.1,50.7 49.2,50.7 49.3,50.7 49.4,50.7 49.5,50.7 49.6,50.6 49.7,50.6 49.8,50.6 49.9,50.6 50,50.6 
	50.1,50.6 50.2,50.5 50.3,50.5 50.4,50.6 50.5,50.6 50.6,50.6 50.7,50.6 50.8,50.6 50.9,50.7 51,50.7 51,50.7 51.1,50.7 51.2,50.8 
	51.3,50.8 51.4,50.8 51.5,50.9 51.6,50.9 51.6,51 51.7,51 51.8,51.1 51.9,51.1 51.9,51.2 52,51.2 52,51.3 52,51.3 52.1,51.4 
	52.1,51.4 52.1,51.5 52.2,51.5 52.2,51.6 52.2,51.6 52.3,51.7 52.3,51.8 52.3,51.8 52.4,51.9 52.4,51.9 52.4,52 52.4,52.1 
	52.5,52.1 52.5,52.2 52.5,52.2 52.5,52.3 52.5,52.4 52.5,52.4 52.6,52.5 52.6,52.6 52.6,52.6 52.6,52.7 52.6,52.7 52.6,52.8 
	52.6,52.9 52.6,52.9 52.7,53 52.7,53.2 52.7,53.5 52.7,53.7 52.8,54 52.8,54.2 52.8,54.4 52.8,54.7 52.8,54.9 52.8,55.2 52.8,55.4 
	52.8,55.6 52.8,55.9 52.8,56.1 52.8,56.4 52.7,56.6 52.7,56.8 52.7,57.1 52.7,57.3 52.6,57.6 52.6,57.8 52.5,58 52.5,58.3 
	52.4,58.5 52.4,58.7 52.3,59 52.2,59.2 52.2,59.4 52.1,59.7 52,59.9 51.9,60.1 51.8,60.3 51.7,60.6 51.7,60.7 51.6,60.8 51.6,60.9 
	51.5,61 51.5,61.2 51.4,61.3 51.4,61.4 51.3,61.5 51.2,61.6 51.2,61.7 51.1,61.8 51,62 50.9,62.1 50.9,62.2 50.8,62.3 50.7,62.4 
	50.6,62.5 50.5,62.6 50.4,62.7 50.3,62.8 50.2,62.8 50.2,62.9 50.1,63 50,63.1 49.8,63.2 49.7,63.2 49.6,63.3 49.5,63.3 49.4,63.4 
	49.3,63.4 49.2,63.5 49,63.5 48.9,63.6 48.8,63.6 48.7,63.6 48.5,63.6 48.4,63.6 48.3,63.5 48.1,63.5 48,63.6 47.9,63.6 47.7,63.6 
	47.6,63.6 47.5,63.6 47.3,63.5 47.2,63.5 47.1,63.5 46.9,63.4 46.8,63.4 46.7,63.3 46.6,63.3 46.4,63.2 46.3,63.2 46.2,63.1 
	46.1,63 46,62.9 45.8,62.9 45.7,62.8 45.6,62.7 45.5,62.6 45.4,62.6 45.3,62.5 45.2,62.4 45.1,62.3 44.9,62.2 44.8,62.1 44.6,61.9 
	44.5,61.8 44.4,61.7 44.2,61.5 44.1,61.4 44,61.2 43.9,61.1 43.7,60.9 43.6,60.8 43.5,60.6 43.4,60.5 43.3,60.3 43.2,60.2 43.1,60 
	43,59.8 42.9,59.7 42.8,59.5 42.7,59.4 42.6,59.2 42.5,59 42.4,58.8 42.4,58.7 42.3,58.5 42.2,58.3 42.2,58.1 42.1,58 42,57.8 
	42,57.6 41.9,57.4 41.9,57.2 41.9,57.2 41.9,57.2 41.8,57.2 41.8,57.1 41.8,57.1 41.8,57.1 41.8,57.1 41.8,57 41.8,57 41.8,57 
	41.8,57 41.8,56.9 41.7,56.9 41.5,56.9 41.5,56.9 41.5,56.8 41.5,56.8 41.7,56.8 41.7,56.8 41.8,56.7 41.8,56.7 41.8,56.7 
	41.8,56.7 41.8,56.6 41.8,56.6 41.8,56.6 41.9,56.6 41.9,56.6 41.9,56.5 41.9,56.5 41.9,56.5 41.9,56.5 41.9,56.5 41.9,56.4 
	42,56.4 42,56.4 42,56.4 42,56.4 42,56.4 42.1,56.4 42.1,56.4 42.1,56.3 42.1,56.3 42.1,56.3 42.2,56.3 42.2,56.3 42.2,56.3 
	42.2,56.3 42.2,56.3 42.3,56.3 42.3,56.3 42.3,56.3 42.3,56.3 42.4,56.3 42.4,56.3 42.4,56.3 42.4,56.3 42.5,56.3 42.5,56.3 
	42.5,56.4 42.5,56.4 42.6,56.5 42.6,56.5 42.6,56.5 42.8,56.4 43,56.4 43.3,56.4 43.5,56.4 43.7,56.4 43.9,56.4 44.1,56.4 
	44.3,56.4 44.5,56.5 44.7,56.5 44.9,56.6 45.2,56.7 45.4,56.7 45.6,56.8 45.8,56.9 46,56.9 46.2,57 46.4,57.1 46.6,57.2 46.7,57.3 
	46.9,57.4 47.1,57.5 47.3,57.7 47.5,57.8 47.7,57.9 47.8,58 48,58.2 48.2,58.3 48.3,58.5 48.5,58.6 48.6,58.7 48.8,58.9 48.8,59 
	48.9,59 48.9,59.1 49,59.1 49,59.2 49,59.2 49.1,59.3 49.1,59.3 49.1,59.4 49.2,59.5 49.2,59.5 49.2,59.6 49.2,59.6 49.3,59.7 
	49.3,59.8 49.3,59.8 49.3,59.9 49.3,59.9 49.4,60 49.5,60.1 49.5,60.1 49.4,60.2 49.4,60.2 49.3,60.3 49.3,60.3 49.3,60.4 
	49.3,60.5 49.2,60.5 49.2,60.5 49.2,60.6 49.1,60.6 49.1,60.7 48.9,60.6 48.6,60.5 48.4,60.4 48.2,60.2 48,60.1 47.8,60 47.6,59.9 
	47.3,59.7 47.1,59.6 46.9,59.5 46.7,59.3 46.5,59.2 46.3,59 46.1,58.9 46,58.7 45.8,58.6 45.6,58.4 45.4,58.2 45.2,58 45.1,57.9 
	44.9,57.7 44.7,57.5 44.6,57.3 44.4,57.1 44.2,56.9 44.1,56.8 43.9,56.6 43.8,56.4 43.7,56.2 43.5,55.9 43.4,55.7 43.3,55.5 
	43.2,55.5 43.2,55.4 43.1,55.3 43.1,55.2 43.1,55.2 43,55.1 43,55 42.9,54.9 42.9,54.9 42.9,54.8 42.8,54.7 42.8,54.6 42.8,54.5 
	42.8,54.5 42.7,54.4 42.7,54.3 42.7,54.2 42.7,54.1 42.6,54.1 42.6,54 42.6,53.9 42.6,53.8 42.6,53.7 42.6,53.6 42.6,53.6 
	42.6,53.5 42.6,53.4 42.6,53.3 42.6,53.2 42.6,53.2 42.7,53.1 42.7,53 42.7,52.9 42.7,52.9 42.8,52.8 42.8,52.7 42.8,52.6 
	42.9,52.6 42.9,52.5 42.9,52.5 43,52.4 43,52.3 43.1,52.3 43.1,52.2 43.2,52.2 43.2,52.1 43.3,52.1 43.3,52 43.4,51.9 43.5,51.9 
	43.5,51.9 43.6,51.8 43.6,51.8 43.7,51.7 43.8,51.7 43.8,51.6 43.9,51.6 44,51.5 44,51.5 44.1,51.5 44.2,51.4 44.2,51.4 44.3,51.4 
	44.4,51.3 44.5,51.3 44.7,51.2 44.8,51.1 45,51.1 45.2,51 45.3,51 45.5,50.9 45.7,50.9 45.8,50.9 46,50.8 46.2,50.8 46.3,50.8 
	46.5,50.8 46.7,50.8 46.8,50.8 47,50.8 47.2,50.8 47.4,50.8 47.5,50.8 47.7,50.8 47.9,50.8 48,50.8 48.2,50.9 48.4,50.9 48.5,50.9 
	48.7,51 48.9,51 49,51.1 49.2,51.1 49.3,51.2 49.5,51.3 49.7,51.3 49.8,51.4 50,51.5 50.1,51.6 50.3,51.6 50.4,51.7 50.5,51.8 
	50.7,51.9 50.8,52 51,52.1 51.1,52.2 51.2,52.3 51.3,52.5 51.5,52.6 51.6,52.7 51.7,52.8 51.8,52.9 51.9,53.1 52,53.2 52.1,53.3 
	52.2,53.5 52.3,53.6 52.4,53.8 52.5,53.9 52.6,54.1 52.7,54.2 52.8,54.4 52.8,54.5 52.9,54.7 53,54.8 53,55 53.1,55.1 53.1,55.3 
	53.1,55.4 53.2,55.4 53.2,55.5 53.2,55.6 53.2,55.6 53.2,55.7 53.2,55.8 53.2,55.8 53.2,55.9 53.3,56 53.3,56 53.4,56.1 53.5,56.2 
	53.5,56.2 53.4,56.3 53.3,56.4 53.3,56.4 53.3,56.5 53.2,56.6 53.2,56.6 53.2,56.7 53.2,56.8 53.2,56.8 53.1,56.9 53.1,56.9 
	53.1,57 53.1,57.1 53,57.1 53,57.2 52.9,57.2 52.9,57.3 52.9,57.3 52.8,57.3 52.8,57.4 52.8,57.4 52.7,57.4 52.7,57.4 52.7,57.5 
	52.6,57.5 52.6,57.5 52.6,57.5 52.5,57.5 52.5,57.5 52.5,57.6 52.4,57.6 52.4,57.6 52.4,57.6 52.3,57.6 52.3,57.6 52.2,57.6 
	52.2,57.7 52.2,57.7 52.1,57.7 52.1,57.7 52.1,57.7 52,57.7 52,57.7 51.9,57.7 51.9,57.7 51.9,57.7 51.8,57.7 51.8,57.8 51.7,57.8 
	51.7,57.8 51.6,57.8 51.6,57.8 51.5,57.8 51.4,57.8 51.3,57.8 51.2,57.8 51.2,57.9 51.1,57.9 51,57.9 50.9,57.9 50.8,57.9 
	50.8,57.9 50.7,57.9 50.6,57.9 50.5,57.9 50.4,57.9 50.4,58 50.3,58 50.2,58 50.1,58 50,58 50,58 49.9,58 49.8,58 49.7,58 49.6,58 
	49.6,58 49.5,58 49.4,58 49.3,58 49.2,58 49.2,58 49.1,58 48.9,58.1 48.8,58.1 48.7,58.3 48.6,58.5 48.5,58.5 48.4,58.5 48.3,58.3 
	48.2,58.2 48.1,58.1 48,58.1 47.9,58 47.8,58 47.7,58 47.6,58 47.5,58 47.4,58 47.3,58 47.2,57.9 47.1,57.9 46.9,57.9 46.8,57.9 
	46.7,57.8 46.6,57.8 46.5,57.8 46.4,57.7 46.4,57.7 46.3,57.7 46.2,57.6 46.1,57.6 46,57.5 45.9,57.5 45.8,57.4 45.7,57.4 
	45.6,57.3 45.5,57.2 45.4,57.2 45.4,57.1 45.3,57 45.2,57 45.1,56.9 45.1,56.8 45,56.7 44.9,56.6 44.9,56.5 44.8,56.5 44.8,56.4 
	44.7,56.3 44.7,56.2 44.6,56.1 44.6,56 44.6,55.9 44.5,55.8 44.5,55.7 44.5,55.6 44.5,55.5 44.5,55.4 44.5,55.3 44.5,55.2 
	44.5,55.1 44.5,55 44.5,54.9 44.5,54.8 44.5,54.7 44.6,54.5 44.6,54.4 44.7,54.3 44.8,54.2 44.8,54 44.9,53.9 45,53.8 45.1,53.7 
	45.2,53.7 45.3,53.6 45.4,53.5 45.6,53.4 45.7,53.4 45.8,53.3 45.9,53.2 46.1,53.2 46.2,53.1 46.4,53.1 46.5,53.1 46.7,53 46.8,53 
	47,53 47.1,53 47.3,52.9 47.4,52.9 47.6,52.7 47.7,52.5 47.9,52.5 48,52.7 48.2,52.8 48.3,52.9 48.5,52.9 48.7,53 48.9,53 49.1,53 
	49.3,53.1 49.5,53.1 49.7,53.2 49.9,53.2 50.1,53.3 50.4,53.4 50.6,53.4 50.8,53.5 51,53.6 51.1,53.7 51.3,53.8 51.5,53.9 51.7,54 
	51.9,54.1 52.1,54.2 52.2,54.4 52.4,54.5 52.5,54.6 52.7,54.8 52.8,54.9 52.9,55.1 53.1,55.2 53.2,55.4 53.3,55.6 53.4,55.8 
	53.4,55.9 53.5,56.1 53.6,56.3 53.6,56.5 53.4,56.6 53.1,56.7 52.8,56.8 52.5,56.9 52.2,57 51.9,57 51.6,57.1 51.3,57.1 51.1,57.3 
	50.8,57.5 50.5,57.5 50.2,57.3 49.9,57.2 49.6,57.1 49.3,57.1 49,57 48.7,56.9 48.4,56.8 48.1,56.8 47.8,56.7 47.6,56.6 47.3,56.4 
	47,56.3 46.8,56.2 46.5,56 46.3,55.9 46,55.7 45.8,55.6 45.5,55.4 45.3,55.2 45.1,55 44.9,54.8 44.8,54.7 44.7,54.6 44.7,54.5 
	44.6,54.5 44.5,54.4 44.5,54.3 44.4,54.2 44.4,54.1 44.3,54 44.3,53.9 44.2,53.8 44.2,53.7 44.2,53.6 44.1,53.5 44.1,53.4 
	44.1,53.3 44.1,53.2 44.3,53.1 44.5,53 44.5,52.9 44.3,52.8 44.2,52.7 44.1,52.6 44.1,52.5 44.2,52.4 44.2,52.4 44.2,52.3 
	44.3,52.2 44.3,52.1 44.4,52.1 44.5,52 44.6,52 44.7,52.1 44.8,52.2 44.9,52.3 45,52.4 45.1,52.6 45.2,52.7 45.3,52.8 45.4,52.9 
	45.4,53.1 45.5,53.2 45.6,53.4 45.7,53.5 45.8,53.6 45.8,53.8 45.9,53.9 46,54.1 46,54.2 46.1,54.4 46.1,54.5 46.2,54.7 46.2,54.8 
	46.3,55 46.3,55.1 46.3,55.3 46.4,55.5 46.4,55.6 46.4,55.8 46.4,55.9 46.4,56.1 46.4,56.2 46.4,56.4 46.4,56.6 46.2,56.6 
	45.9,56.7 45.6,56.7 45.3,56.8 45,56.8 44.7,56.6 44.4,56.5 44.1,56.5 43.9,56.6 43.6,56.7 43.3,56.7 43,56.7 42.7,56.7 42.4,56.6 
	42.1,56.6 41.8,56.5 41.6,56.4 41.3,56.3 41,56.2 40.7,56.1 40.5,56 40.2,55.9 39.9,55.8 39.7,55.6 39.4,55.5 39.2,55.3 38.9,55.2 
	38.7,55 38.5,54.9 38.2,54.7 38,54.5 37.8,54.3 37.8,54.3 37.7,54.2 37.7,54.2 37.7,54.2 37.6,54.1 37.6,54.1 37.6,54.1 37.5,54 
	37.5,54 37.5,53.9 37.4,53.9 37.4,53.9 37.4,53.8 37.3,53.8 37.3,53.8 37.3,53.7 37.3,53.7 37.2,53.6 37.2,53.6 37.2,53.5 
	37.2,53.5 37.2,53.5 37.2,53.4 37.1,53.4 37.1,53.3 37.1,53.3 37.1,53.2 37.1,53.2 37.3,53.1 37.5,53.1 37.5,53.1 37.3,53 37.2,53 
	37.2,52.9 37.1,52.9 37.1,52.8 37.1,52.8 37.2,52.7 37.2,52.7 37.2,52.7 37.2,52.6 37.2,52.6 37.3,52.5 37.3,52.5 37.3,52.5 
	37.3,52.4 37.4,52.4 37.4,52.4 37.4,52.3 37.4,52.3 37.5,52.2 37.5,52.2 37.5,52.2 37.6,52.1 37.6,52.1 37.7,52.1 37.7,52 37.7,52 
	37.8,52 37.8,52 37.8,51.9 37.9,51.9 37.9,51.9 37.9,51.8 38.1,51.7 38.3,51.6 38.5,51.4 38.8,51.3 39,51.1 39.2,51 39.4,50.9 
	39.6,50.8 39.8,50.6 40,50.5 40.3,50.4 40.5,50.3 40.7,50.2 40.9,50.1 41.2,50 41.4,49.9 41.6,49.8 41.8,49.7 42.1,49.6 42.3,49.5 
	42.5,49.5 42.8,49.4 43,49.3 43.3,49.2 43.5,49.2 43.7,49.1 44,49.1 44.2,49 44.5,49 44.7,48.9 45,48.9 45.2,48.8 45.2,48.8 
	45.3,48.8 45.4,48.8 45.4,48.8 45.5,48.8 45.5,48.8 45.6,48.8 45.6,48.8 45.7,48.8 45.7,48.8 45.8,48.8 45.8,48.8 45.9,48.7 
	45.9,48.6 46,48.6 46,48.5 46.1,48.5 46.2,48.5 46.2,48.6 46.3,48.6 46.3,48.7 46.4,48.7 46.4,48.7 46.5,48.7 46.5,48.8 46.6,48.8 
	46.6,48.8 46.7,48.8 46.7,48.8 46.8,48.8 46.8,48.8 46.9,48.9 47,48.9 47.2,49 47.3,49.1 47.5,49.1 47.6,49.2 47.7,49.3 47.8,49.4 
	48,49.6 48.1,49.7 48.1,49.8 48.2,49.9 48.3,50.1 48.4,50.2 48.5,50.4 48.5,50.5 48.6,50.7 48.7,50.9 48.7,51 48.8,51.2 48.8,51.4 
	48.8,51.5 48.9,51.7 48.9,51.9 48.9,52.1 49,52.2 49,52.4 49,52.6 49,52.8 49,53 49,53.1 49.1,53.3 49.1,53.5 49.2,53.5 49.3,53.5 
	49.4,53.6 49.5,53.6 49.5,53.6 49.5,53.7 49.4,53.7 49.3,53.7 49.2,53.8 49.2,53.8 49.1,53.8 49.1,53.9 49.1,53.9 49.1,53.9 
	49.1,54 49.1,54 49,54 49,54 49,54.1 49,54.1 49,54.1 49,54.2 49,54.2 49,54.2 48.9,54.2 48.9,54.3 48.9,54.3 48.9,54.3 48.9,54.3 
	48.9,54.4 48.8,54.4 48.8,54.4 48.8,54.4 48.8,54.4 48.8,54.4 48.7,54.5 48.7,54.5 48.7,54.5 48.7,54.5 48.7,54.5 48.6,54.5 
	48.6,54.5 48.6,54.5 48.6,54.5 48.5,54.5 48.5,54.5 48.5,54.6 48.5,54.6 48.4,54.6 48.4,54.6 48.4,54.6 48.4,54.6 48.3,54.6 
	48.3,54.6 48.3,54.5 48.3,54.5 48.2,54.5 48.2,54.5 48.2,54.5 48.2,54.5 48.1,54.5 48.1,54.5 48.1,54.5 48.1,54.5 47.7,54.5 
	47.4,54.5 47.1,54.5 46.8,54.5 46.4,54.4 46.1,54.4 45.8,54.4 45.5,54.3 45.1,54.2 44.8,54.2 44.5,54.1 44.2,54 43.9,53.9 
	43.6,53.8 43.2,53.7 42.9,53.6 42.6,53.5 42.3,53.4 42,53.3 41.7,53.1 41.4,53 41.1,52.8 40.8,52.7 40.6,52.5 40.3,52.4 40,52.2 
	39.7,52 39.4,51.8 39.2,51.6 38.9,51.5 38.6,51.3 38.4,51.1 38.3,51 38.3,51 38.3,50.9 38.2,50.9 38.2,50.9 38.1,50.8 38.1,50.8 
	38,50.7 38,50.7 38,50.7 37.9,50.6 37.9,50.6 37.9,50.5 37.8,50.5 37.8,50.4 37.8,50.4 37.7,50.3 37.7,50.3 37.7,50.2 37.7,50.2 
	37.6,50.1 37.6,50.1 37.6,50 37.6,50 37.6,49.9 37.6,49.9 37.6,49.8 37.6,49.8 37.6,49.7 37.6,49.7 37.6,49.6 37.6,49.6 37.6,49.5 
	37.6,49.5 37.7,49.5 37.7,49.5 37.7,49.4 37.7,49.4 37.7,49.4 37.7,49.3 37.8,49.3 37.8,49.3 37.8,49.3 37.8,49.3 37.8,49.2 
	37.8,49.2 37.9,49.2 37.9,49.2 37.9,49.1 37.9,49.1 38,49.1 38,49.1 38,49.1 38,49 38.1,49 38.1,49 38.1,49 38.1,49 38.2,49 
	38.2,48.9 38.2,48.9 38.2,48.9 38.3,48.9 38.3,48.9 38.4,48.8 38.4,48.8 38.5,48.7 38.6,48.7 38.7,48.7 38.7,48.6 38.8,48.6 
	38.9,48.5 39,48.5 39.1,48.5 39.1,48.4 39.2,48.4 39.3,48.3 39.4,48.3 39.5,48.3 39.5,48.2 39.6,48.2 39.7,48.2 39.8,48.2 
	39.9,48.1 40,48.1 40,48.1 40.1,48 40.2,48 40.3,48 40.4,48 40.5,48 40.6,47.9 40.6,47.9 40.7,47.9 40.8,47.9 40.9,47.9 41,47.9 
	41,47.8 41.1,47.8 41.1,47.8 41.2,47.8 41.2,47.8 41.3,47.8 41.3,47.8 41.4,47.7 41.4,47.7 41.5,47.6 41.5,47.5 41.6,47.5 
	41.6,47.5 41.7,47.6 41.7,47.7 41.8,47.7 41.8,47.7 41.9,47.8 41.9,47.8 42,47.8 42,47.8 42.1,47.8 42.1,47.9 42.2,47.9 42.2,47.9 
	42.3,47.9 42.3,47.9 42.4,47.9 42.4,48 42.5,48 42.5,48 42.5,48 42.6,48.1 42.6,48.1 42.7,48.1 42.7,48.2 42.7,48.2 42.8,48.3 
	42.8,48.3 42.8,48.3 42.9,48.4 42.9,48.4 42.9,48.5 42.9,48.5 43,48.6 43,48.6 43,48.7 43,48.7 43,48.8 43,48.8 43,48.9 43,48.9 
	43.1,49 43.1,49 43,49 43,49.1 43,49.1 43,49.2 43,49.2 43,49.3 43,49.3 42.9,49.4 42.9,49.4 42.9,49.5 42.8,49.5 42.8,49.5 
	42.7,49.6 42.7,49.6 42.7,49.6 42.6,49.7 42.6,49.7 42.5,49.7 42.5,49.7 42.4,49.7 42.3,49.7 42.3,49.7 42.2,49.6 42.2,49.5 
	42.1,49.5 42.1,49.6 42,49.7 41.9,49.7 41.9,49.7 41.8,49.7 41.7,49.7 41.7,49.7 41.6,49.7 41.6,49.7 41.5,49.6 41.5,49.6 
	41.4,49.6 41.3,49.6 41.3,49.5 41.2,49.5 41.2,49.5 41.1,49.5 41,49.4 40.9,49.4 40.9,49.3 40.8,49.3 40.7,49.3 40.6,49.2 
	40.5,49.2 40.5,49.1 40.4,49.1 40.3,49 40.2,49 40.2,48.9 40.1,48.9 40,48.8 39.9,48.8 39.9,48.7 39.8,48.7 39.7,48.6 39.7,48.5 
	39.6,48.5 39.5,48.4 39.4,48.4 39.4,48.3 39.3,48.3 39.2,48.2 39.2,48.1 39.1,48.1 39.1,48 39,47.9 38.9,47.9 38.9,47.8 38.8,47.8 
	38.8,47.7 38.7,47.7 38.7,47.6 38.6,47.5 38.6,47.5 38.6,47.4 38.5,47.4 38.5,47.3 38.4,47.3 38.4,47.2 38.4,47.1 38.3,47.1 
	38.3,47 38.3,46.9 38.2,46.9 38.2,46.8 38.2,46.7 38.2,46.7 38.2,46.6 38.2,46.6 38.2,46.5 38.1,46.4 38.1,46.4 38.1,46.3 
	38.2,46.2 38.2,46.2 38.2,46.1 38.2,46 38.2,46 38.2,45.9 38.3,45.9 38.3,45.8 38.3,45.7 38.4,45.7 38.4,45.6 38.5,45.6 38.5,45.6 
	38.6,45.5 38.6,45.5 38.7,45.5 38.7,45.4 38.8,45.4 38.8,45.4 38.9,45.4 39,45.3 39,45.3 39.1,45.3 39.1,45.3 39.2,45.3 39.3,45.3 
	39.3,45.3 39.4,45.4 39.5,45.5 39.5,45.5 39.6,45.4 39.7,45.3 39.7,45.3 39.8,45.3 39.9,45.3 39.9,45.3 40,45.3 40.1,45.3 
	40.1,45.4 40.3,45.4 40.4,45.4 40.5,45.5 40.7,45.6 40.8,45.6 40.9,45.7 41,45.8 41.2,45.9 41.3,46 41.4,46.1 41.5,46.2 41.6,46.3 
	41.7,46.4 41.8,46.5 41.9,46.6 42,46.7 42,46.9 42.1,47 42.2,47.1 42.2,47.2 42.3,47.4 42.3,47.5 42.4,47.6 42.4,47.8 42.5,47.9 
	42.5,48.1 42.5,48.2 42.5,48.4 42.5,48.5 42.5,48.6 42.5,48.8 42.5,48.9 42.4,48.9 42.3,48.9 42.2,48.8 42.1,48.8 42,48.7 
	41.9,48.7 41.8,48.6 41.7,48.5 41.7,48.5 41.6,48.4 41.5,48.3 41.4,48.3 41.3,48.2 41.2,48.1 41.2,48 41.1,48 41,47.9 40.9,47.8 
	40.9,47.7 40.8,47.6 40.7,47.5 40.7,47.4 40.6,47.3 40.6,47.2 40.5,47.1 40.5,47 40.4,46.9 40.4,46.8 40.4,46.7 40.3,46.6 
	40.3,46.5 40.3,46.4 40.3,46.4 40.2,46.3 40.2,46.2 40.2,46.2 40.2,46.1 40.2,46.1 40.2,46 40.2,45.9 40.3,45.9 40.5,45.8 
	40.5,45.7 40.3,45.7 40.3,45.6 40.2,45.6 40.2,45.5 40.2,45.4 40.2,45.4 40.2,45.3 40.2,45.3 40.3,45.2 40.3,45.1 40.3,45.1 
	40.3,45 40.3,45 40.3,44.9 40.4,44.9 40.4,44.8 40.4,44.7 40.4,44.7 40.5,44.6 40.5,44.6 40.5,44.5 40.6,44.5 40.6,44.4 40.7,44.4 
	40.7,44.3 40.7,44.3 40.8,44.3 40.8,44.2 40.9,44.2 40.9,44.1 41,44.1 41,44.1 41.1,44 41.2,44 41.2,44 41.3,44 41.3,43.9 
	41.4,43.9 41.4,43.9 41.5,43.9 41.6,43.9 41.6,43.9 41.7,43.7 41.7,43.5 41.8,43.5 41.9,43.7 41.9,43.8 42,43.8 42,43.9 42.1,43.9 
	42.2,43.9 42.2,43.9 42.3,44 42.3,44 42.4,44 42.4,44.1 42.5,44.1 42.5,44.1 42.6,44.2 42.6,44.2 42.6,44.3 42.7,44.3 42.7,44.4 
	42.7,44.4 42.8,44.5 42.8,44.5 42.8,44.6 42.8,44.6 42.9,44.7 42.9,44.8 42.9,44.8 42.7,44.9 42.5,44.9 42.5,45 42.7,45.1 
	42.8,45.1 42.8,45.2 42.8,45.2 42.8,45.3 42.8,45.3 42.8,45.4 42.8,45.5 42.7,45.5 42.7,45.6 42.7,45.6 42.6,45.5 42.5,45.4 
	42.4,45.3 42.3,45.1 42.3,45 42.2,44.9 42.1,44.8 42,44.7 42,44.5 41.9,44.4 41.8,44.3 41.8,44.2 41.7,44.1 41.6,43.9 41.6,43.8 
	41.5,43.7 41.5,43.6 41.4,43.4 41.3,43.3 41.3,43.2 41.2,43 41.2,42.9 41.1,42.8 41.1,42.7 41,42.5 41,42.4 40.9,42.3 40.9,42.1 
	40.8,42 40.8,41.9 40.7,41.7 40.7,41.6 40.6,41.7 40.6,41.7 40.5,41.8 40.4,41.9 40.4,42 40.3,42 40.3,42.1 40.2,42.2 40.2,42.3 
	40.2,42.4 40.1,42.5 40.1,42.5 40,42.6 40,42.7 40,42.8 40,42.9 39.9,43 39.9,43.1 39.9,43.2 39.9,43.3 39.8,43.4 39.8,43.5 
	39.8,43.6 39.8,43.7 39.8,43.8 39.8,43.9 39.8,44 39.7,44.1 39.7,44.2 39.7,44.3 39.7,44.4 39.7,44.5 39.7,44.9 39.7,45.3 
	39.6,45.7 39.6,46.1 39.6,46.5 39.5,46.8 39.5,47.2 39.5,47.6 39.5,48 39.5,48.4 39.4,48.8 39.4,49.2 39.4,49.6 39.4,50 39.4,50.4 
	39.4,50.8 39.3,51.2 39.3,51.6 39.3,52 39.3,52.4 39.3,52.8 39.3,53.2 39.3,53.6 39.4,54 39.4,54.4 39.5,54.8 39.5,55.2 39.5,55.6 
	39.4,56 39.4,56.4 39.4,56.8 39.4,57.2 39.3,57.3 39.3,57.4 39.4,57.5 39.5,57.6 39.5,57.7 39.5,57.8 39.4,57.9 39.4,58 39.4,58.1 
	39.4,58.2 39.4,58.3 39.4,58.5 39.4,58.6 39.4,58.7 39.4,58.8 39.4,58.9 39.4,59 39.5,59.1 39.5,59.2 39.5,59.3 39.5,59.4 
	39.6,59.5 39.6,59.6 39.6,59.7 39.7,59.8 39.7,59.9 39.7,60 39.8,60.1 39.8,60.2 39.9,60.3 39.9,60.4 40,60.4 40,60.3 40,60.1 
	40.1,60 40.1,59.8 40.1,59.7 40.1,59.5 40.1,59.4 40.1,59.2 40.1,59.1 40,58.9 40,58.7 40,58.6 40,58.4 40,58.3 39.9,58.1 39.9,58 
	39.9,57.8 39.8,57.7 39.8,57.5 39.8,57.4 39.7,57.2 39.7,57 39.7,56.9 39.6,56.7 39.6,56.6 39.5,56.4 39.5,56.3 39.4,56.1 39.4,56 
	39.4,55.8 39.3,55.7 39.3,55.5 39.2,55.2 39.1,54.8 39,54.4 38.9,54.1 38.8,53.7 38.8,53.3 38.7,53 38.6,52.6 38.6,52.2 38.5,51.8 
	38.4,51.5 38.4,51.1 38.3,50.7 38.3,50.4 38.3,50 38.2,49.6 38.2,49.2 38.2,48.9 38.1,48.5 38.1,48.1 38.1,47.7 38.1,47.4 38.1,47 
	38.1,46.6 38.1,46.2 38.1,45.8 38.1,45.5 38.1,45.1 38.1,44.7 38.1,44.3 38.1,44 38.2,43.6 38.3,44.1 38.5,44.5 38.7,45 38.9,45.5 
	39.1,45.9 39.2,46.4 39.4,46.8 39.7,47.3 39.9,47.8 40.1,48.2 40.3,48.7 40.5,49.1 40.8,49.5 41,50 41.2,50.4 41.5,50.8 41.7,51.3 
	42,51.7 42.3,52.1 42.5,52.5 42.8,53 43.1,53.4 43.4,53.8 43.7,54.2 44,54.6 44.3,55 44.6,55.4 44.9,55.8 45.2,56.2 45.5,56.6 
	45.8,56.9 46.2,57.3 46,56.9 45.8,56.6 45.6,56.2 45.4,55.8 45.2,55.5 45,55.1 44.8,54.7 44.5,54.4 44.3,54 44.1,53.7 43.9,53.3 
	43.7,52.9 43.5,52.6 43.3,52.2 43.1,51.8 42.9,51.5 42.7,51.1 42.4,50.8 42.2,50.4 42,50 41.8,49.7 41.6,49.3 41.3,49 41.1,48.6 
	40.9,48.3 40.7,47.9 40.5,47.6 40.2,47.2 40,46.8 39.8,46.5 39.6,46.1 39.3,45.8 39.3,45.7 39.3,45.7 39.2,45.6 39.2,45.5 
	39.1,45.5 39.1,45.4 39.1,45.4 39,45.3 39,45.2 38.9,45.2 38.9,45.1 38.9,45 38.8,45 38.8,44.9 38.8,44.8 38.8,44.8 38.7,44.7 
	38.7,44.6 38.7,44.6 38.7,44.5 38.6,44.4 38.6,44.4 38.6,44.3 38.6,44.2 38.6,44.2 38.6,44.1 38.6,44 38.5,44 38.5,43.9 38.5,43.8 
	38.5,43.7 38.5,43.7 38.6,43.6 38.6,43.6 38.6,43.5 38.6,43.5 38.6,43.4 38.6,43.4 38.6,43.3 38.7,43.3 38.7,43.2 38.7,43.2 
	38.7,43.1 38.7,43.1 38.8,43 38.8,43 38.8,42.9 38.8,42.9 38.9,42.8 38.9,42.8 38.9,42.7 38.9,42.7 39,42.6 39,42.6 39,42.6 
	39.1,42.5 39.1,42.5 39.1,42.4 39.2,42.4 39.2,42.3 39.2,42.3 39.3,42.3 39.3,42.2 39.3,42.2 39.5,42 39.6,41.9 39.7,41.8 
	39.8,41.6 39.9,41.5 40.1,41.4 40.2,41.3 40.3,41.1 40.4,41 40.6,40.9 40.7,40.8 40.8,40.7 41,40.5 41.1,40.4 41.2,40.3 41.4,40.2 
	41.5,40.1 41.6,40 41.8,39.9 41.9,39.8 42.1,39.7 42.2,39.6 42.4,39.5 42.5,39.4 42.7,39.3 42.8,39.2 43,39.1 43.1,39 43.3,38.9 
	43.4,38.8 43.6,38.8 43.8,38.7 43.9,38.6 44,38.5 44.2,38.5 44.3,38.4 44.5,38.4 44.6,38.3 44.8,38.2 44.9,38.2 45,38.1 45.2,38.1 
	45.3,38 45.5,37.9 45.6,37.9 45.8,37.8 45.9,37.8 46.1,37.7 46.2,37.7 46.4,37.6 46.5,37.6 46.7,37.5 46.8,37.5 47,37.4 47.1,37.4 
	47.3,37.4 47.4,37.3 47.6,37.3 47.7,37.2 47.9,37.2 48,37.1 48.2,37.1 48.3,37 48.5,37 48.7,36.9 48.9,36.9 49.1,36.8 49.4,36.8 
	49.6,36.7 49.8,36.7 50,36.6 50.2,36.5 50.5,36.5 50.7,36.5 50.9,36.4 51.2,36.4 51.4,36.4 51.6,36.3 51.8,36.3 52.1,36.3 
	52.3,36.3 52.5,36.3 52.7,36.3 52.9,36.3 53.2,36.3 53.4,36.3 53.6,36.4 53.8,36.4 54,36.5 54.2,36.5 54.4,36.6 54.6,36.7 
	54.8,36.8 55,36.9 55.2,37 55.4,37.1 55.5,37.2 55.7,37.3 55.8,37.4 55.9,37.5 56,37.6 56.1,37.8 56.3,37.9 56.4,38 56.5,38.2 
	56.6,38.3 56.6,38.4 56.7,38.6 56.8,38.7 56.9,38.9 57,39 57.1,39.2 57.1,39.4 57.2,39.5 57.3,39.7 57.3,39.8 57.4,40 57.5,40.2 
	57.5,40.3 57.6,40.5 57.6,40.7 57.7,40.8 57.7,41 57.8,41.2 57.8,41.4 57.8,41.5 57.9,41.7 57.9,41.9 58.1,42.4 58.2,42.9 
	58.3,43.5 58.4,44 58.5,44.6 58.6,45.1 58.7,45.6 58.8,46.2 58.9,46.7 59,47.3 59,47.8 59.1,48.4 59.2,48.9 59.3,49.5 59.3,50 
	59.4,50.6 59.4,51.1 59.5,51.7 59.5,52.2 59.5,52.8 59.6,53.3 59.6,53.9 59.6,54.4 59.6,55 59.6,55.5 59.5,56.1 59.5,56.6 
	59.6,57.2 59.6,57.7 59.6,58.3 59.5,58.8 59.5,59.4 59.5,59.4 59.5,59.5 59.5,59.5 59.5,59.6 59.5,59.6 59.5,59.7 59.5,59.7 
	59.5,59.8 59.5,59.9 59.5,59.9 59.5,60 59.5,60 59.5,60.1 59.5,60.1 59.5,60.2 59.5,60.2 59.5,60.3 59.4,60.3 59.4,60.4 59.4,60.4 
	59.4,60.5 59.4,60.5 59.4,60.6 59.3,60.6 59.3,60.7 59.3,60.7 59.3,60.8 59.3,60.8 59.2,60.9 59.2,60.9 59.2,61 59.1,61 59.1,61.1 
	59,61.1 59,61.2 58.9,61.2 58.9,61.3 58.8,61.3 58.7,61.4 58.7,61.4 58.6,61.5 58.5,61.5 58.5,61.5 58.4,61.6 58.3,61.6 58.3,61.6 
	58.2,61.6 58.1,61.7 58,61.7 57.9,61.7 57.9,61.7 57.8,61.7 57.7,61.8 57.6,61.8 57.5,61.8 57.5,61.8 57.4,61.8 57.3,61.8 
	57.2,61.8 57.1,61.8 57.1,61.8 57,61.8 56.9,61.8 56.8,61.8 56.6,61.9 56.3,61.9 56,61.9 55.7,61.9 55.5,61.9 55.2,61.9 54.9,61.9 
	54.6,62 54.4,62 54.1,62 53.8,62 53.6,62 53.3,62 53,62 52.7,62.3 52.5,62.5 52.2,62.5 51.9,62.3 51.6,62.1 51.4,62.1 51.1,62 
	50.8,62 50.6,62 50.3,61.9 50,61.9 49.7,61.9 49.5,61.9 49.2,61.8 48.9,61.8 48.7,61.8 48.4,61.7 48.1,61.7 47.9,61.6 47.6,61.6 
	47.3,61.5 47,61.5 46.8,61.4 46.5,61.3 46.3,61.3 46,61.2 45.7,61.1 45.5,61 45.2,60.9 45,60.8 44.7,60.7 44.4,60.6 44.2,60.5 
	44,60.4 43.7,60.3 43.5,60.2 43.2,60 43,59.9 42.8,59.7 42.5,59.6 42.3,59.4 42.1,59.3 41.9,59.1 41.7,59 41.5,58.8 41.2,58.6 
	41,58.4 40.9,58.2 40.7,58 40.5,57.8 40.8,57.9 41,58 41.3,58 41.6,58.1 41.9,58.2 42.2,58.2 42.5,58.3 42.7,58.4 43,58.4 
	43.3,58.5 43.6,58.6 43.9,58.6 44.1,58.7 44.4,58.8 44.7,58.9 45,58.9 45.3,59 45.5,59.1 45.8,59.1 46.1,59.2 46.4,59.3 46.7,59.3 
	47,59.4 47.2,59.5 47.5,59.5 47.8,59.6 48.1,59.7 48.4,59.7 48.6,59.8 48.9,59.9 49.2,59.9 49.5,60 49.6,60 49.7,60.1 49.9,60.1 
	50,60.1 50.1,60.1 50.3,60.2 50.4,60.2 50.5,60.2 50.7,60.3 50.8,60.3 50.9,60.3 51.1,60.3 51.2,60.3 51.3,60.3 51.5,60.4 
	51.6,60.4 51.7,60.4 51.8,60.5 52,60.5 52.1,60.4 52.2,60.4 52.4,60.4 52.5,60.3 52.6,60.3 52.7,60.3 52.9,60.3 53,60.2 53.1,60.2 
	53.2,60.2 53.4,60.1 53.5,60.1 53.6,60 53.7,59.9 53.8,59.9 54,59.8 54.1,59.7 54.2,59.6 54.3,59.5 54.4,59.4 54.5,59.4 54.6,59.2 
	54.6,59.1 54.7,59 54.8,58.9 54.9,58.8 55,58.7 55,58.6 55.1,58.4 55.2,58.3 55.2,58.2 55.3,58.1 55.3,57.9 55.4,57.8 55.4,57.7 
	55.5,57.5 55.5,57.4 55.5,57.3 55.6,57.1 55.6,57 55.6,56.8 55.6,56.7 55.7,56.6 55.7,56.4 55.7,56.3 55.7,56.1 55.7,56 55.7,55.9 
	55.6,55.7 55.5,55.6 55.5,55.4 55.6,55.3 55.7,55.2 55.6,55 55.5,54.9 55.5,54.8 55.6,54.6 55.6,54.5 55.6,54.3 55.6,54.2 
	55.6,54.1 55.6,53.9 55.6,53.8 55.6,53.6 55.6,53.5 55.6,53.4 55.6,53.2 55.6,53.1 55.6,52.9 55.5,52.8 55.5,52.7 55.5,52.5 
	55.5,52.4 55.5,52.2 55.5,52.1 55.5,52 55.5,51.8 55.5,51.3 55.6,50.9 55.6,50.4 55.7,49.9 55.8,49.5 55.9,49 56.1,48.5 56.2,48.1 
	56.4,47.7 56.6,47.2 56.8,46.8 57,46.4 57.3,46 57.5,45.6 57.8,45.2 58.1,44.8 58.4,44.4 58.8,44.1 59.1,43.7 59.4,43.4 59.8,43.1 
	60.2,42.8 60.6,42.5 61,42.3 61.4,42 61.8,41.8 62.2,41.6 62.6,41.4 63.1,41.2 63.5,41 64,40.9 64.5,40.8 64.5,40.9 64.5,41 
	64.6,41 64.6,41.1 64.6,41.2 64.7,41.3 64.7,41.3 64.7,41.4 64.7,41.5 64.7,41.6 64.7,41.7 64.7,41.8 64.6,41.8 64.5,41.9 64.5,42 
	64.6,42.1 64.7,42.2 64.7,42.3 64.7,42.4 64.7,42.4 64.7,42.5 64.7,42.6 64.7,42.7 64.7,42.8 64.7,42.9 64.6,43 64.6,43 64.6,43.1 
	64.6,43.2 64.6,43.3 64.6,43.4 64.5,43.5 64.4,43.8 64.4,44.2 64.3,44.6 64.2,45 64.1,45.4 64,45.8 63.9,46.2 63.8,46.6 63.7,46.9 
	63.6,47.3 63.5,47.7 63.4,48.1 63.4,48.5 63.3,48.9 63.2,49.3 63.1,49.6 63,50 62.9,50.4 62.8,50.8 62.7,51.2 62.6,51.6 62.5,52 
	62.5,52.4 62.4,52.7 62.3,53.1 62.2,53.5 62.1,53.9 62,54.3 61.9,54.7 61.8,55.1 61.7,55.4 61.6,55.8 61.6,55.9 61.6,56 61.6,56.1 
	61.6,56.2 61.5,56.3 61.5,56.4 61.5,56.4 61.5,56.5 61.4,56.6 61.4,56.7 61.4,56.8 61.3,56.9 61.3,57 61.3,57.1 61.2,57.1 
	61.2,57.2 61.2,57.3 61.1,57.4 61.1,57.4 61,57.5 61,57.6 60.9,57.7 60.9,57.7 60.8,57.8 60.7,57.9 60.7,57.9 60.6,58 60.6,58 
	60.5,58.1 60.4,58.1 60.3,58.2 60.3,58.2 60.2,58.2 60.1,58.3 60.1,58.3 60,58.3 59.9,58.3 59.9,58.3 59.8,58.3 59.7,58.3 
	59.7,58.4 59.6,58.5 59.5,58.5 59.4,58.4 59.4,58.4 59.3,58.3 59.2,58.3 59.2,58.3 59.1,58.3 59,58.3 59,58.2 58.9,58.2 58.8,58.2 
	58.8,58.2 58.7,58.1 58.6,58.1 58.6,58.1 58.5,58 58.4,58 58.4,58 58.3,57.9 58.3,57.9 58.2,57.9 58.2,57.8 58.1,57.8 58.1,57.7 
	58,57.7 57.9,57.6 57.9,57.6 57.9,57.5 57.8,57.5 57.8,57.4 57.7,57.4 57.7,57.3 57.6,57.3 57.6,57.2 57.5,57.2 57.5,57.1 57.5,57 
	57.4,57 57.4,56.9 57.3,56.9 57.3,56.8 57.3,56.7 57.2,56.7 57.2,56.6 57.2,56.6 57.1,56.5 57.1,56.4 57.1,56.4 57,56.3 57,56.2 
	57,56.2 56.9,56.1 56.9,56.1 56.9,56 56.8,55.9 56.8,55.9 56.8,55.8 56.8,55.7 56.7,55.7 56.7,55.6 56.7,55.5 56.7,55.5 56.6,55.4 
	56.6,55.4 56.6,55.3 56.6,55.2 56.5,55.2 56.5,55.1 56.5,55 56.5,55 56.4,54.9 56.4,54.8 56.4,54.8 56.4,54.7 56.4,54.6 56.4,54.6 
	56.3,54.5 56.3,54.4 56.3,54.4 56.3,54.3 56.3,54.2 56.3,54.2 56.3,54.1 56.4,54 56.5,53.9 56.5,53.9 56.4,53.8 56.3,53.7 
	56.3,53.7 56.3,53.6 56.3,53.5 56.3,53.5 56.3,53.4 56.4,53.3 56.4,53.3 56.4,53.2 56.4,53.1 56.4,53.1 56.5,53 56.5,52.9 
	56.5,52.9 56.5,52.8 56.6,52.7 56.6,52.7 56.6,52.6 56.7,52.6 56.7,52.5 56.8,52.5 56.8,52.4 56.9,52.4 56.9,52.3 57,52.3 57,52.2 
	57.1,52.2 57.1,52.1 57.2,52.1 57.2,52.1 57.3,52 57.4,52 57.5,52 57.6,51.9 57.7,51.9 57.8,51.9 57.9,51.9 57.9,51.9 58,51.9 
	58.1,51.9 58.2,51.9 58.3,51.9 58.4,52 58.5,52 58.6,52 58.7,52.1 58.8,52.1 58.9,52.1 58.9,52.2 59,52.2 59.1,52.3 59.2,52.4 
	59.3,52.4 59.3,52.5 59.4,52.6 59.5,52.6 59.6,52.7 59.6,52.8 59.7,52.9 59.7,53 59.8,53 59.8,53.1 59.9,53.2 59.9,53.3 59.9,53.4 
	60,53.5 60,53.6 60,53.7 60,53.8 60.1,53.9 60.1,54 60.1,54.1 60.1,54.2 60.1,54.2 60.3,54.3 60.5,54.4 60.5,54.5 60.3,54.6 
	60.2,54.7 60.2,54.8 60.1,54.9 60.1,55 60.1,55.1 60.1,55.2 60,55.3 60,55.4 60,55.5 60,55.6 60,55.7 59.9,55.8 59.9,55.9 59.9,56 
	59.9,56.1 59.8,56.2 59.8,56.3 59.8,56.4 59.7,56.6 59.7,56.7 59.6,56.8 59.6,57 59.5,57.1 59.5,57.2 59.4,57.4 59.4,57.5 
	59.3,57.6 59.2,57.8 59.2,57.9 59.1,58 59.1,58.2 59,58.3 58.9,58.4 58.9,58.5 58.8,58.7 58.7,58.8 58.6,58.9 58.6,59 58.5,59.2 
	58.4,59.3 58.3,59.4 58.3,59.5 58.2,59.6 58.1,59.8 58,59.9 57.9,60 57.8,60.1 57.7,60.2 57.6,60.3 57.6,60.4 57.5,60.5 57.5,60.5 
	57.4,60.6 57.3,60.7 57.3,60.7 57.2,60.8 57.2,60.9 57.1,60.9 57,61 57,61.1 56.9,61.1 56.8,61.2 56.7,61.2 56.7,61.3 56.6,61.4 
	56.5,61.4 56.5,61.5 56.4,61.5 56.3,61.6 56.2,61.6 56.1,61.6 56.1,61.7 56,61.7 55.9,61.8 55.8,61.8 55.7,61.8 55.7,61.8 
	55.6,61.9 55.5,61.9 55.4,61.9 55.3,61.9 55.2,61.7 55.1,61.5 55,61.5 54.9,61.7 54.9,61.8 54.8,61.8 54.7,61.9 54.6,61.8 
	54.5,61.8 54.4,61.8 54.3,61.8 54.2,61.7 54.2,61.7 54.1,61.6 54,61.6 53.9,61.5 53.9,61.5 53.8,61.4 53.7,61.4 53.7,61.3 
	53.6,61.2 53.6,61.2 53.5,61.1 53.5,61 53.4,60.9 53.4,60.9 53.4,60.8 53.3,60.7 53.3,60.6 53.3,60.5 53.3,60.4 53.3,60.4 
	53.5,60.5 53.7,60.6 53.9,60.7 54.1,60.9 54.3,61 54.5,61.2 54.7,61.3 54.8,61.5 55,61.7 55.2,61.8 55.3,62 55.5,62.2 55.6,62.4 
	55.8,62.6 55.9,62.7 56.1,62.9 56.2,63.1 56.4,63.3 56.5,63.5 56.6,63.7 56.8,63.9 56.9,64.1 57,64.3 57.2,64.5 57.3,64.8 57.4,65 
	57.5,65.2 57.7,65.4 57.8,65.6 57.9,65.8 58,66 58.1,66.2 58.2,66.4 58.3,66.5 58.4,66.7 58.5,66.8 58.5,67 58.6,67.1 58.7,67.3 
	58.8,67.4 58.8,67.6 58.9,67.7 59,67.9 59.1,68 59.1,68.2 59.2,68.3 59.2,68.5 59.3,68.7 59.3,68.8 59.4,69 59.4,69.1 59.5,69.3 
	59.5,69.4 59.5,69.6 59.5,69.8 59.6,69.9 59.6,70.1 59.6,70.2 59.6,70.4 59.6,70.6 59.5,70.7 59.5,70.9 59.5,71 59.5,71.2 
	59.2,71.3 58.9,71.3 58.6,71.4 58.3,71.4 58.1,71.4 57.8,71.4 57.5,71.4 57.2,71.4 57,71.4 56.7,71.3 56.4,71.3 56.1,71.2 
	55.9,71.1 55.6,71.1 55.3,71 55.1,70.9 54.8,70.8 54.5,70.7 54.2,70.5 54,70.4 53.7,70.3 53.5,70.2 53.2,70 52.9,69.9 52.7,69.7 
	52.4,69.6 52.2,69.4 51.9,69.3 51.7,69.1 51.4,68.9 51.2,68.8 51,68.6 50.8,68.5 50.6,68.3 50.4,68.2 50.2,68.1 50,67.9 49.8,67.8 
	49.6,67.6 49.4,67.5 49.2,67.3 49,67.2 48.8,67.1 48.6,66.9 48.4,66.8 48.2,66.6 48,66.5 47.8,66.3 47.6,66.2 47.4,66 47.2,65.9 
	47.1,65.7 46.9,65.5 46.7,65.4 46.5,65.2 46.3,65.1 46.2,64.9 46,64.7 45.8,64.6 45.6,64.4 45.5,64.2 45.3,64 45.1,63.9 45,63.7 
	44.8,63.5 44.7,63.3 44.5,63.1 44.4,62.9 44.2,62.7 44.1,62.5 43.9,62.3 43.8,62.1 43.6,61.9 43.5,61.7 43.4,61.5 43.2,61.3 
	43.1,61.1 43,60.9 42.9,60.7 42.8,60.5 42.7,60.3 42.6,60 42.5,59.8 42.4,59.6 42.3,59.4 42.2,59.1 42.1,58.9 42,58.7 42,58.4 
	41.9,58.2 41.9,58 41.8,57.7 41.8,57.5 41.7,57.3 41.7,57 41.6,56.8 42,56.7 42.3,56.7 42.6,56.6 42.9,56.6 43.2,56.5 43.5,56.5 
	43.8,56.5 44.2,56.4 44.5,56.4 44.8,56.4 45.1,56.4 45.4,56.3 45.7,56.3 46.1,56.3 46.4,56.4 46.7,56.5 47,56.5 47.3,56.4 
	47.7,56.4 48,56.5 48.3,56.5 48.6,56.4 48.9,56.4 49.2,56.4 49.6,56.4 49.9,56.5 50.2,56.5 50.5,56.5 50.8,56.6 51.1,56.6 
	51.4,56.7 51.8,56.7 51.9,56.7 52.1,56.8 52.3,56.8 52.5,56.8 52.6,56.9 52.8,56.9 53,56.9 53.1,57 53.3,57 53.5,57.1 53.7,57.1 
	53.8,57.2 54,57.2 54.2,57.3 54.3,57.3 54.5,57.4 54.7,57.4 54.8,57.5 55,57.5 55.2,57.6 55.3,57.6 55.5,57.7 55.7,57.8 55.8,57.9 
	56,57.9 56.1,58 56.3,58.1 56.4,58.2 56.6,58.2 56.8,58.3 56.9,58.4 57.1,58.5 57.2,58.6 57.4,58.7 57.5,58.8 57.7,58.9 57.8,59 
	57.9,59.1 58.1,59.2 58.2,59.3 58.3,59.4 58.5,59.5 58.6,59.7 58.7,59.8 58.9,59.9 59,60 59.1,60.2 59.2,60.3 59.3,60.4 59.4,60.6 
	59.5,60.7 59.7,60.9 59.8,61 59.8,61.1 59.9,61.3 60,61.4 60.1,61.6 60.2,61.8 60.3,61.9 60.3,62.1 60.4,62.2 60.5,62.4 60.5,62.6 
	60.6,62.7 60.3,62.6 60,62.5 59.7,62.5 59.4,62.6 59.1,62.7 58.8,62.7 58.5,62.6 58.2,62.6 57.9,62.6 57.6,62.5 57.3,62.4 57,62.4 
	56.7,62.3 56.4,62.2 56.1,62.1 55.9,62 55.6,61.9 55.3,61.8 55,61.6 54.8,61.5 54.5,61.3 54.2,61.2 54,61 53.7,60.9 53.5,60.7 
	53.2,60.5 53,60.3 52.8,60.1 52.5,59.9 52.3,59.7 52.1,59.5 51.9,59.3 52,59.2 52.2,59.1 52.3,59.1 52.5,59 52.6,58.9 52.7,58.9 
	52.9,58.8 53,58.8 53.2,58.7 53.4,58.7 53.5,58.7 53.7,58.6 53.8,58.6 54,58.6 54.1,58.6 54.3,58.6 54.5,58.5 54.6,58.5 54.8,58.6 
	54.9,58.6 55.1,58.6 55.3,58.6 55.4,58.6 55.6,58.6 55.7,58.7 55.9,58.7 56.1,58.7 56.2,58.8 56.4,58.8 56.5,58.9 56.7,58.9 
	56.8,59 57,59.1 57.1,59.1 57.3,59.2 57.4,59.3 57.6,59.3 57.7,59.4 57.8,59.5 58,59.6 58.1,59.7 58.2,59.8 58.4,59.9 58.5,60 
	58.6,60.1 58.7,60.2 58.9,60.3 59,60.4 59.1,60.5 59.2,60.6 59.3,60.7 59.4,60.8 59.6,60.9 59.7,61 59.8,61.2 59.9,61.3 60,61.4 
	60.1,61.5 60.2,61.7 60.3,61.8 60.4,61.9 60.5,62.1 60.6,62.2 60.6,62.3 60.7,62.4 60.8,62.5 60.8,62.6 60.9,62.7 60.9,62.8 
	61,62.9 61,62.9 61,63 61.1,63.1 61.1,63.2 61.2,63.3 61.2,63.4 61.2,63.5 61.3,63.6 61.3,63.7 61.3,63.8 61.3,63.9 61.4,64 
	61.4,64.1 61.4,64.2 61.5,64.3 61.5,64.4 61.4,64.5 61.4,64.6 61.4,64.7 61.3,64.8 61.3,64.9 61.3,65 61.3,65 61.2,65.1 61.2,65.2 
	61.1,65.3 61.1,65.4 61,65.4 61,65.5 60.9,65.5 60.9,65.6 60.8,65.6 60.8,65.7 60.7,65.7 60.7,65.8 60.6,65.8 60.6,65.8 60.5,65.9 
	60.5,65.9 60.4,65.9 60.3,66 60.3,66 60.2,66 60.1,66.1 60.1,66.1 60,66.1 59.9,66.1 59.9,66.2 59.8,66.2 59.7,66.2 59.7,66.2 
	59.6,66.2 59.5,66.3 59.4,66.3 59.4,66.3 59.3,66.3 59.2,66.3 59.2,66.3 59,66.4 58.8,66.4 58.6,66.4 58.5,66.4 58.3,66.4 
	58.1,66.4 57.9,66.5 57.7,66.5 57.6,66.5 57.4,66.5 57.2,66.5 57,66.5 56.8,66.5 56.7,66.4 56.5,66.4 56.3,66.4 56.1,66.4 56,66.4 
	55.8,66.3 55.6,66.3 55.4,66.3 55.3,66.2 55.1,66.2 54.9,66.2 54.7,66.1 54.6,66.1 54.4,66 54.2,66 54,65.9 53.9,65.9 53.7,65.8 
	53.5,65.7 53.4,65.7 53.3,65.6 53.2,65.6 53.1,65.5 52.9,65.5 52.8,65.4 52.7,65.3 52.6,65.3 52.5,65.2 52.3,65.1 52.2,65 52.1,65 
	52,64.9 51.9,64.8 51.8,64.7 51.7,64.6 51.6,64.5 51.5,64.4 51.4,64.3 51.4,64.2 51.3,64.1 51.2,64 51.1,63.9 51.1,63.8 51,63.7 
	50.9,63.6 50.9,63.5 50.9,63.4 50.8,63.2 50.8,63.1 50.8,63 50.7,62.9 50.7,62.7 50.7,62.5 50.7,62.4 50.7,62.2 50.8,62 50.8,61.9 
	50.8,61.7 50.9,61.6 51,61.4 51,61.3 51.1,61.2 51.2,61 51.3,60.9 51.4,60.7 51.5,60.6 51.6,60.5 51.7,60.4 51.8,60.2 51.9,60.1 
	52.1,60 52.2,59.9 52.3,59.8 52.5,59.7 52.6,59.6 52.8,59.5 52.9,59.4 53.1,59.3 53.2,59.2 53.4,59.1 53.5,59 53.7,58.9 53.8,58.8 
	54.1,58.7 54.4,58.6 54.7,58.5 54.9,58.3 55.2,58.2 55.5,58.1 55.8,58 56.1,57.9 56.4,57.8 56.7,57.7 57,57.6 57.2,57.5 57.5,57.4 
	57.8,57.3 58.1,57.3 58.4,57.2 58.7,57.1 59,57.1 59.3,57 59.6,57 59.9,56.9 60.2,56.9 60.5,56.8 60.8,56.8 61.2,56.7 61.5,56.7 
	61.8,56.7 62.1,56.7 62.4,56.7 62.7,56.6 63,56.5 63.3,56.5 63.4,56.5 63.4,56.6 63.5,56.6 63.5,56.6 63.6,56.7 63.6,56.7 
	63.7,56.7 63.7,56.7 63.8,56.7 63.8,56.7 63.9,56.7 63.9,56.7 64,56.8 64,56.8 64.1,56.8 64.1,56.8 64.2,56.8 64.2,56.8 64.3,56.9 
	64.3,56.9 64.3,56.9 64.4,57 64.4,57 64.5,57 64.5,57.1 64.5,57.1 64.5,57.1 64.6,57.2 64.6,57.2 64.6,57.3 64.6,57.3 64.6,57.4 
	64.6,57.4 64.5,57.4 64.5,57.4 64.5,57.5 64.6,57.5 64.6,57.5 64.6,57.5 64.6,57.6 64.6,57.6 64.6,57.6 64.6,57.6 64.6,57.7 
	64.6,57.7 64.6,57.7 64.6,57.8 64.5,57.8 64.5,57.8 64.5,57.8 64.5,57.9 64.5,57.9 64.5,57.9 64.5,57.9 64.4,58 64.4,58 64.4,58 
	64.4,58 64.4,58 64.4,58.1 64.3,58.1 64.3,58.1 64.3,58.1 64.3,58.2 64.3,58.2 64.2,58.3 64.2,58.3 64.1,58.4 64.1,58.5 64,58.5 
	64,58.6 63.9,58.6 63.9,58.7 63.8,58.7 63.8,58.8 63.7,58.8 63.7,58.9 63.6,58.9 63.6,59 63.5,59.1 63.5,59.1 63.4,59.2 63.4,59.2 
	63.3,59.3 63.3,59.3 63.2,59.4 63.1,59.4 63.1,59.5 63,59.5 63,59.6 62.9,59.6 62.9,59.7 62.8,59.7 62.8,59.8 62.7,59.8 62.6,59.9 
	62.6,59.9 62.6,59.9 62.5,59.9 62.5,60 62.5,60 62.4,60 62.4,60.1 62.3,60.1 62.3,60.1 62.3,60.1 62.2,60.2 62.2,60.2 62.1,60.2 
	62.1,60.2 62.1,60.3 62,60.3 62,60.3 61.9,60.3 61.9,60.3 61.9,60.4 61.8,60.4 61.8,60.4 61.7,60.4 61.7,60.4 61.6,60.4 61.6,60.5 
	61.6,60.5 61.5,60.5 61.5,60.5 61.4,60.5 61.4,60.5 61.3,60.5 61.2,60.5 61.1,60.5 61,60.5 60.9,60.5 60.8,60.5 60.7,60.5 
	60.6,60.4 60.5,60.4 60.4,60.4 60.3,60.3 60.2,60.3 60.2,60.2 60.1,60.2 60,60.1 59.9,60 59.8,60 59.7,59.9 59.7,59.8 59.6,59.7 
	59.5,59.6 59.4,59.5 59.4,59.5 59.3,59.4 59.2,59.3 59.2,59.2 59.1,59.1 59,59 59,58.9 58.9,58.8 58.9,58.7 58.8,58.6 58.8,58.5 
	58.7,58.4 58.6,58.2 58.6,58.1 58.5,58 58.4,57.8 58.4,57.7 58.3,57.5 58.2,57.4 58.2,57.2 58.1,57.1 58.1,57 58,56.8 57.9,56.7 
	57.9,56.5 57.8,56.4 57.8,56.2 57.7,56.1 57.7,55.9 57.6,55.8 57.6,55.7 57.5,55.5 57.5,55.4 57.4,55.2 57.4,55.1 57.3,54.9 
	57.3,54.8 57.3,54.6 57.2,54.5 57.2,54.3 57.1,54.2 57.1,54 57.1,53.9 57,53.7 57,53.5 57,53.4 56.9,53.2 56.9,53 56.9,52.9 
	56.9,52.7 56.8,52.5 56.8,52.3 56.8,52.2 56.8,52 56.8,51.8 56.6,51.7 56.5,51.5 56.5,51.3 56.6,51.1 56.7,51 56.8,50.8 56.8,50.6 
	56.8,50.5 56.9,50.3 56.9,50.1 56.9,50 57,49.8 57,49.6 57.1,49.5 57.1,49.3 57.2,49.2 57.2,49 57.3,48.9 57.4,48.7 57.5,48.6 
	57.6,48.4 57.7,48.2 57.8,48 58,47.9 58.1,47.7 58.2,47.6 58.4,47.4 58.6,47.3 58.7,47.2 58.9,47 59.1,46.9 59.2,46.8 59.4,46.7 
	59.6,46.6 59.8,46.5 60,46.4 60.2,46.3 60.4,46.2 60.6,46.1 60.8,46 61,45.9 61.2,45.8 61.4,45.8 61.6,45.7 61.8,45.6 62,45.6 
	62.2,45.5 62.4,45.4 62.6,45.4 62.8,45.3 63,45.2 63.2,45.2 63.3,45.2 63.4,45.2 63.4,45.1 63.5,45.1 63.6,45.1 63.6,45.1 
	63.7,45.1 63.8,45.1 63.8,45 63.9,45 64,45 64,45 64.1,45 64.2,45 64.2,45 64.3,45 64.3,45 64.4,44.7 64.5,44.5 64.5,44.5 
	64.6,44.7 64.7,44.9 64.7,44.9 64.8,45 64.9,45 64.9,45 65,45 65,45 65.1,45.1 65.2,45.1 65.2,45.1 65.3,45.1 65.3,45.2 65.4,45.2 
	65.5,45.2 65.5,45.3 65.6,45.3 65.6,45.4 65.7,45.4 65.7,45.5 65.8,45.5 65.8,45.6 65.8,45.6 65.9,45.7 65.9,45.8 66,45.8 66,45.9 
	66,45.9 66.1,46 66.1,46.1 66.1,46.1 66.2,46.2 66.2,46.3 66.2,46.3 66.2,46.4 66.3,46.5 66.3,46.6 66.3,46.6 66.3,46.7 66.3,46.8 
	66.4,46.8 66.4,46.9 66.4,47 66.4,47 66.4,47.1 66.5,47.2 66.5,47.4 66.5,47.5 66.5,47.6 66.6,47.7 66.6,47.8 66.6,47.9 66.6,48 
	66.6,48.1 66.7,48.2 66.7,48.3 66.7,48.4 66.7,48.5 66.7,48.6 66.7,48.7 66.7,48.8 66.8,48.9 66.8,49 66.8,49.1 66.8,49.2 
	66.6,49.3 66.5,49.4 66.5,49.6 66.6,49.7 66.7,49.8 66.6,49.9 66.5,50 66.5,50.1 66.6,50.2 66.7,50.3 66.7,50.4 66.7,50.5 
	66.7,50.6 66.7,50.7 66.6,50.8 66.6,50.9 66.6,51 66.5,51.1 66.5,51.2 66.5,51.3 66.4,51.4 66.4,51.5 66.3,51.6 66.3,51.7 
	66.2,51.8 66.2,51.9 66.1,52 66,52.1 66,52.1 65.9,52.2 65.9,52.3 65.8,52.4 65.7,52.5 65.6,52.5 65.6,52.6 65.5,52.7 65.4,52.7 
	65.3,52.8 65.2,52.8 65.1,52.9 65,52.9 64.9,53 64.8,53 64.7,53.1 64.6,53.1 64.5,53.1 64.4,53.2 64.3,53.2 64.2,53.2 64.1,53.2 
	64,53.4 63.8,53.5 63.7,53.5 63.6,53.4 63.5,53.3 63.4,53.2 63.3,53.2 63.2,53.2 63.1,53.2 62.9,53.1 62.8,53.1 62.7,53.1 
	62.6,53.1 62.5,53 62.4,53 62.3,52.9 62.2,52.9 62,52.9 61.9,52.8 61.8,52.8 61.7,52.7 61.6,52.7 61.5,52.6 61.4,52.6 61.3,52.5 
	61,52.4 60.7,52.2 60.5,52.1 60.2,51.9 59.9,51.7 59.7,51.6 59.4,51.4 59.2,51.2 58.9,51 58.7,50.8 58.4,50.6 58.2,50.4 57.9,50.2 
	57.7,50 57.5,49.8 57.3,49.5 57.1,49.3 56.9,49.1 56.7,48.8 56.5,48.6 56.3,48.3 56.1,48.1 55.9,47.8 55.7,47.5 55.6,47.3 55.4,47 
	55.3,46.7 55.1,46.5 55,46.2 54.8,45.9 54.7,45.6 54.6,45.3 54.5,45.1 54.5,45 54.4,44.8 54.3,44.6 54.3,44.4 54.2,44.2 54.2,44.1 
	54.2,43.9 54.1,43.7 54.1,43.5 54.1,43.3 54,43.1 54,42.9 54,42.7 54,42.6 54,42.4 54,42.2 54,42 54.1,41.8 54.1,41.7 54.1,41.5 
	54.2,41.3 54.2,41.1 54.3,41 54.4,40.8 54.4,40.6 54.5,40.5 54.6,40.3 54.7,40.2 54.8,40.1 54.9,39.9 55.1,39.8 55.3,39.8 
	55.5,39.8 55.7,39.9 56,39.9 56.2,40 56.4,40 56.6,40.1 56.9,40.2 57.1,40.2 57.3,40.3 57.5,40.4 57.7,40.5 57.9,40.6 58.1,40.8 
	58.3,40.9 58.5,41 58.7,41.1 58.9,41.3 59.1,41.4 59.3,41.6 59.4,41.7 59.6,41.9 59.8,42 60,42.2 60.2,42.3 60.3,42.5 60.5,42.7 
	60.7,42.8 60.8,43 61,43.2 61.2,43.4 61.3,43.5 61.6,43.9 61.9,44.2 62.1,44.5 62.4,44.8 62.7,45.2 62.9,45.5 63.2,45.9 63.4,46.2 
	63.7,46.6 63.9,47 64.1,47.3 64.3,47.7 64.6,48.1 64.8,48.4 65,48.8 65.2,49.2 65.4,49.6 65.5,50 65.7,50.3 65.9,50.7 66.1,51.1 
	66.2,51.5 66.4,51.9 66.5,52.3 66.7,52.7 66.8,53.1 67,53.5 67.1,54 67.2,54.4 67.3,54.8 67.4,55.2 67.5,55.6 67.5,55.6 67.5,55.6 
	67.5,55.6 67.4,55.7 67.4,55.7 67.4,55.7 67.4,55.7 67.3,55.7 67.3,55.7 67.3,55.7 67.3,55.7 67.3,55.7 67.2,55.8 67.2,55.8 
	67.2,55.8 67.2,55.8 67.1,55.8 67.1,55.8 67.1,55.8 67.1,55.8 67,55.9 67,55.9 67,55.9 67,55.9 67,55.9 66.9,55.9 66.9,55.9 
	66.9,55.9 66.9,55.9 66.8,56 66.8,56 66.8,56 66.6,55.7 66.3,55.4 66.1,55.1 65.9,54.8 65.7,54.5 65.4,54.1 65.2,53.8 65,53.5 
	64.8,53.2 64.7,52.9 64.5,52.5 64.3,52.2 64.1,51.9 63.9,51.5 63.8,51.2 63.6,50.8 63.5,50.5 63.3,50.1 63.2,49.8 63.1,49.4 
	62.9,49.1 62.8,48.7 62.7,48.3 62.6,48 62.5,47.6 62.4,47.2 62.3,46.9 62.2,46.5 62.1,46.1 62,45.8 62,45.4 61.9,45 61.9,44.9 
	61.9,44.8 61.9,44.8 61.9,44.7 61.9,44.6 61.9,44.5 61.7,44.4 61.5,44.3 61.5,44.2 61.7,44.1 61.8,44 61.8,43.9 61.9,43.8 
	61.9,43.7 61.9,43.7 61.9,43.6 62,43.5 62,43.4 62,43.3 62,43.2 62.1,43.2 62.1,43.1 62.2,43 62.2,42.9 62.3,42.9 62.3,42.8 
	62.4,42.8 62.4,42.7 62.5,42.7 62.6,42.6 62.6,42.6 62.7,42.5 62.9,42.9 63,43.3 63.2,43.7 63.3,44 63.4,44.4 63.6,44.8 63.7,45.2 
	63.8,45.5 63.9,45.9 64,46.3 64.1,46.7 64.2,47.1 64.3,47.5 64.4,47.9 64.4,48.3 64.5,48.7 64.6,49 64.6,49.4 64.7,49.8 64.7,50.2 
	64.8,50.6 64.8,51 64.8,51.4 64.9,51.8 64.9,52.2 64.9,52.6 64.9,53 64.9,53.4 64.9,53.8 64.9,54.2 64.9,54.6 64.9,55.3 64.8,55.5 
	64.7,55.5 64.7,55.3 64.6,55.1 64.5,55.1 64.5,55 64.4,55 64.4,55 64.3,54.9 64.2,54.9 64.2,54.9 64.1,54.8 64.1,54.8 64,54.8 
	64,54.7 63.9,54.7 63.8,54.7 63.8,54.6 63.7,54.6 63.7,54.5 63.6,54.5 63.6,54.4 63.5,54.4 63.5,54.3 63.4,54.3 63.4,54.2 
	63.3,54.2 63.3,54.1 63.3,54.1 63.2,54 63.2,54 63.1,53.9 62.9,53.6 62.7,53.3 62.4,53 62.2,52.7 62,52.4 61.8,52.1 61.6,51.8 
	61.4,51.5 61.2,51.2 61,50.9 60.8,50.6 60.6,50.3 60.4,49.9 60.2,49.6 60,49.3 59.8,49 59.7,48.6 59.5,48.3 59.3,48 59.2,47.6 
	59,47.3 58.9,46.9 58.7,46.6 58.6,46.2 58.4,45.9 58.3,45.6 58.2,45.2 58,44.9 57.9,44.5 57.8,44.1 57.7,43.8 57.6,43.4 57.5,43.4 
	57.5,43.3 57.5,43.2 57.5,43.1 57.5,43 57.4,42.9 57.4,42.9 57.4,42.8 57.4,42.7 57.4,42.6 57.3,42.5 57.3,42.5 57.3,42.4 
	57.3,42.3 57.3,42.2 57.3,42.1 57.3,42.1 57.2,42 57.2,41.9 57.2,41.8 57.2,41.7 57.4,41.6 57.5,41.6 57.5,41.5 57.5,41.4 
	57.4,41.3 57.3,41.2 57.3,41.1 57.3,41.1 57.3,41 57.3,40.9 57.3,40.8 57.3,40.7 57.3,40.7 57.3,40.6 57.4,40.5 57.4,40.4 
	57.4,40.3 57.5,40.3 57.5,40.2 57.5,40.1 57.6,40 57.6,40 57.7,39.9 57.7,39.8 57.8,39.8 57.8,39.7 57.9,39.6 57.9,39.6 58,39.5 
	58,39.5 58.1,39.4 58.2,39.4 58.2,39.3 58.3,39.3 58.4,39.2 58.5,39.2 58.5,39.2 58.6,39.1 58.7,39.1 58.8,39.1 58.8,39.1 
	58.9,39.1 59,39 59.1,39.3 59.3,39.6 59.4,39.8 59.5,40.1 59.6,40.3 59.7,40.6 59.8,40.9 59.9,41.1 60,41.4 60.1,41.6 60.2,41.9 
	60.3,42.2 60.4,42.5 60.4,42.7 60.5,43 60.6,43.3 60.7,43.5 60.7,43.8 60.8,44.1 60.9,44.4 60.9,44.6 61,44.9 61.1,45.2 61.1,45.5 
	61.2,45.7 61.2,46 61.3,46.3 61.4,46.6 61.4,46.9 61.5,47.1 61.5,47.4 61.6,47.7 61.6,47.8 61.6,47.9 61.7,48 61.7,48.1 61.7,48.2 
	61.7,48.3 61.7,48.4 61.7,48.5 61.8,48.6 61.8,48.7 61.8,48.8 61.8,48.9 61.8,49 61.9,49.1 61.9,49.2 61.9,49.3 61.9,49.4 
	61.9,49.5 61.9,49.6 61.9,49.7 62,49.8 62,49.9 62,50 62,50.1 62,50.2 62,50.3 62,50.4 62,50.5 62,50.6 62.3,50.7 62.5,50.8 
	62.5,50.9 62.3,51.1 62.1,51.2 62.1,51.4 62,51.5 62,51.7 62,51.9 62,52 61.9,52.2 61.9,52.3 61.9,52.5 61.9,52.6 61.9,52.8 
	61.8,52.9 61.8,53.1 61.8,53.2 61.8,53.4 61.7,53.5 61.7,53.7 61.7,53.8 61.7,54 61.7,54.1 61.6,54.3 61.6,54.4 61.6,54.6 
	61.6,54.7 61.6,54.9 61.6,55 61.5,55.2 61.5,55.3 61.5,55.5 61.5,55.6 61.5,55.8 61.5,55.9 61.5,56 61.5,56.1 61.5,56.2 61.5,56.3 
	61.5,56.4 61.6,56.5 61.6,56.7 61.6,56.8 61.6,56.9 61.6,57 61.6,57.1 61.6,57.2 61.6,57.3 61.6,57.4 61.6,57.5 61.6,57.6 
	61.7,57.7 61.7,57.8 61.7,58 61.7,58.1 61.7,58.2 61.7,58.3 61.6,58.4 61.5,58.5 61.5,58.6 61.6,58.7 61.6,58.8 61.7,58.9 61.7,59 
	61.7,59.1 61.7,59.3 61.6,59.5 61.6,59.7 61.6,59.9 61.5,60 61.4,60.2 61.4,60.4 61.3,60.6 61.2,60.8 61.1,61 61,61.2 60.9,61.3 
	60.8,61.5 60.7,61.7 60.6,61.9 60.5,62 60.3,62.2 60.2,62.3 60.1,62.5 59.9,62.6 59.8,62.7 59.6,62.9 59.4,63 59.3,63.1 59.1,63.2 
	58.9,63.3 58.8,63.4 58.6,63.5 58.4,63.6 58.2,63.7 58,63.7 57.8,63.8 57.6,63.8 57.6,63.5 57.6,63.2 57.6,62.8 57.6,62.5 
	57.6,62.1 57.6,61.8 57.7,61.5 57.7,61.1 57.8,60.8 57.9,60.4 58,60.1 58.1,59.8 58.2,59.5 58.4,59.2 58.5,58.8 58.7,58.5 
	58.8,58.2 59,57.9 59.2,57.7 59.4,57.4 59.6,57.1 59.8,56.8 60,56.6 60.3,56.3 60.5,56.1 60.8,55.8 61,55.6 61.3,55.4 61.6,55.2 
	61.8,55 62.1,54.8 62.4,54.7 62.5,54.8 62.6,54.8 62.6,54.9 62.7,55 62.7,55.1 62.7,55.1 62.8,55.2 62.8,55.3 62.8,55.4 62.9,55.5 
	62.9,55.6 62.9,55.7 62.9,55.8 62.9,55.9 62.7,56 62.5,56.1 62.5,56.1 62.7,56.2 62.8,56.3 62.8,56.4 62.9,56.5 62.9,56.6 
	62.8,56.7 62.8,56.8 62.8,56.9 62.8,57 62.7,57.1 62.7,57.2 62.7,57.3 62.6,57.3 62.6,57.4 62.6,57.5 62.5,57.6 62.5,57.7 
	62.4,57.8 62.4,57.8 62.3,57.9 62.2,58 62.2,58.1 62.1,58.1 62.1,58.2 62,58.3 61.9,58.4 61.9,58.4 61.8,58.5 61.8,58.6 61.7,58.6 
	61.6,58.7 61.5,58.8 61.5,58.8 61.4,58.9 61.3,58.9 61.3,59 61.2,59.1 61.1,59.1 61,59.2 61,59.2 60.9,59.3 60.8,59.4 60.7,59.4 
	60.7,59.5 60.6,59.5 60.5,59.6 60.4,59.6 60.2,59.8 60,59.9 59.8,60.1 59.6,60.2 59.4,60.4 59.1,60.5 58.9,60.7 58.7,60.8 
	58.5,60.9 58.3,61.1 58,61.2 57.8,61.4 57.6,61.5 57.4,61.6 57.2,61.8 56.9,61.9 56.7,62 56.5,62.1 56.3,62.3 56,62.4 55.8,62.5 
	55.6,62.6 55.3,62.8 55.1,62.9 54.9,63 54.6,63.1 54.4,63.2 54.2,63.3 53.9,63.5 53.7,63.6 53.5,63.7 53.2,63.8 53.3,63.8 
	53.3,63.7 53.3,63.7 53.3,63.7 53.3,63.6 53.4,63.6 53.4,63.6 53.4,63.5 53.4,63.5 53.5,63.5 53.5,63.5 53.5,63.5 53.6,63.4 
	53.6,63.4 53.6,63.4 53.7,63.4 53.7,63.4 53.8,63.4 53.8,63.4 53.8,63.5 53.9,63.5 53.9,63.4 53.9,63.5 54,63.5 54,63.5 54.1,63.5 
	54.1,63.4 54.1,63.4 54.2,63.5 54.2,63.5 54.2,63.5 54.2,63.5 54.2,63.7 54.1,63.8 54.1,64 54,64.1 53.9,64.3 53.9,64.4 53.8,64.5 
	53.7,64.7 53.6,64.8 53.5,65 53.5,65.1 53.4,65.2 53.3,65.4 53.2,65.5 53.1,65.6 53,65.7 52.9,65.9 52.8,66 52.6,66.1 52.5,66.2 
	52.4,66.3 52.3,66.4 52.2,66.5 52.1,66.6 51.9,66.7 51.8,66.8 51.7,66.9 51.5,67 51.4,67.1 51.3,67.2 51.1,67.3 51,67.4 50.9,67.4 
	50.8,67.4 50.7,67.5 50.6,67.5 50.6,67.6 50.5,67.6 50.4,67.6 50.3,67.7 50.2,67.7 50.1,67.7 50,67.7 49.9,67.8 49.8,67.8 
	49.7,67.8 49.6,67.8 49.5,67.8 49.5,67.7 49.4,67.5 49.3,67.5 49.2,67.7 49.1,67.7 49,67.8 48.9,67.8 48.8,67.7 48.7,67.7 
	48.7,67.7 48.6,67.7 48.5,67.6 48.4,67.6 48.3,67.5 48.3,67.5 48.2,67.4 48.1,67.4 48.1,67.3 48.1,67.3 48,67.2 48,67.2 47.9,67.1 
	47.9,67.1 47.9,67 47.8,67 47.8,66.9 47.8,66.9 47.7,66.8 47.7,66.7 47.7,66.7 47.7,66.6 47.7,66.5 47.6,66.5 47.6,66.4 47.6,66.3 
	47.6,66.3 47.6,66.2 47.6,66.1 47.6,66.1 47.6,66 47.5,65.9 47.5,65.9 47.5,65.8 47.5,65.7 47.5,65.7 47.5,65.6 47.5,65.5 
	47.5,65.5 47.5,65.3 47.6,65.1 47.6,64.9 47.6,64.8 47.6,64.6 47.7,64.4 47.7,64.2 47.8,64.1 47.8,63.9 47.9,63.7 47.9,63.6 
	48,63.4 48.1,63.3 48.2,63.1 48.2,62.9 48.3,62.8 48.4,62.6 48.5,62.5 48.6,62.4 48.7,62.2 48.9,62.1 49,62 49.1,61.8 49.2,61.7 
	49.3,61.6 49.5,61.5 49.6,61.4 49.8,61.3 49.9,61.2 50.1,61.1 50.2,61.1 50.4,61 50.5,60.9 50.7,60.9 50.8,60.8 51,60.8 51.1,60.7 
	51.3,60.7 51.4,60.7 51.6,60.7 51.7,60.7 51.9,60.6 52,60.5 52.2,60.5 52.3,60.6 52.5,60.6 52.7,60.6 52.8,60.7 53,60.7 53.1,60.7 
	53.3,60.8 53.4,60.8 53.6,60.8 53.7,60.9 53.9,60.9 54,61 54.2,61 54.3,61.1 54.5,61.1 54.6,61.2 54.8,61.3 54.9,61.3 55.1,61.4 
	55.2,61.5 55.3,61.6 55.5,61.6 55.6,61.7 55.7,61.8 55.9,61.9 56,62 56.1,62.1 56.2,62.2 56.4,62.3 56.5,62.4 56.6,62.5 56.7,62.6 
	56.9,62.7 57,62.8 57.1,62.9 57.2,63 57.3,63.1 57.4,63.2 57.6,63.3 57.7,63.4 57.8,63.5 57.9,63.6 58,63.7 58.1,63.9 58.2,64 
	58.3,64.1 58.4,64.2 58.6,64.3 58.7,64.4 58.8,64.5 58.9,64.7 59,64.8 59,64.8 59,64.8 59,64.8 58.9,64.9 58.9,64.9 58.9,64.9 
	58.9,64.9 58.9,64.9 58.9,65 58.9,65 58.9,65 58.8,65 58.8,65.1 58.8,65.1 58.8,65.1 58.8,65.1 58.8,65.1 58.8,65.2 58.8,65.2 
	58.8,65.2 58.7,65.2 58.7,65.2 58.7,65.3 58.7,65.3 58.7,65.3 58.7,65.3 58.7,65.4 58.7,65.4 58.6,65.4 58.6,65.4 58.6,65.4 
	58.6,65.5 58.3,65.5 58.1,65.5 57.8,65.5 57.5,65.6 57.3,65.5 57,65.5 56.7,65.5 56.4,65.5 56.2,65.4 55.9,65.4 55.6,65.3 
	55.4,65.2 55.1,65.1 54.9,65 54.6,64.9 54.4,64.8 54.1,64.7 53.9,64.6 53.6,64.4 53.4,64.3 53.2,64.1 53,64 52.8,63.8 52.6,63.6 
	52.4,63.4 52.2,63.2 52,63 51.8,62.8 51.6,62.6 51.5,62.4 51.3,62.2 51.2,61.7 51.6,61.5 52,61.5 52.3,61.7 52.7,61.8 53.1,61.9 
	53.5,62 53.9,62 54.2,62.1 54.6,62.2 55,62.2 55.4,62.3 55.8,62.4 56.1,62.5 56.5,62.6 56.9,62.7 57.2,62.8 57.6,62.9 58,63.1 
	58.3,63.2 58.7,63.3 59,63.5 59.4,63.7 59.7,63.8 60,64 60.4,64.2 60.7,64.4 61,64.6 61.4,64.8 61.7,65 62,65.2 62.3,65.4 
	62.6,65.7 62.4,65.7 62.2,65.8 62.1,65.8 61.9,65.8 61.7,65.9 61.5,65.9 61.3,65.9 61.1,65.9 60.9,65.9 60.7,65.8 60.5,65.8 
	60.3,65.8 60.2,65.7 60,65.7 59.8,65.6 59.6,65.6 59.4,65.5 59.3,65.4 59.1,65.3 58.9,65.2 58.8,65.1 58.6,65 58.5,64.9 58.3,64.8 
	58.2,64.6 58,64.5 57.9,64.4 57.8,64.2 57.7,64.1 57.5,63.9 57.4,63.7 57.4,63.6 57.3,63.5 57.3,63.5 57.3,63.5 57.3,63.5 
	57.3,63.4 57.3,63.4 57.3,63.4 57.2,63.3 57.2,63.3 57.2,63.3 57.2,63.2 57.2,63.2 57.2,63.2 57.2,63.1 57.2,63.1 57.2,63.1 
	57.2,63.1 57.1,63 57.1,63 57.1,63 57.1,62.9 57.1,62.9 57.1,62.9 57.3,62.8 57.5,62.8 57.5,62.8 57.5,62.7 57.3,62.7 57.2,62.7 
	57.2,62.6 57.2,62.6 57.2,62.6 57.2,62.5 57.2,62.5 57.2,62.5 57.2,62.4 57.2,62.4 57.2,62.4 57.2,62.3 57.3,62.3 57.3,62.3 
	57.3,62.2 57.3,62.2 57.3,62.2 57.4,62.1 57.4,62.1 57.4,62.1 57.4,62 57.5,62 57.5,62 57.5,61.9 57.6,61.9 57.6,61.9 57.6,61.9 
	57.7,61.8 57.7,61.8 57.7,61.8 57.7,61.8 57.8,61.7 57.8,61.7 57.8,61.7 57.9,61.7 57.9,61.6 57.9,61.6 58.1,61.5 58.3,61.4 
	58.4,61.3 58.6,61.2 58.7,61.1 58.9,61.1 59.1,61 59.2,60.9 59.4,60.8 59.6,60.8 59.8,60.7 59.9,60.6 60.1,60.6 60.3,60.5 
	60.5,60.4 60.6,60.4 60.8,60.3 61,60.3 61.2,60.3 61.4,60.2 61.5,60.2 61.7,60.2 61.9,60.1 62.1,60.1 62.3,60.1 62.5,60.1 
	62.7,60.1 62.8,60.1 63,60.1 63.2,60.1 63.4,60.1 63.6,60.1 63.6,60.1 63.5,60.2 63.5,60.2 63.5,60.3 63.4,60.3 63.4,60.3 
	63.4,60.4 63.3,60.4 63.3,60.4 63.3,60.5 63.2,60.5 63.2,60.5 63.1,60.6 63.1,60.6 63.1,60.6 63,60.7 63,60.7 62.9,60.7 62.9,60.7 
	62.8,60.8 62.8,60.8 62.7,60.8 62.7,60.8 62.6,60.8 62.6,60.8 62.5,60.9 62.5,60.9 62.4,60.9 62.4,60.9 62.3,60.9 62.3,60.9 
	62.2,60.9 62.2,60.5 62.1,60.1 62.1,59.7 62.1,59.3 62.3,58.9 62.5,58.5 62.5,58.1 62.3,57.7 62.2,57.3 62.1,56.9 62.1,56.5 
	62.2,56.1 62.2,55.7 62.3,55.3 62.4,54.9 62.4,54.6 62.5,54.2 62.6,53.8 62.7,53.4 62.9,53 63,52.6 63.1,52.3 63.3,51.9 63.4,51.5 
	63.6,51.2 63.7,50.8 63.9,50.4 64.1,50.1 64.3,49.7 64.5,49.4 64.7,49.1 64.9,48.7 65,48.9 65.1,49 65.3,49.1 65.4,49.3 65.4,49.4 
	65.5,49.6 65.6,49.7 65.7,49.8 65.8,50 65.9,50.1 66,50.3 66.1,50.4 66.2,50.6 66.3,50.7 66.3,50.9 66.4,51 66.5,51.2 66.6,51.4 
	66.6,51.5 66.7,51.7 66.8,51.8 66.9,52 66.9,52.1 67,52.3 67,52.5 67.1,52.6 67.2,52.8 67.2,52.9 67.3,53.1 67.3,53.3 67.4,53.4 
	67.4,53.6 67.4,53.7 67.5,53.7 67.5,53.8 67.5,53.9 67.5,54 67.5,54 67.6,54.1 67.6,54.2 67.6,54.2 67.6,54.3 67.6,54.4 67.6,54.4 
	67.7,54.5 67.7,54.6 67.7,54.7 67.7,54.7 67.7,54.8 67.7,54.9 67.7,55 67.7,55 67.7,55.1 67.7,55.2 67.7,55.2 67.8,55.3 67.8,55.4 
	67.6,55.5 67.5,55.5 67.5,55.6 67.5,55.7 67.6,55.7 67.6,55.8 67.5,55.9 67.5,56.1 67.6,56.3 67.6,56.5 67.6,56.6 67.6,56.8 
	67.5,57 67.4,57.2 67.4,57.4 67.3,57.5 67.2,57.7 67.1,57.9 67,58 66.9,58.2 66.8,58.3 66.7,58.5 66.5,58.6 66.4,58.7 66.3,58.9 
	66.1,59 66,59.1 65.8,59.2 65.6,59.3 65.5,59.4 65.3,59.5 65.1,59.6 65,59.7 64.8,59.8 64.6,59.8 64.4,59.9 64.2,59.9 64.1,60 
	63.9,60 63.8,59.9 63.8,59.8 63.8,59.8 63.8,59.7 63.6,59.6 63.5,59.5 63.5,59.4 63.6,59.4 63.7,59.3 63.8,59.2 63.8,59.1 
	63.8,59.1 63.9,59 63.9,58.9 63.9,58.8 64,58.8 64,58.7 64.1,58.6 64.1,58.6 64.1,58.5 64.2,58.4 64.3,58.4 64.3,58.3 64.4,58.3 
	64.4,58.2 64.5,58.2 64.6,58.1 64.6,58.1 64.7,58.1 64.8,58 64.9,58 64.9,58 65,58.2 65,58.5 65,58.7 65,58.9 65,59.2 65,59.4 
	65,59.6 65,59.9 65,60.1 65,60.3 64.9,60.6 64.9,60.8 64.8,61 64.8,61.3 64.7,61.5 64.6,61.7 64.5,61.9 64.5,62.2 64.4,62.4 
	64.3,62.6 64.2,62.8 64.1,63 63.9,63.2 63.8,63.4 63.7,63.6 63.6,63.8 63.4,64 63.3,64.2 63.1,64.4 63,64.6 62.8,64.7 62.6,64.9 
	62.6,64.9 62.5,65 62.4,65.1 62.4,65.1 62.3,65.2 62.2,65.2 62.1,65.3 62,65.3 62,65.4 61.9,65.4 61.8,65.4 61.7,65.5 61.6,65.5 
	61.6,65.5 61.5,65.6 61.4,65.6 61.3,65.6 61.2,65.6 61.1,65.6 61.1,65.5 61,65.5 60.9,65.5 60.8,65.5 60.7,65.5 60.7,65.5 
	60.6,65.5 60.5,65.5 60.5,65.5 60.4,65.4 60.3,65.4 60.3,65.3 60.2,65.3 60.2,65.2 60.2,65.2 60.2,65.2 60.2,65.1 60.1,65.1 
	60.1,65.1 60.1,65.1 60.1,65 60.1,65 60.1,65 60.1,64.9 60.1,64.9 60,64.9 60,64.8 60,64.8 60,64.8 60,64.7 60,64.7 60,64.7 
	60,64.6 59.9,64.6 59.8,64.6 59.6,64.5 59.5,64.5 59.5,64.5 59.5,64.4 59.6,64.4 59.8,64.4 59.8,64.3 59.9,64.3 59.9,64.3 
	59.9,64.2 60,64.1 60,64 60,63.9 60.1,63.8 60.1,63.6 60.1,63.5 60.2,63.4 60.2,63.3 60.3,63.2 60.3,63.1 60.4,63 60.4,62.9 
	60.5,62.8 60.5,62.7 60.6,62.5 60.7,62.4 60.7,62.3 60.8,62.2 60.9,62.1 60.9,62 61,61.9 61.1,61.8 61.1,61.7 61.2,61.6 61.3,61.6 
	61.4,61.5 61.4,61.4 61.5,61.3 61.6,61.2 61.7,61.1 61.8,61 61.8,60.9 62,60.7 62.2,60.5 62.4,60.3 62.6,60.1 62.8,59.9 63,59.7 
	63.1,59.5 63.3,59.3 63.5,59.1 63.7,58.9 63.9,58.7 64.1,58.5 64.3,58.3 64.5,58.2 64.7,58 64.9,57.8 65.1,57.6 65.3,57.4 
	65.5,57.2 65.7,57 65.9,56.9 66.1,56.7 66.3,56.5 66.5,56.3 66.8,56.2 67,56 67.2,55.8 67.4,55.6 67.6,55.5 67.8,55.3 68,55.1 
	68.3,55 68.1,55.3 68,55.7 67.8,56.1 67.7,56.5 67.5,56.8 67.3,57.2 67.2,57.6 67,57.9 66.8,58.3 66.7,58.7 66.5,59 66.3,59.4 
	66.1,59.8 66,60.1 65.8,60.5 65.6,60.8 65.4,61.2 65.2,61.5 65,61.9 64.8,62.2 64.6,62.6 64.4,62.9 64.2,63.3 64,63.6 63.7,64 
	63.5,64.3 63.3,64.6 63.1,65 62.8,65.3 62.6,65.6 62.4,66 62.1,66.3 62.1,66.3 62.1,66.3 62.1,66.3 62.1,66.4 62.1,66.4 62.1,66.4 
	62,66.4 62,66.5 62,66.5 62,66.5 62,66.5 61.9,66.5 61.9,66.6 61.9,66.6 61.9,66.6 61.9,66.6 61.9,66.6 61.8,66.6 61.8,66.7 
	61.8,66.7 61.8,66.7 61.7,66.7 61.7,66.7 61.7,66.7 61.7,66.7 61.7,66.8 61.6,66.8 61.6,66.8 61.6,66.8 61.6,66.8 61.5,66.8 
	61.5,66.8 61.5,66.8 61.4,66.8 61.4,66.8 61.3,66.8 61.3,66.8 61.3,66.8 61.2,66.8 61.2,66.8 61.1,66.8 61.1,66.8 61.1,66.7 
	61,66.7 61,66.7 60.9,66.7 60.9,66.6 60.9,66.6 60.8,66.6 60.8,66.5 60.8,66.5 60.7,66.5 60.7,66.4 60.7,66.4 60.6,66.4 60.6,66.3 
	60.6,66.3 60.6,66.3 60.5,66.2 60.5,66.2 60.5,66.1 60.4,66.1 60.4,66.1 60.4,66 60.3,65.8 60.2,65.6 60,65.4 59.9,65.2 59.8,65 
	59.7,64.8 59.6,64.6 59.5,64.4 59.3,64.1 59.2,63.9 59.1,63.7 59,63.5 58.9,63.3 58.8,63.1 58.7,62.8 58.6,62.6 58.6,62.4 
	58.5,62.2 58.4,61.9 58.3,61.7 58.3,61.5 58.2,61.3 58.1,61 58.1,60.8 58,60.6 58,60.3 58,60.1 57.9,59.9 57.9,59.6 57.9,59.4 
	57.9,59.2 57.9,58.9 57.9,58.7 57.9,58.5 57.9,58.2 58,58 58,57.7 58.1,57.5 58.1,57.3 58.2,57 58.3,56.8 58.3,56.6 58.4,56.4 
	58.5,56.1 58.7,55.9 58.8,55.7 58.9,55.5 59,55.3 59.2,55.1 59.3,54.9 59.5,54.8 59.6,54.6 59.8,54.4 60,54.3 60.1,54.1 60.3,54 
	60.5,53.9 60.7,53.8 60.9,53.7 61.1,53.6 61.4,53.5 61.6,53.4 61.8,53.4 62,53.3 62.1,53.4 62.2,53.5 62.3,53.7 62.4,53.8 
	62.4,53.9 62.5,54 62.5,54.2 62.6,54.3 62.6,54.4 62.6,54.6 62.6,54.7 62.6,54.8 62.6,55 62.6,55.1 62.6,55.3 62.6,55.4 62.5,55.6 
	62.5,55.7 62.4,55.8 62.4,56 62.3,56.1 62.2,56.2 62.2,56.4 62.1,56.5 62,56.6 61.9,56.7 61.8,56.8 61.7,57 61.6,57.1 61.5,57.2 
	61.4,57.2 61.3,57.3 61.1,57.4 61,57.5 60.9,57.5 60.8,57.6 60.6,57.7 60.5,57.7 60.4,57.8 60.2,57.8 60.1,57.9 60,57.9 59.8,57.9 
	59.7,58 59.5,58 59.4,58 59.2,58 59.1,58 59,58 58.8,58.1 58.7,58.3 58.5,58.5 58.4,58.5 58.2,58.3 58.1,58.2 57.9,58.1 57.8,58.1 
	57.6,58 57.5,58 57.3,58 57.2,58 57,58 56.9,57.9 56.7,57.9 56.6,57.9 56.5,57.9 56.3,57.9 56.2,57.8 56,57.8 55.9,57.8 55.7,57.7 
	55.6,57.7 55.5,57.7 55.3,57.6 55.2,57.6 55,57.5 54.9,57.5 54.8,57.4 54.6,57.4 54.5,57.3 54.4,57.3 54.2,57.2 54.1,57.2 54,57.1 
	53.9,57 53.7,56.9 53.6,56.9 53.5,56.8 53.4,56.7 53.3,56.6 53.2,56.5 53.1,56.4 53,56.3 52.9,56.2 52.8,56.1 52.7,56 52.6,55.8 
	52.6,55.7 52.5,55.5 52.4,55.4 52.4,55.2 52.3,55 52.3,54.8 52.2,54.7 52.2,54.5 52.2,54.3 52.2,54.1 52.2,54 52.2,53.8 52.2,53.6 
	52.3,53.4 52.3,53.3 52.4,53.1 52.4,52.9 52.5,52.7 52.5,52.6 52.6,52.4 52.7,52.2 52.8,52.1 52.9,51.9 53,51.8 53.1,51.6 
	53.2,51.5 53.3,51.4 53.5,51.2 53.6,51.1 53.7,51 53.9,50.9 54,50.8 54.2,50.7 54.4,50.6 54.5,50.5 54.7,50.5 54.8,50.4 55,50.3 
	55.2,50.3 55.4,50.2 55.5,50.2 55.7,50.2 55.9,50.1 56.1,50.1 56.2,50.1 56.4,50.3 56.6,50.5 56.8,50.5 57,50.3 57.1,50.2 
	57.3,50.2 57.5,50.2 57.7,50.2 57.9,50.2 58,50.2 58.2,50.3 58.4,50.3 58.6,50.4 58.7,50.4 58.9,50.5 59.1,50.6 59.2,50.6 
	59.4,50.7 59.2,51 59.1,51.4 58.9,51.7 58.7,52 58.5,52.3 58.3,52.6 58.1,52.9 57.9,53.2 57.7,53.5 57.5,53.8 57.3,54.1 57,54.3 
	56.8,54.6 56.6,54.9 56.3,55.2 56.1,55.4 55.8,55.7 55.6,55.9 55.3,56.2 55,56.4 54.8,56.6 54.5,56.9 54.2,57.1 53.9,57.3 
	53.6,57.5 53.3,57.7 53,57.9 52.7,58.1 52.4,58.3 52.1,58.5 51.8,58.7 51.5,58.9 51.3,58.8 51.2,58.8 51.1,58.7 50.9,58.7 
	50.8,58.6 50.7,58.6 50.6,58.5 50.5,58.4 50.4,58.3 50.3,58.2 50.2,58.1 50.1,58 50,57.9 50,57.8 49.9,57.7 49.8,57.6 49.7,57.5 
	49.7,57.4 49.6,57.2 49.5,57.1 49.5,57 49.4,56.8 49.4,56.7 49.3,56.6 49.3,56.4 49.2,56.3 49.2,56.2 49.1,56 49.1,55.9 49,55.8 
	49,55.6 49,55.5 48.9,55.3 48.9,55.2 48.9,55 48.8,54.8 48.8,54.7 48.8,54.5 48.7,54.4 48.7,54.2 48.7,54 48.7,53.9 48.6,53.7 
	48.6,53.6 48.6,53.4 48.6,53.2 48.6,53.1 48.5,52.9 48.5,52.7 48.5,52.6 48.5,52.4 48.5,52.2 48.5,52.1 48.5,51.9 48.4,51.8 
	48.4,51.6 48.4,51.4 48.4,51.3 48.4,51.1 48.5,50.9 48.5,50.8 48.5,50.6 48.5,50.4 48.5,50.3 48.4,50.2 48.5,50.1 48.5,50 
	48.5,49.9 48.5,49.8 48.5,49.7 48.5,49.6 48.5,49.6 48.5,49.5 48.5,49.4 48.5,49.3 48.5,49.2 48.5,49.1 48.5,49 48.5,48.9 
	48.5,48.8 48.6,48.8 48.6,48.7 48.6,48.6 48.6,48.5 48.7,48.4 48.7,48.3 48.7,48.3 48.7,48.2 48.8,48.1 48.8,48 48.9,47.9 
	48.9,47.9 48.9,47.8 49,47.7 49,47.6 49.1,47.6 49.1,47.5 49.2,47.4 49.3,47.3 49.4,47.2 49.5,47.1 49.6,47 49.7,47 49.7,46.9 
	49.8,46.8 49.9,46.8 50,46.7 50.2,46.7 50.3,46.6 50.4,46.6 50.5,46.5 50.6,46.5 50.7,46.4 50.8,46.4 50.9,46.3 51.1,46.3 
	51.2,46.3 51.3,46.3 51.4,46.2 51.5,46.2 51.7,46.2 51.8,46.2 51.9,46.2 52,46.2 52.1,46.1 52.3,46.1 52.4,46.3 52.5,46.5 
	52.8,46.5 53,46.3 53.3,46.3 53.5,46.2 53.8,46.2 54.1,46.3 54.3,46.3 54.6,46.4 54.8,46.4 55.1,46.5 55.3,46.6 55.6,46.6 
	55.8,46.7 56,46.8 56.3,46.9 56.5,47 56.8,47.1 57,47.3 57.2,47.4 57.4,47.5 57.7,47.7 57.9,47.8 58.1,48 58.3,48.1 58.5,48.3 
	58.7,48.5 58.9,48.6 59.1,48.8 59.3,49 59.4,49.2 59.6,49.4 59.8,49.6 59.8,49.6 59.9,49.7 59.9,49.8 60,49.9 60.1,50 60.1,50 
	60.2,50.1 60.2,50.2 60.3,50.3 60.3,50.4 60.3,50.5 60.4,50.6 60.4,50.6 60.5,50.7 60.5,50.8 60.5,50.9 60.6,51 60.6,51.1 
	60.6,51.2 60.6,51.3 60.6,51.4 60.7,51.5 60.6,51.6 60.5,51.6 60.5,51.7 60.6,51.8 60.6,51.9 60.6,52 60.6,52.1 60.6,52.2 
	60.6,52.3 60.5,52.4 60.5,52.5 60.4,52.6 60.4,52.6 60.3,52.7 60.3,52.8 60.2,52.9 60.1,53 60.1,53 60,53.1 59.9,53.2 59.8,53.2 
	59.7,53.3 59.6,53.3 59.6,53.4 59.5,53.4 59.4,53.5 59.3,53.5 59.2,53.6 59.1,53.6 58.9,53.6 58.8,53.7 58.7,53.7 58.6,53.7 
	58.5,53.8 58.4,53.8 58.3,53.8 58.2,53.8 58.1,53.8 58,53.9 57.9,53.9 57.7,53.9 57.6,53.9 57.3,53.9 57,53.9 56.7,54 56.4,54 
	56.1,54 55.8,54 55.5,54.3 55.2,54.5 54.9,54.5 54.6,54.3 54.3,54.1 54,54.1 53.8,54 53.5,54 53.2,54 52.9,53.9 52.6,53.9 
	52.3,53.9 52,53.8 51.7,53.8 51.4,53.7 51.1,53.7 50.8,53.7 50.5,53.6 50.2,53.5 49.9,53.5 49.6,53.4 49.3,53.4 49,53.3 48.7,53.2 
	48.4,53.1 48.1,53 48,53 47.9,53 47.8,52.9 47.7,52.9 47.6,52.9 47.4,52.8 47.3,52.8 47.2,52.7 47.1,52.7 47,52.7 46.8,52.6 
	46.7,52.6 46.6,52.5 46.5,52.5 46.4,52.4 46.3,52.4 46.2,52.3 46.1,52.2 45.9,52.2 45.8,52.1 45.7,52.1 45.6,52 45.5,51.9 
	45.4,51.9 45.3,51.8 45.2,51.7 45.1,51.6 45,51.6 44.9,51.5 44.8,51.4 44.8,51.3 44.7,51.2 44.5,51.1 44.4,50.9 44.3,50.8 
	44.1,50.6 44,50.4 43.9,50.2 43.8,50.1 43.7,49.9 43.7,49.7 43.6,49.5 43.5,49.3 43.4,49.1 43.4,48.9 43.3,48.7 43.3,48.5 
	43.2,48.3 43.2,48.1 43.2,47.9 43.1,47.7 43.1,47.5 43.1,47.3 43.1,47.1 43.1,46.8 43,46.6 43,46.4 43.3,46.2 43.5,46 43.5,45.8 
	43.3,45.6 43.2,45.4 43.1,45.1 43.1,44.9 43.3,44.9 43.5,44.8 43.5,44.8 43.3,44.7 43.2,44.7 43.1,44.6 43.1,44.6 43.1,44.5 
	43.1,44.5 43.1,44.4 43.1,44.3 43.1,44.3 43.1,44.2 43.1,44.2 43.1,44.1 43.1,44.1 43.1,44 43.2,44 43.2,43.9 43.2,43.9 43.2,43.8 
	43.2,43.8 43.2,43.7 43.2,43.7 43.2,43.6 43.3,43.6 43.3,43.5 43.3,43.5 43.3,43.4 43.3,43.4 43.4,43.3 43.4,43.3 43.4,43.2 
	43.5,43.1 43.5,43.1 43.5,43 43.6,43 43.6,42.9 43.7,42.9 43.7,42.8 43.7,42.7 43.8,42.7 43.8,42.6 43.9,42.6 43.9,42.5 44,42.5 
	44,42.5 44.1,42.4 44.2,42.4 44.2,42.3 44.3,42.3 44.3,42.2 44.4,42.2 44.4,42.1 44.5,42.1 44.6,42.1 44.6,42 44.7,42 44.7,41.9 
	44.8,41.9 44.9,41.9 44.9,41.8 45,41.8 45.1,41.8 45.2,41.7 45.3,41.6 45.5,41.5 45.6,41.4 45.7,41.4 45.9,41.3 46,41.2 46.2,41.1 
	46.3,41.1 46.5,41 46.6,40.9 46.7,40.8 46.9,40.8 47,40.7 47.2,40.6 47.3,40.5 47.5,40.5 47.6,40.4 47.7,40.3 47.9,40.3 48,40.2 
	48.2,40.1 48.3,40.1 48.5,40 48.6,39.9 48.8,39.9 48.9,39.8 49.1,39.7 49.2,39.7 49.4,39.6 49.5,39.5 49.7,39.5 49.7,39.5 
	49.8,39.4 49.8,39.4 49.9,39.4 49.9,39.4 50,39.4 50,39.3 50.1,39.3 50.1,39.3 50.2,39.3 50.3,39.3 50.3,39.2 50.4,39.2 50.4,39.2 
	50.5,39.2 50.5,39.2 50.6,39.2 50.6,39.1 50.7,39.1 50.8,39.1 50.8,39.1 50.9,39.1 50.9,39.1 51,39.1 51,39.1 51.1,39.1 51.2,39.1 
	51.2,39.1 51.3,39.3 51.3,39.5 51.4,39.5 51.4,39.3 51.5,39.2 51.6,39.1 51.7,39.1 51.8,39.1 51.9,39.1 52,39.2 52.1,39.2 
	52.2,39.2 52.3,39.2 52.3,39.3 52.4,39.3 52.5,39.4 52.6,39.4 52.7,39.5 52.8,39.5 52.8,39.6 52.9,39.6 53,39.7 53.1,39.7 
	53.1,39.8 53.2,39.9 53.3,39.9 53.3,40 53.4,40.1 53.5,40.2 53.5,40.2 53.6,40.3 53.7,40.4 53.7,40.5 53.8,40.5 53.8,40.6 
	53.9,40.7 53.9,40.8 54,40.9 54,41 54,41 54.1,41.1 54.1,41.2 54.2,41.3 54.2,41.4 54.2,41.5 54.3,41.6 54.3,41.7 54.3,41.7 
	54.4,41.8 54.4,41.9 54.4,42 54.4,42.1 54.5,42.2 54.5,42.3 54.5,42.4 54.5,42.5 54.6,42.6 54.6,42.7 54.6,42.8 54.6,42.9 
	54.6,42.9 54.7,43 54.7,43.1 54.7,43.2 54.7,43.3 54.7,43.4 54.8,43.5 54.8,43.6 54.8,43.8 54.8,43.9 54.9,44.1 54.9,44.2 
	54.9,44.4 54.9,44.5 55,44.7 55,44.8 55,45 55,45.1 55,45.3 55.1,45.4 55.1,45.6 55.1,45.7 55.1,45.9 55.1,46 55.1,46.2 55.1,46.3 
	55.3,46.5 55.5,46.6 55.5,46.8 55.3,46.9 55.2,47.1 55.2,47.2 55.1,47.4 55.1,47.5 55.1,47.7 55.1,47.8 55,48 55,48.1 55,48.2 
	54.9,48.4 54.9,48.5 54.9,48.7 54.8,48.8 54.8,49 54.7,49.1 54.6,49.3 54.6,49.4 54.5,49.5 54.4,49.7 54.4,49.8 54.3,49.9 
	54.2,50.1 54.1,50.2 54,50.3 53.9,50.4 53.8,50.5 53.7,50.6 53.6,50.7 53.5,50.8 53.4,50.9 53.3,51 53.1,51.1 53,51.2 52.9,51.3 
	52.8,51.3 52.6,51.4 52.5,51.5 52.4,51.5 52.2,51.6 52.1,51.6 51.9,51.6 51.8,51.7 51.7,51.7 51.6,51.7 51.5,51.7 51.4,51.6 
	51.3,51.5 51.3,51.5 51.2,51.6 51.1,51.6 51,51.7 50.9,51.7 50.8,51.7 50.7,51.7 50.7,51.6 50.6,51.6 50.5,51.6 50.4,51.6 
	50.3,51.6 50.2,51.6 50.1,51.5 50.1,51.5 50,51.5 49.9,51.4 49.8,51.4 49.7,51.4 49.6,51.4 49.6,51.3 49.5,51.3 49.4,51.3 
	49.3,51.2 49.2,51.2 49.1,51.2 49.1,51.1 48.9,51 48.7,50.9 48.5,50.8 48.3,50.7 48.1,50.6 47.9,50.5 47.7,50.3 47.5,50.2 
	47.3,50.1 47.1,49.9 47,49.8 46.8,49.7 46.6,49.5 46.4,49.4 46.3,49.2 46.1,49 45.9,48.9 45.8,48.7 45.6,48.6 45.5,48.4 45.3,48.2 
	45.2,48 45.1,47.8 44.9,47.7 44.8,47.5 44.7,47.3 44.5,47.1 44.4,46.9 44.3,46.7 44.2,46.5 44.1,46.3 44,46.1 44,46.1 43.9,46 
	43.9,46 43.9,45.9 43.9,45.9 43.9,45.8 43.8,45.7 43.8,45.7 43.8,45.6 43.8,45.6 43.8,45.5 43.7,45.5 43.7,45.4 43.7,45.4 
	43.7,45.3 43.7,45.3 43.7,45.2 43.7,45.1 43.6,45.1 43.6,45 43.6,45 43.6,44.9 43.5,44.9 43.5,44.8 43.6,44.8 43.6,44.7 43.6,44.6 
	43.6,44.6 43.7,44.5 43.7,44.5 43.7,44.4 43.7,44.4 43.7,44.3 43.7,44.3 43.8,44.2 43.8,44.2 43.8,44.2 43.8,44.1 43.9,44.1 
	43.9,44 43.9,44 43.9,43.9 44,43.9 44,43.9 44,43.8 44.1,43.8 44.1,43.8 44.1,43.7 44.2,43.7 44.2,43.7 44.2,43.6 44.3,43.6 
	44.3,43.6 44.4,43.5 44.4,43.5 44.4,43.5 44.5,43.4 44.5,43.4 44.6,43.4 44.6,43.3 44.6,43.3 44.7,43.3 44.7,43.3 44.8,43.2 
	45,43.1 45.2,42.9 45.4,42.7 45.7,42.6 45.9,42.4 46.1,42.3 46.4,42.1 46.6,42 46.8,41.8 47.1,41.7 47.3,41.5 47.5,41.4 47.8,41.3 
	48,41.1 48.2,41 48.5,40.8 48.7,40.7 49,40.6 49.2,40.4 49.4,40.3 49.7,40.2 49.9,40 50.2,39.9 50.4,39.8 50.7,39.6 50.9,39.5 
	51.1,39.4 51.4,39.3 51.6,39.2 51.9,39 52.1,38.9 52.4,38.8 52.5,38.8 52.5,38.7 52.6,38.7 52.7,38.7 52.8,38.6 52.8,38.6 
	52.9,38.6 53,38.5 53.1,38.5 53.1,38.5 53.2,38.4 53.3,38.4 53.4,38.4 53.4,38.4 53.5,38.3 53.6,38.3 53.7,38.3 53.7,38.2 
	53.8,38.2 53.9,38.2 54,38.2 54,38.2 54.1,38.1 54.2,38.1 54.3,38.1 54.4,38.1 54.4,38.1 54.5,38.1 54.6,38 54.7,38 54.8,38 
	54.8,38.3 55.1,38.5 55.3,38.5 55.5,38.3 55.7,38.2 56,38.1 56.2,38.2 56.4,38.2 56.6,38.3 56.8,38.4 57,38.4 57.2,38.5 57.4,38.7 
	57.6,38.8 57.8,38.9 58,39 58.2,39.2 58.4,39.3 58.5,39.5 58.7,39.6 58.9,39.8 59,40 59.2,40.2 59.3,40.4 59.5,40.5 59.6,40.7 
	59.8,40.9 59.9,41.1 60,41.3 60.2,41.5 60.3,41.7 60.4,41.9 60.5,42.1 60.1,42 59.6,41.8 59.2,41.7 58.8,41.5 58.3,41.4 57.9,41.2 
	57.5,41 57.1,40.9 56.6,40.7 56.2,40.5 55.8,40.3 55.4,40.1 54.9,40 54.5,39.8 54.1,39.6 53.7,39.4 53.2,39.2 52.8,39 52.4,38.8 
	52,38.6 51.6,38.4 51.2,38.2 50.8,38 50.4,37.7 49.9,37.5 49.5,37.3 49.1,37.1 48.7,36.9 48.3,36.6 47.9,36.4 47.5,36.2 47.1,35.9 
	47.1,36.1 47.1,36.4 47.1,36.6 47.1,36.8 47.1,37 47,37.2 47,37.4 47,37.7 47,37.9 47,38.1 46.9,38.3 46.9,38.5 46.9,38.7 46.9,39 
	46.8,39.2 46.8,39.4 46.7,39.6 46.7,39.8 46.7,40 46.6,40.2 46.6,40.4 46.5,40.6 46.4,40.8 46.4,41.1 46.3,41.3 46.2,41.5 
	46.2,41.7 46.1,41.9 46,42.1 45.9,42.2 45.8,42.4 45.7,42.6 45.6,42.6 45.5,42.5 45.4,42.5 45.4,42.4 45.3,42.4 45.2,42.3 
	45.1,42.3 45,42.2 44.9,42.1 44.8,42.1 44.8,42 44.7,41.9 44.6,41.9 44.5,41.8 44.5,41.7 44.4,41.7 44.3,41.6 44.2,41.5 44.2,41.5 
	44.1,41.4 44,41.3 43.9,41.2 43.9,41.2 43.8,41.1 43.7,41 43.7,40.9 43.6,40.8 43.6,40.8 43.5,40.7 43.4,40.6 43.4,40.5 43.3,40.4 
	43.3,40.5 43.3,40.5 43.3,40.6 43.3,40.6 43.3,40.7 43.3,40.7 43.3,40.8 43.2,40.8 43.2,40.9 43.2,40.9 43.2,40.9 43.2,41 43.2,41 
	43.2,41.1 43.2,41.1 43.2,41.2 43.2,41.2 43.1,41.3 43.1,41.3 43.1,41.4 43.1,41.4 43.1,41.5 43.1,41.5 43.1,41.6 43.1,41.6 
	43.1,41.6 43.1,41.7 43.1,41.7 43,41.8 43,41.8 43,41.9 43,41.9 42.9,41.9 42.8,41.8 42.7,41.7 42.6,41.6 42.5,41.5 42.4,41.5 
	42.3,41.4 42.2,41.3 42.1,41.2 42,41.1 41.9,41 41.8,40.9 41.7,40.8 41.6,40.7 41.5,40.6 41.4,40.5 41.3,40.4 41.3,40.3 41.2,40.2 
	41.1,40.1 41,40 41,39.8 40.9,39.7 40.8,39.6 40.8,39.5 40.7,39.4 40.6,39.3 40.6,39.1 40.5,39 40.5,38.9 40.4,38.8 40.4,38.6 
	40.5,38.6 40.6,38.6 40.8,38.6 40.9,38.6 41,38.6 41.1,38.6 41.3,38.7 41.4,38.7 41.5,38.7 41.7,38.7 41.8,38.7 41.9,38.7 42,38.7 
	42.2,38.7 42.3,38.7 42.4,38.7 42.5,38.7 42.7,38.7 42.8,38.7 42.9,38.7 43.1,38.7 43.2,38.7 43.3,38.7 43.4,38.7 43.6,38.7 
	43.7,38.7 43.8,38.7 43.9,38.7 44.1,38.7 44.2,38.6 44.3,38.6 44.4,38.6 44.5,38.6 44.6,38.6 44.6,38.5 44.7,38.5 44.7,38.5 
	44.8,38.5 44.8,38.5 44.9,38.5 44.9,38.5 45,38.6 45,38.6 45.1,38.6 45.1,38.6 45.2,38.6 45.3,38.6 45.3,38.5 45.4,38.5 45.4,38.6 
	45.5,38.6 45.5,38.6 45.6,38.6 45.6,38.6 45.7,38.6 45.7,38.6 45.8,38.6 45.8,38.6 45.9,38.6 45.9,38.6 46,38.6 46,38.6 46.1,38.5 
	46.1,38.5 46.2,38.5 46.3,38.5 46.3,38.5 46.4,38.4 46.4,38.4 46.5,38.4 46.5,38.4 46.6,38.3 46.6,38.3 46.7,38.3 46.7,38.3 
	46.8,38.2 46.8,38.2 46.9,38.2 46.9,38.1 47,38.1 47,38.1 47.1,38 47.1,38 47.1,38 47.2,37.9 47.2,37.9 47.3,37.9 47.3,37.8 
	47.4,37.8 47.4,37.8 47.5,37.8 47.5,37.7 47.6,37.7 47.6,37.7 47.7,37.6 47.7,37.6 47.9,37.5 48,37.5 48.1,37.4 48.2,37.4 
	48.4,37.3 48.5,37.3 48.6,37.2 48.8,37.2 48.9,37.2 49,37.2 49.2,37.1 49.3,37.1 49.4,37.1 49.6,37.1 49.7,37.1 49.9,37.1 50,37.1 
	50.1,37.1 50.3,37.1 50.4,37.2 50.5,37.2 50.7,37.2 50.8,37.2 50.9,37.3 51.1,37.3 51.2,37.4 51.3,37.4 51.5,37.5 51.6,37.5 
	51.7,37.6 51.8,37.6 51.9,37.7 52,37.5 52.1,37.4 52.2,37.2 52.3,37 52.4,36.8 52.5,36.7 52.6,36.5 52.7,36.3 52.8,36.1 52.9,36 
	53,35.8 53.1,35.6 53.2,35.4 53.3,35.3 53.5,35.1 53.6,34.9 53.7,34.8 53.8,34.6 53.9,34.4 54,34.3 54.2,34.1 54.3,34 54.4,33.8 
	54.5,33.6 54.7,33.5 54.8,33.3 54.9,33.2 55,33 55.2,32.9 55.3,32.7 55.4,32.6 55.6,32.4 55.6,32.9 55.6,33.3 55.6,33.8 55.6,34.3 
	55.7,34.7 55.7,35.2 55.7,35.6 55.7,36.1 55.7,36.5 55.7,37 55.8,37.5 55.8,37.9 55.8,38.4 55.8,38.8 55.8,39.3 55.9,39.8 
	55.9,40.2 55.9,40.7 55.9,41.1 55.9,41.6 55.9,42 56,42.5 56,43 56,43.4 56,43.9 56,44.3 56.1,44.8 56.1,45.3 56.1,45.7 56.1,46.2 
	56.1,46.6 56.2,47.1 56.3,47 56.4,46.9 56.6,46.8 56.7,46.7 56.8,46.6 57,46.5 57.1,46.4 57.2,46.4 57.4,46.3 57.5,46.2 57.7,46.1 
	57.8,46 58,46 58.1,45.9 58.3,45.8 58.4,45.7 58.5,45.7 58.7,45.6 58.8,45.5 59,45.5 59.2,45.4 59.3,45.4 59.5,45.3 59.6,45.2 
	59.8,45.2 59.9,45.1 60.1,45.1 60.2,45 60.4,45 60.5,44.9 60.7,44.9 60.9,44.8 60.7,44.8 60.6,44.7 60.5,44.6 60.4,44.6 60.3,44.5 
	60.2,44.4 60.1,44.3 60,44.2 60,44.1 59.9,44 59.8,43.9 59.7,43.8 59.7,43.6 59.6,43.5 59.6,43.4 59.5,43.3 59.5,43.1 59.4,43 
	59.4,42.9 59.3,42.7 59.3,42.6 59.3,42.4 59.2,42.3 59.2,42.2 59.2,42 59.2,41.9 59.1,41.7 59.1,41.6 59.1,41.5 59.1,41.3 
	59.1,41.2 59,41 59,40.8 59,40.6 59,40.4 59,40.1 58.9,39.9 58.9,39.7 58.9,39.5 58.9,39.2 58.9,39 58.7,38.8 58.5,38.5 58.5,38.3 
	58.7,38.1 58.8,37.9 58.9,37.6 58.9,37.4 58.9,37.2 59,37 59,36.8 59,36.5 59.1,36.3 59.1,36.1 59.2,35.9 59.3,35.7 59.3,35.5 
	59.4,35.3 59.5,35.1 59.6,34.9 59.7,34.7 59.8,34.5 60,34.3 60.1,34.2 60.3,34.5 60.4,34.9 60.5,35.3 60.7,35.6 60.8,36 61,36.4 
	61.1,36.7 61.3,37.1 61.4,37.5 61.5,37.9 61.7,38.2 61.8,38.6 61.9,39 62.1,39.3 62.2,39.7 62.3,40.1 62.4,40.5 62.6,40.8 
	62.7,41.2 62.8,41.6 62.9,42 63,42.3 63.2,42.7 63.3,43.1 63.4,43.5 63.5,43.9 63.6,44.2 63.7,44.6 63.8,45 63.9,45.4 64,45.8 
	64.1,46.2 63.8,45.8 63.5,45.4 63.2,45 62.9,44.7 62.6,44.3 62.2,44 61.9,43.6 61.6,43.2 61.3,42.9 60.9,42.5 60.6,42.2 60.3,41.8 
	59.9,41.5 59.6,41.1 59.3,40.8 58.9,40.5 58.6,40.1 58.2,39.8 57.9,39.5 57.5,39.2 57.2,38.8 56.8,38.5 56.4,38.2 56.1,37.9 
	55.7,37.6 55.4,37.3 55,36.9 54.6,36.6 54.2,36.3 53.9,36 53.5,35.7 53.1,35.5 53.1,35.5 53.1,35.6 53.1,35.7 53.1,35.7 53.1,35.8 
	53.1,35.8 53.1,35.9 53.2,36 53.2,36 53.2,36.1 53.2,36.1 53.3,36.2 53.3,36.3 53.4,36.3 53.4,36.4 53.4,36.4 53.5,36.5 53.5,36.5 
	53.6,36.6 53.7,36.6 53.7,36.7 53.8,36.7 53.8,36.7 53.9,36.8 53.9,36.8 54,36.9 54.1,36.9 54.1,36.9 54.2,37 54.2,37 54.3,37.1 
	54.4,37.1 54.6,37.2 54.9,37.4 55.2,37.6 55.5,37.7 55.8,37.9 56,38 56.3,38.2 56.6,38.3 56.9,38.5 57.2,38.6 57.4,38.8 57.7,39 
	58,39.1 58.3,39.3 58.6,39.4 58.8,39.6 59.1,39.7 59.4,39.9 59.7,40.1 60,40.2 60.2,40.4 60.5,40.5 60.8,40.7 61.1,40.8 61.4,41 
	61.6,41.1 61.9,41.3 62.2,41.5 62.5,41.6 62.7,41.8 63,41.9 63.3,42.1 63.4,42.1 63.5,42.2 63.6,42.3 63.7,42.3 63.8,42.4 
	63.9,42.4 64,42.5 64.1,42.6 64.2,42.6 64.3,42.7 64.4,42.7 64.5,42.8 64.6,42.9 64.7,42.9 64.8,43 64.9,43.1 65,43.1 65.1,43.2 
	65.2,43.3 65.3,43.3 65.4,43.4 65.5,43.5 65.6,43.5 65.7,43.6 65.8,43.7 65.9,43.8 66,43.9 66.1,43.9 66.1,44 66.2,44.1 66.3,44.2 
	66.4,44.3 66.5,44.4 66.5,44.5 66.6,44.6 66.7,44.6 66.8,44.7 66.8,44.8 66.9,44.9 67,45.1 67,45.2 67.1,45.3 67.1,45.4 67.2,45.5 
	67.2,45.6 67.3,45.7 67.3,45.8 67.3,45.9 67.4,46 67.4,46.1 67.4,46.3 67.5,46.4 67.5,46.5 67.5,46.6 67.5,46.7 67.5,46.8 67.5,47 
	67.5,47.1 67.5,47.2 67.5,47.3 67.5,47.4 67.5,47.5 67.5,47.7 67.4,47.8 67.4,47.9 67.4,48 67.3,48.1 67.3,48.2 67.2,48.3 
	67.2,48.4 67.2,48.5 67.1,48.5 67,48.6 67,48.7 66.9,48.8 66.9,48.9 66.8,49 66.7,49.1 66.7,49.2 66.6,49.2 66.5,49.3 66.5,49.4 
	66.4,49.5 66.3,49.6 66.3,49.6 66.2,49.7 66.1,49.8 66,49.9 66,50 65.9,50 65.8,50.1 65.7,50.2 65.6,50.3 65.6,50.3 65.5,50.4 
	65.4,50.5 65,50.9 64.6,51.3 64.3,51.8 63.9,52.2 63.5,52.6 63.2,53.1 62.9,53.5 62.5,54 62.2,54.5 61.9,54.9 61.6,55.4 61.3,55.9 
	61,56.4 60.7,56.9 60.4,57.4 60.1,57.8 59.8,58.3 59.5,58.8 59.2,59.3 58.9,59.8 58.6,60.3 58.3,60.8 58,61.3 57.7,61.8 57.4,62.3 
	57.1,62.7 56.8,63.2 56.5,63.7 56.2,64.2 55.8,64.6 55.5,65.1 55.1,65.5 55.1,65.6 55.1,65.6 55.1,65.6 55.1,65.6 55,65.7 55,65.7 
	55,65.7 55,65.8 54.9,65.8 54.9,65.8 54.9,65.8 54.9,65.9 54.8,65.9 54.8,65.9 54.8,65.9 54.8,65.9 54.7,66 54.7,66 54.7,66 
	54.7,66 54.6,66 54.6,66.1 54.6,66.1 54.5,66.1 54.5,66.1 54.5,66.1 54.5,66.1 54.4,66.1 54.4,66.1 54.4,66.2 54.3,66.2 54.3,66.2 
	54.3,66.3 54.2,66.5 54.2,66.5 54.2,66.3 54.1,66.2 54.1,66.2 54.1,66.2 54.1,66.2 54,66.2 54,66.1 54,66.1 53.9,66.1 53.9,66.1 
	53.9,66.1 53.9,66.1 53.8,66.1 53.8,66.1 53.8,66.1 53.8,66 53.7,66 53.7,66 53.7,66 53.6,66 53.6,66 53.6,65.9 53.6,65.9 
	53.5,65.9 53.5,65.9 53.5,65.9 53.5,65.9 53.4,65.8 53.4,65.8 52.9,65.5 52.4,65.2 52,64.8 51.5,64.5 51,64.2 50.5,63.8 50,63.5 
	49.5,63.2 49,62.8 48.5,62.5 48,62.1 47.6,61.8 47.1,61.5 46.6,61.1 46.1,60.8 45.6,60.5 45.1,60.1 44.6,59.8 44.1,59.5 43.7,59.1 
	43.2,58.8 42.7,58.5 42.2,58.1 41.7,57.8 41.2,57.5 40.7,57.1 40.2,56.8 39.7,56.5 39.3,56.1 38.8,55.8 38.3,55.5 37.8,55.1 
	37.9,55.4 38,55.6 38.1,55.8 38.2,56 38.2,56.3 38.3,56.5 38.4,56.8 38.4,57 38.5,57.2 38.6,57.5 38.6,57.7 38.7,58 38.8,58.2 
	38.8,58.5 38.9,58.7 38.9,59 39,59.2 39.1,59.4 39.1,59.7 39.2,59.9 39.3,60.1 39.4,60.4 39.5,60.6 39.5,60.8 39.6,61.1 39.7,61.3 
	39.9,61.5 40,61.7 40.1,61.9 40.2,62.1 40.4,62.3 40.5,62.5 40.7,62.8 40.9,63 41.2,63.2 41.4,63.4 41.6,63.6 41.9,63.7 42.1,63.9 
	42.4,64 42.7,64.1 42.9,64.3 43.2,64.4 43.5,64.4 43.8,64.5 44.1,64.6 44.4,64.6 44.7,64.7 45,64.7 45.4,64.7 45.7,64.7 46,64.7 
	46.3,64.7 46.6,64.7 46.9,64.6 47.2,64.6 47.5,64.5 47.8,64.4 48.1,64.4 48.4,64.3 48.7,64.2 49,64 49.3,63.9 49.6,63.8 49.4,64 
	49.3,64.2 49.1,64.5 48.9,64.7 48.8,64.9 48.6,65.2 48.4,65.4 48.3,65.6 48.1,65.9 47.9,66.1 47.8,66.3 47.6,66.6 47.4,66.8 
	47.3,67 47.1,67.2 47,67.5 46.8,67.7 46.6,67.9 46.5,68.2 46.3,68.4 46.1,68.6 46,68.9 45.8,69.1 45.6,69.3 45.5,69.6 45.3,69.8 
	45.1,70 45,70.3 44.8,70.5 44.6,70.7 44.5,70.9 44.3,71.2 44.3,71.2 44.3,71.2 44.3,71.2 44.2,71.3 44.2,71.3 44.2,71.3 44.2,71.3 
	44.2,71.4 44.1,71.4 44.1,71.4 44.1,71.4 44.1,71.4 44.1,71.5 44,71.5 44,71.5 44,71.5 44,71.5 44,71.6 43.9,71.6 43.9,71.6 
	43.9,71.6 43.9,71.6 43.8,71.6 43.8,71.6 43.8,71.6 43.8,71.7 43.7,71.7 43.7,71.7 43.7,71.7 43.7,71.6 43.6,71.5 43.6,71.5 
	43.6,71.6 43.6,71.6 43.6,71.6 43.5,71.5 43.5,71.5 43.5,71.6 43.5,71.6 43.5,71.6 43.4,71.6 43.4,71.6 43.4,71.6 43.4,71.6 
	43.4,71.6 43.3,71.6 43.3,71.6 43.3,71.6 43.3,71.5 43.3,71.5 43.2,71.5 43.2,71.5 43.2,71.5 43.2,71.5 43.2,71.5 43.2,71.4 
	43.1,71.4 43.1,71.4 43.1,71.4 43.1,71.4 43.1,71.4 43.1,71.4 43.1,71.3 43,71.3 42.8,71.1 42.5,70.8 42.3,70.5 42,70.2 41.7,70 
	41.5,69.7 41.2,69.4 41,69.1 40.7,68.9 40.5,68.6 40.2,68.3 39.9,68 39.7,67.7 39.4,67.5 39.2,67.2 39,66.9 38.7,66.6 38.5,66.3 
	38.2,66 38,65.7 37.8,65.4 37.5,65.1 37.3,64.8 37.1,64.5 36.9,64.2 36.7,63.9 36.5,63.6 36.3,63.3 36.1,63 35.9,62.7 35.7,62.3 
	35.5,62 35.3,61.7 35.1,61.4 34.9,61 34.8,60.7 34.6,60.3 34.5,60 34.3,59.6 34.2,59.3 34,58.9 33.9,58.6 33.8,58.2 33.7,57.9 
	33.6,57.5 33.5,57.1 33.4,56.8 33.3,56.4 33.2,56 33.2,55.7 33.1,55.3 33.1,54.9 33.1,54.6 33,54.2 33,53.8 33,53.4 33,53.1 
	33,52.7 33,52.3 33.1,51.9 33.1,51.6 33.2,51.2 33.3,50.8 33.3,50.5 33.5,50.6 33.6,50.8 33.8,51 33.9,51.1 34,51.3 34.2,51.5 
	34.3,51.6 34.5,51.8 34.6,52 34.7,52.1 34.9,52.3 35,52.4 35.2,52.6 35.3,52.8 35.4,52.9 35.6,53.1 35.7,53.3 35.9,53.4 36,53.6 
	36.1,53.7 36.3,53.9 36.4,54.1 36.6,54.2 36.7,54.4 36.8,54.6 37,54.7 37.1,54.9 37.3,55 37.4,55.2 37.6,55.4 37.7,55.5 37.9,55.7 
	38.2,56 38.5,56.3 38.8,56.7 39.1,57 39.4,57.3 39.7,57.6 40,57.9 40.4,58.2 40.7,58.6 41,58.9 41.4,59.1 41.7,59.4 42.1,59.7 
	42.4,60 42.8,60.2 43.2,60.5 43.5,60.7 43.9,61 44.3,61.2 44.7,61.4 45,61.6 45.4,61.8 45.8,62 46.2,62.1 46.6,62.3 47.1,62.4 
	47.5,62.5 47.9,62.6 48.3,62.7 48.7,62.7 49.2,62.8 49.6,62.8 49.1,62.9 48.6,62.9 48.1,62.9 47.5,63 47,63 46.5,63.1 46,63.1 
	45.5,63.1 44.9,63.2 44.4,63.2 43.9,63.2 43.4,63.3 42.9,63.3 42.3,63.3 41.8,63.3 41.3,63.3 40.8,63.4 40.2,63.4 39.7,63.4 
	39.2,63.4 38.7,63.4 38.2,63.5 37.6,63.5 37.1,63.5 36.6,63.4 36.1,63.4 35.6,63.4 35,63.4 34.5,63.4 34,63.4 33.5,63.3 32.9,63.3 
	32.9,63.3 32.8,63.3 32.8,63.3 32.7,63.3 32.6,63.3 32.6,63.3 32.5,63.3 32.4,63.3 32.4,63.3 32.3,63.3 32.3,63.3 32.2,63.3 
	32.1,63.3 32.1,63.3 32,63.3 31.9,63.2 31.9,63.2 31.8,63.2 31.7,63.2 31.7,63.2 31.6,63.2 31.6,63.2 31.5,63.2 31.4,63.1 
	31.4,63.1 31.3,63.1 31.3,63.1 31.2,63.1 31.1,63 31.1,63 31,63 31,63 30.9,62.9 30.9,62.9 30.8,62.9 30.8,62.8 30.7,62.8 
	30.6,62.8 30.6,62.7 30.6,62.7 30.5,62.6 30.5,62.6 30.4,62.5 30.4,62.5 30.3,62.4 30.3,62.4 30.2,62.3 30.2,62.3 30.2,62.2 
	30.1,62.2 30.1,62.1 30.1,62.1 30.1,62 30,62 30,61.9 30,61.8 30,61.8 30,61.7 30,61.7 29.7,61.6 29.5,61.5 29.5,61.5 29.7,61.4 
	29.9,61.3 29.9,61.3 30,61.3 30,61.2 30,61.2 30,61.1 30,61.1 30,61.1 30.1,61 30.1,61 30.1,61 30.1,60.9 30.1,60.9 30.1,60.9 
	30.2,60.8 30.2,60.8 30.2,60.7 30.2,60.7 30.2,60.7 30.3,60.6 30.3,60.6 30.3,60.6 30.3,60.5 30.4,60.5 30.4,60.5 30.4,60.4 
	30.4,60.4 30.5,60.4 30.5,60.3 30.5,60.3 30.5,60.3 30.6,60.3 30.6,60.2 30.7,60 30.9,59.8 31,59.6 31.2,59.5 31.3,59.3 31.5,59.1 
	31.7,58.9 31.8,58.7 32,58.5 32.1,58.3 32.3,58.1 32.4,57.9 32.6,57.7 32.7,57.5 32.9,57.3 33,57.2 33.2,57 33.3,56.8 33.5,56.6 
	33.6,56.4 33.8,56.2 33.9,56 34.1,55.8 34.2,55.6 34.4,55.4 34.5,55.2 34.7,55 34.9,54.8 35,54.7 35.2,54.5 35.3,54.3 35.5,54.1 
	35.5,54 35.6,54 35.6,53.9 35.6,53.8 35.7,53.8 35.7,53.7 35.8,53.7 35.8,53.6 35.9,53.6 35.9,53.5 36,53.4 36,53.4 36,53.3 
	36.1,53.3 36.1,53.2 36.2,53.1 36.2,53.1 36.2,53 36.3,52.9 36.3,52.9 36.4,52.8 36.4,52.7 36.4,52.7 36.5,52.6 36.5,52.6 
	36.5,52.5 36.6,52.4 36.6,52.4 36.6,52.3 36.6,52.2 36.7,52.1 36.7,52.1 36.7,52 36.7,52 36.7,51.9 36.8,51.8 36.8,51.8 36.8,51.7 
	36.8,51.7 36.8,51.6 36.8,51.5 36.8,51.5 36.8,51.4 36.8,51.4 36.9,51.3 36.9,51.2 36.9,51.2 36.9,51.1 36.9,51.1 36.9,51 
	36.9,50.9 36.9,50.9 36.9,50.8 36.9,50.8 36.8,50.7 36.7,50.6 36.6,50.6 36.5,50.5 36.5,50.5 36.5,50.4 36.5,50.3 36.5,50.3 
	36.6,50.2 36.7,50.2 36.7,50 36.8,49.9 36.8,49.8 36.8,49.6 36.8,49.5 36.7,49.4 36.5,49.3 36.5,49.1 36.7,49 36.8,48.9 36.8,48.7 
	36.8,48.6 36.8,48.5 36.8,48.4 36.8,48.2 36.8,48.1 36.8,48 36.8,47.8 36.8,47.7 36.8,47.6 36.7,47.5 36.7,47.3 36.7,47.2 
	36.7,47.1 36.7,46.9 36.7,46.8 36.7,46.7 36.6,46.6 36.6,46.4 36.6,46.3 36.6,46.2 36.6,46.1 36.5,46.3 36.4,46.5 36.3,46.8 
	36.2,47 36.1,47.3 36,47.5 35.9,47.8 35.8,48 35.7,48.3 35.6,48.5 35.5,48.8 35.4,49 35.4,49.3 35.3,49.6 35.2,49.8 35.1,50.1 
	35,50.3 35,50.6 34.9,50.8 34.8,51.1 34.7,51.3 34.7,51.6 34.6,51.9 34.5,52.1 34.5,52.4 34.4,52.6 34.3,52.9 34.3,53.2 34.2,53.4 
	34.2,53.7 34.1,53.9 34.1,54.2 34,54.3 34,54.4 34,54.4 34,54.5 34,54.6 34,54.7 33.9,54.8 33.9,54.9 33.9,55 33.9,55 33.9,55.1 
	33.9,55.2 33.8,55.3 33.8,55.4 33.8,55.5 33.8,55.6 33.8,55.6 33.8,55.7 33.8,55.8 33.8,55.9 33.8,56 33.8,56.1 33.8,56.2 
	33.8,56.2 33.7,56.3 33.6,56.4 33.6,56.5 33.5,56.6 33.5,56.7 33.5,56.8 33.6,56.8 33.6,56.9 33.7,57.3 33.7,57.6 33.8,57.9 
	33.9,58.2 34,58.6 34.1,58.9 34.2,59.2 34.4,59.5 34.5,59.8 34.7,60.1 34.8,60.4 35,60.7 35.2,60.9 35.4,61.2 35.6,61.5 35.8,61.8 
	36,62 36.2,62.3 36.5,62.5 36.7,62.8 37,63 37.2,63.3 37.5,63.5 37.7,63.7 38,64 38.3,64.2 38.5,64.4 38.8,64.7 39.1,64.9 
	39.3,65.1 39.6,65.3 39.9,65.5 39.8,65.2 39.7,64.9 39.5,64.7 39.4,64.4 39.3,64.1 39.1,63.8 39,63.5 38.9,63.2 38.7,62.9 
	38.6,62.7 38.4,62.4 38.3,62.1 38.2,61.8 38,61.5 37.9,61.3 37.7,61 37.5,60.7 37.4,60.4 37.2,60.2 37.1,59.9 36.9,59.6 36.8,59.3 
	36.6,59.1 36.4,58.8 36.3,58.5 36.1,58.2 35.9,58 35.8,57.7 35.6,57.4 35.4,57.2 35.3,56.9 35.1,56.6 34.9,56.4 34.8,56.1 
	34.6,55.9 34.5,55.6 34.3,55.4 34.2,55.1 34,54.8 33.8,54.6 33.7,54.3 33.5,54.1 33.4,53.8 33.2,53.6 33.1,53.3 32.9,53.1 
	32.7,52.8 32.6,52.6 32.4,52.3 32.3,52 32.1,51.8 32,51.5 31.8,51.3 31.6,51 31.5,50.8 31.3,50.5 31.2,50.3 31,50 30.9,49.8 
	30.7,49.5 30.5,49.2 30.4,49 30.2,48.7 30.1,48.5 30.4,48.9 30.7,49.3 31,49.7 31.3,50.1 31.6,50.4 31.9,50.8 32.2,51.2 32.6,51.6 
	32.9,52 33.2,52.4 33.5,52.8 33.8,53.2 34.1,53.6 34.4,54 34.8,54.3 35.1,54.7 35.4,55.1 35.7,55.5 36,55.9 36.3,56.3 36.7,56.7 
	37,57.1 37.3,57.4 37.6,57.8 37.9,58.2 38.2,58.6 38.6,59 38.9,59.4 39.2,59.8 39.5,60.1 39.9,60.5 40.2,60.9 40,60.4 39.8,60 
	39.7,59.5 39.5,59 39.3,58.6 39.1,58.1 39,57.6 38.8,57.2 38.7,56.7 38.5,56.2 38.4,55.8 38.2,55.3 38.1,54.8 37.9,54.3 37.8,53.9 
	37.7,53.4 37.5,52.9 37.4,52.4 37.3,52 37.1,51.5 37,51 36.9,50.5 36.8,50 36.7,49.6 36.6,49.1 36.5,48.6 36.3,48.1 36.2,47.6 
	36.1,47.1 36.1,46.7 36,46.2 35.9,45.7 35.9,46.1 35.9,46.4 35.9,46.8 35.9,47.2 35.9,47.6 35.9,48 35.9,48.3 35.9,48.7 35.9,49.1 
	35.9,49.5 35.9,49.8 35.9,50.2 35.9,50.6 35.9,51 35.9,51.4 35.9,51.7 35.9,52.1 35.9,52.5 35.9,52.9 35.9,53.2 36,53.6 36,54 
	36,54.4 36,54.8 36,55.1 36,55.5 36,55.9 36,56.3 36,56.6 36,57 35.7,57.4 35.5,57.8 35.5,57.9 35.7,57.9 35.9,58 35.9,58.1 
	36,58.1 36,58.2 36,58.3 36,58.3 36,58.4 36,58.5 36,58.6 36,58.6 36,58.7 36.1,58.8 36.1,58.8 36.1,58.9 36.1,59 36.1,59.1 
	36.1,59.1 36.1,59.2 36.2,59.3 36.2,59.3 36.2,59.4 36.2,59.4 36.3,59.5 36.3,59.6 36.3,59.6 36.4,59.7 36.4,59.7 36.4,59.8 
	36.5,59.9 36.5,59.9 36.6,60 36.6,60 36.7,60 36.7,60.1 36.7,60.1 36.8,60.2 36.8,60.2 36.9,60.2 36.9,60.3 37,60.3 37.1,60.3 
	37.1,60.4 37.2,60.4 37.2,60.4 37.3,60.4 37.3,60.5 37.4,60.5 37.5,60.5 37.5,60.5 37.6,60.6 37.6,60.6 37.7,60.6 37.8,60.6 
	37.8,60.6 37.9,60.7 37.9,60.7 38,60.7 38.1,60.7 38.1,60.7 38.2,60.7 38.2,60.8 38.3,60.8 38.7,60.9 39.1,61 39.4,61.1 39.8,61.2 
	40.2,61.3 40.5,61.5 40.9,61.6 41.3,61.7 41.6,61.9 42,62 42.4,62.1 42.7,62.3 43.1,62.4 43.5,62.6 43.8,62.8 44.2,62.9 44.5,63.1 
	44.9,63.3 45.2,63.5 45.6,63.6 45.9,63.8 46.2,64 46.6,64.2 46.9,64.4 47.2,64.6 47.6,64.8 47.9,65 48.2,65.2 48.6,65.5 48.9,65.7 
	49.2,65.9 49.5,66.1 49.5,66.2 49.4,66.2 49.4,66.3 49.3,66.3 49.3,66.3 49.3,66.4 49.2,66.4 49.2,66.4 49.1,66.5 49,66.5 49,66.5 
	48.9,66.5 48.9,66.5 48.8,66.6 48.8,66.6 48.7,66.6 48.6,66.6 48.6,66.6 48.5,66.5 48.4,66.5 48.4,66.5 48.3,66.5 48.2,66.5 
	48.2,66.5 48.1,66.5 48,66.5 48,66.5 47.9,66.5 47.9,66.5 47.8,66.5 47.7,66.5 47.7,66.5 47.2,66.4 46.7,66.3 46.2,66.2 45.7,66.1 
	45.2,66 44.7,65.9 44.2,65.7 43.7,65.6 43.3,65.5 42.8,65.3 42.3,65.2 41.8,65 41.4,64.8 40.9,64.7 40.4,64.5 39.9,64.3 39.5,64.1 
	39,63.9 38.5,63.7 38.1,63.5 37.6,63.3 37.2,63.1 36.7,62.9 36.3,62.6 35.8,62.4 35.4,62.2 34.9,61.9 34.5,61.7 34.1,61.4 
	33.6,61.2 33.2,60.9 32.8,60.6 33.3,60.8 33.8,60.9 34.3,61.1 34.8,61.2 35.4,61.4 35.9,61.6 36.4,61.7 36.9,61.9 37.4,62.1 
	37.9,62.2 38.4,62.4 38.9,62.6 39.4,62.8 39.9,63 40.4,63.2 40.9,63.4 41.4,63.6 41.9,63.8 42.4,64 42.9,64.2 43.4,64.4 43.9,64.6 
	44.4,64.8 44.9,65.1 45.4,65.3 45.8,65.5 46.3,65.8 46.8,66 47.3,66.2 47.8,66.5 48.2,66.7 48.7,67 48.5,67 48.3,67 48.1,67 
	47.9,66.9 47.6,66.9 47.4,66.9 47.2,66.9 47,66.9 46.8,66.9 46.6,66.9 46.3,66.8 46.1,66.8 45.9,66.8 45.7,66.8 45.5,66.8 
	45.3,66.7 45.1,66.7 44.8,66.7 44.6,66.7 44.4,66.7 44.2,66.6 44,66.6 43.8,66.6 43.6,66.6 43.3,66.5 43.1,66.5 42.9,66.5 
	42.7,66.4 42.5,66.4 42.3,66.4 42.1,66.3 41.8,66.3 42,66.4 42.1,66.4 42.2,66.5 42.3,66.6 42.5,66.7 42.6,66.7 42.7,66.8 
	42.8,66.9 42.9,66.9 43.1,67 43.2,67.1 43.3,67.1 43.4,67.2 43.5,67.3 43.7,67.3 43.8,67.4 43.9,67.5 44,67.5 44.2,67.6 44.3,67.7 
	44.4,67.7 44.5,67.8 44.6,67.9 44.8,67.9 44.9,68 45,68.1 45.1,68.2 45.3,68.2 45.4,68.3 45.5,68.4 45.6,68.4 45.7,68.5 45.6,68.3 
	45.6,68.2 45.5,68 45.5,67.8 45.4,67.6 45.4,67.5 45.4,67.3 45.4,67.1 45.4,66.9 45.4,66.7 45.4,66.6 45.4,66.4 45.5,66.2 45.5,66 
	45.6,65.9 45.7,65.7 45.8,65.5 45.8,65.3 45.9,65.2 46,65 46.1,64.8 46.3,64.7 46.4,64.5 46.5,64.4 46.6,64.3 46.8,64.1 46.9,64 
	47.1,63.9 47.2,63.8 47.4,63.7 47.6,63.6 47.7,63.5 47.9,63.4 48.1,63.3 48.2,63.2 48.4,63.2 48.6,63.1 48.8,63 48.9,63 49.1,62.9 
	49.3,62.9 49.5,62.8 49.7,62.8 49.9,62.8 50,62.7 50.2,62.7 50.4,62.7 50.6,62.7 50.8,62.7 51,62.6 51.2,62.6 51.4,62.6 51.6,62.6 
	51.7,62.6 51.9,62.6 52.1,62.6 52.3,62.5 52.5,62.5 52.7,62.5 52.9,62.6 53.1,62.6 53.3,62.6 53.5,62.6 53.7,62.6 54.4,62.6 
	55.2,62.6 56,62.6 56.8,62.6 57.6,62.6 58.3,62.5 59.1,62.5 59.9,62.5 60.7,62.4 61.5,62.4 62.2,62.3 63,62.2 63.8,62.2 64.6,62.1 
	65.3,62 66.1,61.9 66.9,61.9 67.7,61.8 68.5,61.7 69.2,61.6 70,61.5 70.8,61.4 71.6,61.3 72.3,61.2 73.1,61.1 73.9,61 74.7,60.9 
	75.4,60.7 76.2,60.6 77,60.5 77.8,60.4 78.5,60.3 78,60.2 77.5,60.1 77,60 76.5,59.9 76,59.8 75.5,59.7 75,59.7 74.5,59.6 74,59.5 
	73.5,59.4 72.9,59.4 72.4,59.3 71.9,59.2 71.4,59.2 70.9,59.1 70.4,59 69.9,59 69.4,58.9 68.8,58.9 68.3,58.8 67.8,58.8 67.3,58.8 
	66.8,58.7 66.3,58.7 65.8,58.7 65.2,58.6 64.7,58.6 64.2,58.6 63.7,58.6 63.2,58.6 62.7,58.5 62.1,58.5 62.7,58.6 63.4,58.7 
	64,58.9 64.6,59 65.2,59.1 65.8,59.2 66.4,59.3 67,59.5 67.6,59.6 68.2,59.7 68.8,59.9 69.3,60 69.9,60.1 70.5,60.3 71.1,60.4 
	71.7,60.6 72.3,60.8 72.9,60.9 73.5,61.1 74.1,61.3 74.7,61.4 75.3,61.6 75.8,61.8 76.4,62 77,62.2 77.6,62.3 78.2,62.5 78.8,62.7 
	79.3,62.9 79.9,63.1 80.5,63.3 81.1,63.6 80.6,63.6 80.1,63.7 79.6,63.8 79.2,63.9 78.7,63.9 78.2,64 77.7,64.1 77.2,64.1 
	76.7,64.2 76.3,64.3 75.8,64.3 75.3,64.4 74.8,64.4 74.3,64.5 73.9,64.5 73.4,64.5 72.9,64.6 72.4,64.6 71.9,64.7 71.4,64.7 
	71,64.7 70.5,64.8 70,64.8 69.5,64.8 69,64.8 68.5,64.8 68,64.9 67.6,64.9 67.1,64.8 66.6,64.7 66.1,64.6 65.6,64.5 65.4,64.5 
	65.2,64.5 65,64.6 64.7,64.7 64.5,64.7 64.3,64.8 64.1,64.8 63.9,64.8 63.7,64.8 63.4,64.8 63.2,64.8 63,64.8 62.8,64.8 62.6,64.8 
	62.3,64.8 62.1,64.7 61.9,64.7 61.7,64.7 61.5,64.7 61.3,64.6 61.1,64.6 60.8,64.6 60.6,64.5 60.4,64.5 60.2,64.4 60,64.4 
	59.8,64.3 59.6,64.3 59.4,64.2 59.2,64.1 59,64 58.8,64 59.6,63.9 60.4,63.8 61.3,63.7 62.1,63.6 62.9,63.5 63.7,63.4 64.6,63.3 
	65.4,63.2 66.2,63.1 67.1,63 67.9,62.9 68.7,62.8 69.6,62.7 70.4,62.6 71.2,62.6 72,62.5 72.9,62.4 73.7,62.3 74.5,62.2 75.4,62.1 
	76.2,62 77,62 77.9,61.9 78.7,61.8 79.5,61.7 80.4,61.6 81.2,61.6 82,61.5 82.9,61.4 83.7,61.3 84.5,61.3 85.3,61.2 85.4,61.2 
	85.4,61.2 85.4,61.3 85.4,61.3 85.4,61.3 85.4,61.3 85.4,61.4 85.4,61.4 85.4,61.4 85.4,61.4 85.4,61.5 85.4,61.5 85.4,61.5 
	85.4,61.5 85.4,61.6 85.4,61.6 85.4,61.6 85.4,61.6 85.4,61.6 85.4,61.7 85.4,61.7 85.4,61.7 85.4,61.7 85.4,61.8 85.4,61.8 
	85.4,61.8 85.4,61.8 85.4,61.9 85.4,61.9 85.4,61.9 85.4,61.9 85.4,62 "/>
</svg>
