<?xml version="1.0" encoding="UTF-8" standalone="no"?>
<svg width="32px" height="32px" viewBox="0 0 32 32" version="1.1" xmlns="http://www.w3.org/2000/svg" xmlns:xlink="http://www.w3.org/1999/xlink" xmlns:sketch="http://www.bohemiancoding.com/sketch/ns">
    <!-- Generator: Sketch 3.0.4 (8054) - http://www.bohemiancoding.com/sketch -->
    <title>32notes</title>
    <desc>Created with Sketch.</desc>
    <defs></defs>
    <g id="Page-1" stroke="none" stroke-width="1" fill="none" fill-rule="evenodd" sketch:type="MSPage">
        <g id="32notes" sketch:type="MSArtboardGroup" fill="#FFFFFF">
            <path d="M26,10.5 L26,25 C26,26.6568543 24.2091391,28 22,28 C19.7908609,28 18,26.6568543 18,25 C18,23.3431457 19.7908609,22 22,22 C22.7285743,22 23.4116533,22.1460914 24,22.4013465 L24,19.4927692 L24,19.4927692 L12,16.4493843 L12,21 C12,22.6568543 10.2091391,24 8,24 C5.79086089,24 4,22.6568543 4,21 C4,19.3431457 5.79086089,18 8,18 C8.7285743,18 9.41165328,18.1460914 10,18.4013465 L10,6.47107673 L10,4 L26,8 L26,10.5 Z M24,11.4927692 L24,13.5 L12,10.5 L12,8.44938427 L24,11.4927692 Z M24,17.5 L24,15.4927692 L24,15.4927692 L12,12.4493843 L12,14.5 L24,17.5 L24,17.5 Z" id="Left-" sketch:type="MSShapeGroup"></path>
        </g>
    </g>
</svg>