<?xml version="1.0" encoding="UTF-8" standalone="no"?>
<svg width="32px" height="32px" viewBox="0 0 32 32" version="1.1" xmlns="http://www.w3.org/2000/svg" xmlns:xlink="http://www.w3.org/1999/xlink" xmlns:sketch="http://www.bohemiancoding.com/sketch/ns">
    <!-- Generator: Sketch 3.0.4 (8054) - http://www.bohemiancoding.com/sketch -->
    <title>8notes</title>
    <desc>Created with Sketch.</desc>
    <defs></defs>
    <g id="Page-1" stroke="none" stroke-width="1" fill="none" fill-rule="evenodd" sketch:type="MSPage">
        <g id="8notes" sketch:type="MSArtboardGroup" fill="#FFFFFF">
            <path d="M24,11.4927692 L24,22.4013465 C23.4116533,22.1460914 22.7285743,22 22,22 C19.7908609,22 18,23.3431457 18,25 C18,26.6568543 19.7908609,28 22,28 C24.2091391,28 26,26.6568543 26,25 L26,10.5 L26,8 L10,4 L10,6.47107673 L10,18.4013465 C9.41165328,18.1460914 8.7285743,18 8,18 C5.79086089,18 4,19.3431457 4,21 C4,22.6568543 5.79086089,24 8,24 C10.2091391,24 12,22.6568543 12,21 L12,8.44938427 L24,11.4927692 Z" id="Left-" sketch:type="MSShapeGroup"></path>
        </g>
    </g>
</svg>