<?xml version="1.0" encoding="UTF-8" standalone="no"?>
<svg width="32px" height="32px" viewBox="0 0 32 32" version="1.1" xmlns="http://www.w3.org/2000/svg" xmlns:xlink="http://www.w3.org/1999/xlink" xmlns:sketch="http://www.bohemiancoding.com/sketch/ns">
    <!-- Generator: Sketch 3.0.4 (8054) - http://www.bohemiancoding.com/sketch -->
    <title>fermata</title>
    <desc>Created with Sketch.</desc>
    <defs></defs>
    <g id="Page-1" stroke="none" stroke-width="1" fill="none" fill-rule="evenodd" sketch:type="MSPage">
        <g id="fermata" sketch:type="MSArtboardGroup" fill="#FFFFFF">
            <path d="M23.7674971,18.077501 C22.9066571,14.5877909 19.7555342,12 16,12 C12.2444658,12 9.09334287,14.5877909 8.23250285,18.077501 L11,19 L11.0829584,19 C11.5590365,16.1622865 14.0270036,14 17,14 C19.7613618,14 22.0870367,15.8653962 22.7856271,18.404791 L23.7674971,18.077501 L23.7674971,18.077501 Z M16,20 C17.1045696,20 18,19.1045696 18,18 C18,16.8954304 17.1045696,16 16,16 C14.8954304,16 14,16.8954304 14,18 C14,19.1045696 14.8954304,20 16,20 Z" id="Arch" sketch:type="MSShapeGroup"></path>
        </g>
    </g>
</svg>