<?xml version="1.0" encoding="utf-8"?>
<!-- Generator: Adobe Illustrator 17.1.0, SVG Export Plug-In . SVG Version: 6.00 Build 0)  -->
<!DOCTYPE svg PUBLIC "-//W3C//DTD SVG 1.1//EN" "http://www.w3.org/Graphics/SVG/1.1/DTD/svg11.dtd">
<svg version="1.1" id="Layer_1" xmlns="http://www.w3.org/2000/svg" xmlns:xlink="http://www.w3.org/1999/xlink" x="0px" y="0px"
	 viewBox="0 0 129.5 129.5" enable-background="new 0 0 129.5 129.5" xml:space="preserve">
<g>
	<path d="M91.2,94.9C90.3,93.5,90,90.9,90,87V73.9L89.9,74c-0.2-8.8-2.2-15.3-6.1-19.5C79.7,50.2,74,48,66.8,48c-2,0-4,0.3-5.8,0.9
		c-1.8,0.6-3.4,1.4-4.9,2.3c-1.5,0.9-2.7,1.9-3.8,2.9c-1,1.1-1.8,2-2.4,2.9c-0.4,0.6-1,1.5-1.6,2.7c0.1-0.5,0.1-0.9,0.2-1.2
		c0.2-1.4,0.3-2.8,0.3-4.3v-32c0-1.5-0.2-2.7-0.8-3.4c-0.5-0.7-1.2-1.2-1.9-1.5c-0.7,0.5-1.8,1-3.3,1.5c-1.5,0.5-3,1-4.7,1.3
		c-1.6,0.4-3.2,0.7-4.8,0.9c-1.6,0.2-2.8,0.4-3.7,0.4c-0.4,0.6-0.7,1.3-0.8,2.1c-0.2,0.7-0.2,1.6-0.2,2.5c2,0,3.7,0.2,4.9,0.5
		c1.2,0.4,2.2,0.9,2.8,1.7c0.7,0.7,1.1,1.6,1.2,2.7c0.2,1.1,0.3,2.3,0.3,3.8v59.9c0,2.7,1.3,5.3,3.6,6.9l0.1,0
		c2.9,2,6.1,3.5,9.6,4.1c2.4,0.4,5.1,0.6,8,0.6c4.6,0,8.7-0.8,12.5-2.5c3.1-1.3,5.8-3.1,8.1-5.2c0,0.5,0,1.1,0,1.7
		c0,1.9,0.3,3.3,0.9,4.2c0.6,0.9,1.3,1.5,2.1,1.9c1.7-0.8,3.8-1.6,6.2-2.3c2.4-0.7,4.7-1.2,6.8-1.5c0.3-0.7,0.6-1.7,0.7-2.8
		c0.1-1.1,0.2-2.1,0.2-3C93.9,96.8,92,96.2,91.2,94.9z M75.8,88.8c-1.2,3.1-2.7,5.5-4.5,7.3c-1.8,1.8-3.7,3-5.8,3.7
		c-2,0.7-3.9,1-5.6,1c-2.9,0-5.3-0.6-7.2-1.7c0,0,0,0,0,0c-2.2-1.3-3.5-3.8-3.5-6.4V79.2c0-4.2,0.4-7.9,1.3-10.9
		c0.9-3,2-5.4,3.4-7.3c1.4-1.9,3-3.2,4.8-4c1.8-0.8,3.5-1.2,5.3-1.2c1.3,0,2.8,0.4,4.4,1.1c1.6,0.7,3.1,1.9,4.5,3.6
		c1.3,1.6,2.5,3.8,3.4,6.5c0.9,2.7,1.4,6,1.4,9.9C77.6,81.7,77,85.7,75.8,88.8z"/>
</g>
</svg>
