<?xml version="1.0" encoding="UTF-8" standalone="no"?>
<svg width="32px" height="32px" viewBox="0 0 32 32" version="1.1" xmlns="http://www.w3.org/2000/svg" xmlns:xlink="http://www.w3.org/1999/xlink" xmlns:sketch="http://www.bohemiancoding.com/sketch/ns">
    <!-- Generator: Sketch 3.0.4 (8054) - http://www.bohemiancoding.com/sketch -->
    <title>sharp</title>
    <desc>Created with Sketch.</desc>
    <defs></defs>
    <g id="Page-1" stroke="none" stroke-width="1" fill="none" fill-rule="evenodd" sketch:type="MSPage">
        <g id="sharp" sketch:type="MSArtboardGroup" fill="#FFFFFF">
            <path d="M14,20.4783075 L18,19.4638459 L18,26 L20,25 L20,18.9566151 L24,17.9421535 L24,16 L20,17 L20,17 L20,11.9566151 L24,10.9421535 L24,10 L20,11 L20,4 L18,5 L18,11.5 L14,12.5 L14,6 L12,7 L12,13 L8,14 L8,15 L12,13.9855384 L12,19 L8,20 L8,22 L12,20.9855384 L12,28 L14,27 L14,20.4783075 Z M14,18.5 L18,17.5 L18,12.4638459 L14,13.4783075 L14,18.5 Z" id="Bottom-bar" sketch:type="MSShapeGroup"></path>
        </g>
    </g>
</svg>