<svg id="Layer_1" data-name="Layer 1" xmlns="http://www.w3.org/2000/svg" xmlns:xlink="http://www.w3.org/1999/xlink" viewBox="0 0 751.12 738.84">
  <defs>
    <style>

      @keyframes infinite-spinning {
        from {
          transform: rotate(0deg);
        }
        to {
          transform: rotate(360deg);
        }
      }

      @keyframes infinite-spinning-2 {
        from {
          transform: rotate(-15deg);
        }
        to {
          transform: rotate(30deg);
        }
      }

      @-webkit-keyframes fader {
        from {
          opacity: 1.0;
        }
        to {
          opacity: 0.4;
        }
      }
      @-moz-keyframes fader {
        from {
          opacity: 1.0;
        }
        to {
          opacity: 0.4;
        }
      }
      @-o-keyframes fader {
        from {
          opacity: 1.0;
        }
        to {
          opacity: 0.4;
        }
      }
      @keyframes fader {
         from {
          opacity: 1.0;
        }
        to {
          opacity: 0.4;
        }
      }

      @-webkit-keyframes fader-2 {
        from {
          opacity: 1.0;
        }
        to {
          opacity: 0.6;
        }
      }
      @-moz-keyframes fader-2 {
        from {
          opacity: 1.0;
        }
        to {
          opacity: 0.6;
        }
      }
      @-o-keyframes fader-2 {
        from {
          opacity: 1.0;
        }
        to {
          opacity: 0.6;
        }
      }
      @keyframes fader-2 {
         from {
          opacity: 1.0;
        }
        to {
          opacity: 0.6;
        }
      }

      .planet-1 {
        -webkit-transform-origin: 50% 50%;
        -moz-transform-origin: 50% 50%;
        -o-transform-origin: 50% 50%;
        transform-origin: 50% 50%;
        animation: infinite-spinning 100s infinite;
        -webkit-animation: infinite-spinning 120s infinite;
        -moz-animation:    infinite-spinning 120s infinite;
        -o-animation:      infinite-spinning 120s infinite;
        animation-delay: 0;
      }

      .planet-2 {
        -webkit-transform-origin: 50% 50%;
        -moz-transform-origin: 50% 50%;
        -o-transform-origin: 50% 50%;
        transform-origin: 50% 50%;
        animation: infinite-spinning-2 35s infinite;
        -webkit-animation: infinite-spinning-2 35s infinite;
        -moz-animation:    infinite-spinning-2 35s infinite;
        -o-animation:      infinite-spinning-2 35s infinite;    
        animation-direction: alternate;  
        animation-delay: 0;
      }

      .outline {
        -webkit-transform-origin: 50% 50%;
        -moz-transform-origin: 50% 50%;
        -o-transform-origin: 50% 50%;
        transform-origin: 50% 50%;
        animation: infinite-spinning-2 35s infinite;
        -webkit-animation: infinite-spinning-2 35s infinite;
        -moz-animation:    infinite-spinning-2 35s infinite;
        -o-animation:      infinite-spinning-2 35s infinite;    
        animation-direction: alternate;  
        animation-delay: 0;
      }

      .cls-1, .cls-5, .cls-9 {
        fill: none;
      }

      .cls-2 {
        clip-path: url(#clip-path);
      }

      .cls-3 {
        fill: #383051;
      }

      .cls-4 {
        fill: #fff;
      }

      .cls-5, .cls-9 {
        stroke-miterlimit: 10;
      }

      .cls-5 {
        stroke-width: 39.44px;
        stroke: url(#radial-gradient);
        -webkit-animation: fader 6s infinite;
        -moz-animation:    fader 6s infinite;
        -o-animation:      fader 6s infinite;
        animation:         fader 6s infinite;
        animation-direction: alternate;
      }

      .cls-6 {
        fill: #4b3d6b;
      }

      .cls-7 {
        fill: #3cbfd0;
      }

      .cls-8 {
        fill: #61e9ff;
      }

      .cls-9 {
        stroke-width: 23.67px;
        stroke: url(#radial-gradient-2);
        -webkit-animation: fader 8s infinite;
        -moz-animation:    fader 8s infinite;
        -o-animation:      fader 8s infinite;
        animation:         fader 8s infinite;
        animation-direction: alternate;
      }

      .cls-10 {
        fill: #231f20;
        opacity: 0.1;
        isolation: isolate;
      }
    </style>
    <clipPath id="clip-path" transform="translate(22.99 14.83)">
      <path class="cls-1 outline" d="M621.89,223.86l-17,52.53a86,86,0,0,0-1.29,48.52l14.52,54.57A178.67,178.67,0,0,1,534,580.68l-11.26,6.43a182.05,182.05,0,0,1-204.47-16.53h0a86,86,0,0,0-77.12-15.94l-52.7,14.67C126.9,586.44,68.78,532.74,81,470l23.66-121.77A86,86,0,0,0,100,299.75l-11.72-29.1C64.56,211.74,110.67,148.33,174,152.74l77,5.35a86,86,0,0,0,82.11-45.82l2.74-5.21C362.63,56.14,430.82,45.28,472,85.42L474,87.21a86,86,0,0,0,63,24.29h0C596.58,109.37,640.22,167.08,621.89,223.86Z"/>
    </clipPath>
    <radialGradient id="radial-gradient" cx="444.31" cy="193.19" r="215.2" gradientTransform="matrix(1, 0, 0, -1, 0, 702)" gradientUnits="userSpaceOnUse">
      <stop offset="0" stop-color="#61e9ff"/>
      <stop offset="0.12" stop-color="#60e4fa"/>
      <stop offset="0.27" stop-color="#5dd5ec"/>
      <stop offset="0.43" stop-color="#57bdd5"/>
      <stop offset="0.61" stop-color="#509ab5"/>
      <stop offset="0.79" stop-color="#466e8c"/>
      <stop offset="0.97" stop-color="#3a395a"/>
      <stop offset="1" stop-color="#383051"/>
    </radialGradient>
    <radialGradient id="radial-gradient-2" cx="238.69" cy="432.7" r="52.63" gradientTransform="matrix(1, 0, 0, -1, 22.99, 716.83)" gradientUnits="userSpaceOnUse">
      <stop offset="0" stop-color="#fffefe"/>
      <stop offset="0.1" stop-color="#f4f3f5"/>
      <stop offset="0.28" stop-color="#d7d5db"/>
      <stop offset="0.52" stop-color="#a8a4b2"/>
      <stop offset="0.81" stop-color="#67617a"/>
      <stop offset="1" stop-color="#383051"/>
    </radialGradient>
  </defs>
  <title>spaceblob-2</title>
  <g id="Layer_1-2" data-name="Layer 1">
    <g class="cls-2">
      <g>
        <rect class="cls-3" width="751.12" height="697.1"/>
        <circle class="cls-4" cx="306.69" cy="330.01" r="4.55" transform="translate(-91.12 183.92) rotate(-26.17)"/>
        <circle class="cls-4" cx="197.85" cy="467.42" r="6.88" transform="translate(-162.88 150) rotate(-26.17)"/>
        <circle class="cls-4" cx="569.42" cy="273.47" r="5.27" transform="translate(-39.25 294) rotate(-26.17)"/>
        <circle class="cls-4" cx="203.66" cy="385.75" r="2.02" transform="translate(-126.26 144.19) rotate(-26.17)"/>
        <circle class="cls-4" cx="153.38" cy="223.08" r="2.02" transform="translate(-59.68 105.34) rotate(-26.17)"/>
        <circle class="cls-4" cx="333.05" cy="190.85" r="2.02" transform="translate(-27.04 181.28) rotate(-26.17)"/>
        <circle class="cls-4" cx="145.87" cy="436.03" r="2.02" transform="translate(-154.36 123.86) rotate(-26.17)"/>
        <circle class="cls-4" cx="443.2" cy="253.65" r="2.02" transform="translate(-43.45 236.3) rotate(-26.17)"/>
        <circle class="cls-4" cx="417.3" cy="113.58" r="2.02" transform="translate(15.68 210.52) rotate(-26.17)"/>
        <circle class="cls-4" cx="470.14" cy="216.5" r="2.02" transform="translate(-24.3 244.37) rotate(-26.17)"/>
        <circle class="cls-4" cx="525" cy="151.14" r="2.02" transform="translate(10.15 261.87) rotate(-26.17)"/>
        <circle class="cls-4" cx="539.89" cy="215.41" r="3.83" transform="translate(-16.67 275.02) rotate(-26.17)"/>
        <g>
          <path class="cls-5" d="M514.56,651a6.43,6.43,0,0,0,8.32,3.53l71.11-29a6.43,6.43,0,0,1,6.43,1c65-86.22,47.77-208.79-38.45-273.77a195.48,195.48,0,0,0-116.19-39.37h-1.49A195,195,0,0,0,298.4,378.72l-.27.1c-71.69,80.76-64.34,204.33,16.42,276A195.52,195.52,0,0,0,373.85,691l.1.26A195.77,195.77,0,0,0,563.23,664a6.43,6.43,0,0,1,0-11.84l23.92-9.9a196.52,196.52,0,0,0,13.23-15.73,6.43,6.43,0,0,0-6.43-1l-71.11,29a6.43,6.43,0,0,1-8.64-7.26A6.43,6.43,0,0,0,514.56,651Z" transform="translate(22.99 14.83)"/>
          <g>
            <g>
              <path class="cls-6" d="M412.39,328.81a6.25,6.25,0,0,0,3.75,11.88l47.3-19.28a6.25,6.25,0,1,1,5.25,11.34q-.28.13-.57.23L402.8,359.71a6.25,6.25,0,0,0,6.2,10.71l40.54-16.35,29-12a6.25,6.25,0,0,1,4.68,11.57l-28.95,12.07-5.8,2.34a6.25,6.25,0,0,0,4.11,11.8q.29-.1.57-.23l5.8-2.34,46-19a6.25,6.25,0,0,1,5.66,11.08L440.4,398.1a6.25,6.25,0,0,0,4.11,11.8q.29-.1.57-.23l46.36-19a6.25,6.25,0,0,1,4.68,11.57l-63.68,26.21a6.25,6.25,0,0,0,4.11,11.8q.29-.1.57-.23l40.57-16.34,29-12A6.25,6.25,0,1,1,511.91,423q-.28.13-.57.23l-28.95,12.07-5.8,2.33a6.25,6.25,0,0,0,4.68,11.57l5.8-2.34,46-19A6.25,6.25,0,0,1,538.74,439l-70.18,28.82a6.25,6.25,0,0,0,4.11,11.8q.29-.1.57-.23l46.36-19a6.25,6.25,0,0,1,4.68,11.57L460.65,498a6.25,6.25,0,0,0,4.68,11.57l69.54-28.28a6.25,6.25,0,1,1,5.25,11.34q-.28.13-.57.23L510.6,505l-5.8,2.33a6.25,6.25,0,0,0,4.68,11.57l5.8-2.34,47.89-18.41c3.2-1.29,4.95-.39,6.25,2.82a6.25,6.25,0,0,1-2.48,7.64l-70.18,28.82a6.25,6.25,0,0,0,3.75,11.88L535.84,535a6.26,6.26,0,0,1,1.09-.32L547.82,530a6.25,6.25,0,1,1,5.25,11.34q-.28.13-.57.23l-35.8,14.78c-.28.14-.58.28-.87.41L487.17,568.3a6.25,6.25,0,0,0,6.2,10.71l40.57-16.34,29-12a6.25,6.25,0,0,1,4.68,11.57l-28.95,12.07-5.8,2.34a6.25,6.25,0,0,0,4.68,11.57l5.8-2.34,46-19A6.25,6.25,0,0,1,595,577.89L524.8,606.71a6.25,6.25,0,0,0,4.11,11.8q.29-.1.57-.23l46.36-19a6.25,6.25,0,1,1,5.25,11.34q-.28.13-.57.23L516.81,637a6.25,6.25,0,0,0,4.68,11.57L591,620.18a6.25,6.25,0,0,1,6.26.93c63.5-84.35,46.59-204.2-37.75-267.7A191.16,191.16,0,0,0,446.08,315Z" transform="translate(22.99 14.83)"/>
              <path class="cls-6" d="M336,580.81,273.44,421.1c-46.93,94.66-8.23,209.44,86.43,256.37q7.86,3.9,16.05,7.06Z" transform="translate(22.99 14.83)"/>
            </g>
            <path class="cls-7" d="M591,620.26l-69.5,28.37a6.25,6.25,0,0,1-4.68-11.57l63.7-26.13a6.25,6.25,0,0,0-4.11-11.8q-.29.1-.57.23l-46.36,19A6.25,6.25,0,1,1,524.25,607q.28-.13.57-.23L595,578a6.25,6.25,0,0,0-5.66-11.08l-46,19-5.8,2.34a6.25,6.25,0,0,1-4.68-11.57l34.71-14.41a6.25,6.25,0,0,0-4.68-11.57L493.35,579a6.25,6.25,0,0,1-6.2-10.71l65.32-26.74a6.25,6.25,0,0,0-4.11-11.8q-.29.1-.57.23l-47.3,19.28a6.25,6.25,0,0,1-3.75-11.88l70.18-28.82a6.25,6.25,0,0,0-5.66-11.08l-46,19-5.8,2.34a6.25,6.25,0,0,1-4.68-11.57l34.71-14.42a6.25,6.25,0,0,0-4.11-11.8q-.29.1-.57.23l-69.5,28.28A6.25,6.25,0,0,1,460.65,498l63.63-26.12a6.25,6.25,0,0,0-4.68-11.57l-46.36,19A6.25,6.25,0,1,1,468,468q.28-.13.57-.23L538.74,439a6.25,6.25,0,0,0-5.66-11.08l-46,19-5.8,2.34a6.25,6.25,0,0,1-4.68-11.57l34.71-14.41a6.25,6.25,0,0,0-4.11-11.8q-.29.1-.57.23l-29,12-40.57,16.34a6.25,6.25,0,1,1-5.25-11.34q.28-.13.57-.23l63.7-26.13a6.25,6.25,0,0,0-4.68-11.57l-46.36,19a6.25,6.25,0,1,1-5.25-11.34q.28-.13.57-.23l70.18-28.82a6.25,6.25,0,0,0-5.66-11.08l-46,19-5.8,2.34a6.25,6.25,0,1,1-5.25-11.34q.28-.13.57-.23l5.8-2.34,28.95-12.07a6.25,6.25,0,0,0-4.68-11.57l-29,11.89L409,370.4a6.25,6.25,0,0,1-6.2-10.71L468.1,333a6.25,6.25,0,0,0-4.11-11.8q-.29.1-.57.23l-47.3,19.28a6.25,6.25,0,0,1-3.75-11.88L446.05,315H444.6A191.15,191.15,0,0,0,273.44,421.1l62.62,159.72,39.85,103.72A191.43,191.43,0,0,0,561,657.84a6.25,6.25,0,0,1,0-11.57l23.39-9.68a192.15,192.15,0,0,0,12.93-15.42A6.25,6.25,0,0,0,591,620.26Z" transform="translate(22.99 14.83)"/>
            <g>
              <path class="cls-8" d="M446.39,697.07a6.25,6.25,0,0,1-1.29-11.93l34.71-14.41a6.25,6.25,0,0,0-4.11-11.8q-.29.1-.57.23l-29,12-40.57,16.34A6.25,6.25,0,0,1,400.91,676l63.7-26.13a6.25,6.25,0,0,0-4.68-11.57l-46.36,19a6.25,6.25,0,0,1-5.25-11.34q.28-.13.57-.23l70.21-28.9a6.25,6.25,0,0,0-5.66-11.08l-45.94,19-5.8,2.34a6.25,6.25,0,1,1-5.25-11.34q.28-.13.57-.23l34.71-14.41a6.25,6.25,0,0,0-4.68-11.57l-69.5,28.32a6.25,6.25,0,0,1-6.2-10.71l65.32-26.72a6.25,6.25,0,0,0-4.11-11.8q-.29.1-.57.23l-10.89,4.69a6.26,6.26,0,0,0-1.09.32L384.7,588.16a6.25,6.25,0,0,1-3.75-11.88l70.18-28.82a6.25,6.25,0,0,0-5.66-11.08l-51.79,21.39A6.25,6.25,0,0,1,389,546.21l34.71-14.41A6.25,6.25,0,0,0,419.6,520q-.29.1-.57.23l-29,12-40.53,16.29A6.25,6.25,0,0,1,344.85,537l63.63-26.09a6.25,6.25,0,0,0-4.68-11.57l-46.36,19A6.25,6.25,0,0,1,352.19,507q.28-.13.57-.23l70.18-28.82a6.25,6.25,0,0,0-5.66-11.08L365.5,488.24a6.25,6.25,0,0,1-4.68-11.57l34.71-14.41a6.25,6.25,0,0,0-4.11-11.8q-.29.1-.57.23L321.3,479.06a6.25,6.25,0,0,1-5.25-11.34q.28-.13.57-.23l52.8-21.34.27-.18,10.63-4.61a6.25,6.25,0,0,0-4.68-11.57l-46.36,19A6.25,6.25,0,0,1,324,437.45q.28-.13.57-.23l70.18-28.82a6.25,6.25,0,0,0-5.66-11.08l-51.79,21.39a6.25,6.25,0,0,1-4.68-11.57l34.71-14.41a6.25,6.25,0,0,0-4.11-11.8q-.29.1-.57.23l-29,12-40.53,16.14a6.25,6.25,0,0,1-6.2-10.71l28.65-11.57c.3-.12.59-.27.87-.41l35.8-14.78a6.25,6.25,0,0,0-4.11-11.8q-.29.1-.57.23L301.72,379c-70.1,78.94-62.93,199.76,16,269.85a191.15,191.15,0,0,0,126.92,48.22h1.74Z" transform="translate(22.99 14.83)"/>
              <path class="cls-8" d="M366.78,338.89a6.2,6.2,0,0,0,2.06-8.47,191,191,0,0,0-41.69,24.74Z" transform="translate(22.99 14.83)"/>
            </g>
          </g>
        </g>
        <g>
          <circle class="cls-9" cx="261.68" cy="284.12" r="40.8"/>
          <g>
            <circle class="cls-4" cx="261.68" cy="284.12" r="41.42"/>
            <path class="cls-8" d="M165.19,291.3c-7.64,0-13.92-.9-14.58-3.78-1-4.5,12.42-10.72,23.9-15.15,16-6.18,37.79-12.58,61.24-18s45.8-9.25,63-10.75c12.25-1.07,27.07-1.4,28.11,3.1s-12.42,10.72-23.9,15.15c-16,6.18-37.79,12.58-61.24,18s-45.8,9.25-63,10.75C174.29,291,169.53,291.3,165.19,291.3Zm147.06-47.64c-3.53,0-8,.19-13.54.68-17.1,1.49-39.41,5.31-62.82,10.73s-45.13,11.81-61.15,18c-22.15,8.54-23.77,12.87-23.43,14.28s3.68,4.6,27.33,2.57c17.1-1.49,39.41-5.31,62.82-10.73s45.13-11.81,61.15-18c22.16-8.55,23.77-12.85,23.43-14.29C325.8,245.76,323.79,243.66,312.26,243.66ZM172.15,289.05c-6.94,0-12.65-.82-13.27-3.44-1-4.1,11.25-9.74,21.66-13.75,14.52-5.6,34.23-11.4,55.46-16.32s41.48-8.38,57-9.73c11.11-1,24.55-1.29,25.5,2.83h0c1,4.1-11.25,9.74-21.66,13.75-14.52,5.6-34.23,11.4-55.46,16.32s-41.48,8.38-57,9.73C180.37,288.79,176.07,289.05,172.15,289.05Zm133-43.13c-3.43,0-7.48.19-12.06.59-15.42,1.35-35.68,4.81-56.89,9.72s-40.86,10.69-55.36,16.29c-13.91,5.36-21.85,10.18-21.2,12.85s9.87,3.56,24.72,2.26c15.42-1.35,35.68-4.81,56.89-9.72s40.86-10.69,55.36-16.29c13.91-5.36,21.85-10.18,21.2-12.85h0C317.33,246.92,312.8,245.93,305.12,245.93ZM178.47,287.06c-7.08,0-11.57-1-12.08-3.15-1.53-6.59,34.32-19,69.86-27.28a393.72,393.72,0,0,1,51.61-8.82c10.08-.89,22.26-1.14,23.14,2.57h0c.86,3.74-10.19,8.86-19.63,12.49a393.78,393.78,0,0,1-50.23,14.78c-23.74,5.48-48.43,9.34-62.66,9.34ZM298.87,248c-3.11,0-6.79.18-11,.54a393,393,0,0,0-51.51,8.8C193.6,267.28,166,279,167.11,283.74s31,3.15,73.86-6.77a393,393,0,0,0,50.13-14.74c12.57-4.85,19.74-9.2,19.18-11.65h0c-.39-1.74-4.49-2.62-11.4-2.62Zm-114.7,37.15c-6.43,0-10.54-.87-11-2.87-1.39-6,31.09-17.29,63.29-24.74a356.61,356.61,0,0,1,46.75-8c9.14-.8,20.19-1,21,2.38h0c.78,3.41-9.24,8.06-17.8,11.36a356.62,356.62,0,0,1-45.49,13.38C219.45,281.66,197.08,285.16,184.18,285.16ZM293.23,249.8c-2.57,0-5.86.14-9.95.5a355.81,355.81,0,0,0-46.65,8c-38.75,9-63.73,19.59-62.74,23.86S202,284.94,240.74,276a355.8,355.8,0,0,0,45.4-13.36c16.85-6.5,17.53-9.68,17.35-10.5h0C303.33,251.47,302.09,249.8,293.23,249.8Z" transform="translate(22.99 14.83)"/>
            <path class="cls-4" d="M228.14,274.37l24.51-7.24,26-8.56a41.42,41.42,0,0,0-80.13,20.94Z" transform="translate(22.99 14.83)"/>
            <path class="cls-10" d="M239.77,292a53.79,53.79,0,0,1-35.05.64,41.42,41.42,0,0,0,70.09-44A54,54,0,0,1,239.77,292Z" transform="translate(22.99 14.83)"/>
          </g>
        </g>
      </g>
    </g>
  </g>
</svg>
