<svg id="Layer_1" data-name="Layer 1" xmlns="http://www.w3.org/2000/svg" xmlns:xlink="http://www.w3.org/1999/xlink" viewBox="0 0 534.79 531.87">
  <defs>
    <style>

      @keyframes infinite-spinning {
        from {
          transform: rotate(0deg);
        }
        to {
          transform: rotate(360deg);
        }
      }
      @-webkit-keyframes infinite-spinning {
        from {
          transform: rotate(0deg);
        }
        to {
          transform: rotate(360deg);
        }
      }
      @-moz-keyframes infinite-spinning {
        from {
          transform: rotate(0deg);
        }
        to {
          transform: rotate(360deg);
        }
      }
      @-o-keyframes infinite-spinning {
        from {
          transform: rotate(0deg);
        }
        to {
          transform: rotate(360deg);
        }
      }

      @keyframes infinite-spinning-2 {
        from {
          transform: rotate(-15deg);
        }
        to {
          transform: rotate(30deg);
        }
      }
      @-webkit-keyframes infinite-spinning-2 {
        from {
          transform: rotate(-15deg);
        }
        to {
          transform: rotate(30deg);
        }
      }
      @-moz-keyframes infinite-spinning-2 {
        from {
          transform: rotate(-15deg);
        }
        to {
          transform: rotate(30deg);
        }
      }
      @-o-keyframes infinite-spinning-2 {
        from {
          transform: rotate(-15deg);
        }
        to {
          transform: rotate(30deg);
        }
      }


      @-webkit-keyframes fader {
        from {
          opacity: 1.0;
        }
        to {
          opacity: 0.3;
        }
      }
      @-moz-keyframes fader {
        from {
          opacity: 1.0;
        }
        to {
          opacity: 0.3;
        }
      }
      @-o-keyframes fader {
        from {
          opacity: 1.0;
        }
        to {
          opacity: 0.3;
        }
      }
      @keyframes fader {
         from {
          opacity: 1.0;
        }
        to {
          opacity: 0.3;
        }
      }

      @-webkit-keyframes fader-2 {
        from {
          opacity: 1.0;
        }
        to {
          opacity: 0.6;
        }
      }
      @-moz-keyframes fader-2 {
        from {
          opacity: 1.0;
        }
        to {
          opacity: 0.6;
        }
      }
      @-o-keyframes fader-2 {
        from {
          opacity: 1.0;
        }
        to {
          opacity: 0.6;
        }
      }
      @keyframes fader-2 {
         from {
          opacity: 1.0;
        }
        to {
          opacity: 0.6;
        }
      }

      .planet-1 {
        -webkit-transform-origin: 50% 50%;
        -moz-transform-origin: 50% 50%;
        -o-transform-origin: 50% 50%;
        transform-origin: 50% 50%;
        animation: infinite-spinning 250s infinite;
        -webkit-animation: infinite-spinning 250s infinite;
        -moz-animation:    infinite-spinning 250s infinite;
        -o-animation:      infinite-spinning 250s infinite;
        animation-delay: 0;
      }

      .planet-2 {
        -webkit-transform-origin: 50% 50%;
        -moz-transform-origin: 50% 50%;
        -o-transform-origin: 50% 50%;
        transform-origin: 50% 50%;
        animation: infinite-spinning-2 45s infinite;
        -webkit-animation: infinite-spinning-2 45s infinite;
        -moz-animation:    infinite-spinning-2 45s infinite;
        -o-animation:      infinite-spinning-2 45s infinite;    
        animation-direction: alternate;  
        animation-delay: 0;
      }

      .outline {
        -webkit-transform-origin: 50% 50%;
        -moz-transform-origin: 50% 50%;
        -o-transform-origin: 50% 50%;
        transform-origin: 50% 50%;
        animation: infinite-spinning 100s infinite;
        -webkit-animation: infinite-spinning 100s infinite;
        -moz-animation:    infinite-spinning 100s infinite;
        -o-animation:      infinite-spinning 100s infinite;    
        animation-delay: 0;
        animation-direction: reverse;

      }


      .cls-1, .cls-5, .cls-9 {
        fill: none;
      }

      .cls-2 {
        clip-path: url(#clip-path);
      }

      .cls-3 {
        fill: #383051;
        stroke: #fff;
      }

      .cls-3, .cls-5, .cls-9 {
        stroke-miterlimit: 10;
      }

      .cls-4 {
        fill: #fff;
      }

      .cls-5 {
        stroke-width: 39.44px;
        stroke: url(#radial-gradient);
        -webkit-animation: fader 6s infinite;
        -moz-animation:    fader 6s infinite;
        -o-animation:      fader 6s infinite;
        animation:         fader 6s infinite;
        animation-direction: alternate;
      }

      .cls-6 {
        fill: #4b3d6b;
      }

      .cls-7 {
        fill: #3cbfd0;
      }

      .cls-8 {
        fill: #61e9ff;
      }

      .cls-9 {
        stroke-width: 23.67px;
        stroke: url(#radial-gradient-2);
        -webkit-animation: fader-2 8s infinite;
        -moz-animation:    fader-2 8s infinite;
        -o-animation:      fader-2 8s infinite;
        animation:         fader-2 8s infinite;
        animation-direction: alternate;
      }

      .cls-10 {
        fill: #231f20;
        opacity: 0.1;
        isolation: isolate;
      }

      .star {
        -webkit-animation: fader-2 15s infinite;
        -moz-animation:    fader-2 15s infinite;
        -o-animation:      fader-2 15s infinite;
        animation:         fader-2 15s infinite;
        animation-direction: alternate;
      }

      .star-2 {
        -webkit-animation: fader-2 45s infinite;
        -moz-animation:    fader-2 45s infinite;
        -o-animation:      fader-2 45s infinite;
        animation:         fader-2 45s infinite;
        animation-direction: alternate;
      }

    </style>
    <clipPath id="clip-path" transform="translate(64.65 27.31)">
      <path class="cls-1 outline" d="M411.57,130.43l-12.51,38.75a63.45,63.45,0,0,0-.95,35.8l10.71,40.25a131.8,131.8,0,0,1-62.12,148.42l-8.31,4.74A134.3,134.3,0,0,1,187.57,386.2h0a63.44,63.44,0,0,0-56.89-11.76L91.8,385.26C46.42,397.9,3.54,358.28,12.54,312L30,222.2a63.44,63.44,0,0,0,1-16.6,63.44,63.44,0,0,0-4.43-19.19l-8.65-21.47C.43,121.49,34.44,74.71,81.17,78L138,81.91a63.45,63.45,0,0,0,60.57-33.8l2-3.84A63.42,63.42,0,0,1,301,28.3l1.42,1.32A63.45,63.45,0,0,0,348.9,47.54h0C392.9,46,425.09,88.54,411.57,130.43Z"/>
    </clipPath>
    <radialGradient id="radial-gradient" cx="280.57" cy="87.37" r="163.93" gradientTransform="matrix(1, 0, 0, -1, 0, 428)" gradientUnits="userSpaceOnUse">
      <stop offset="0" stop-color="#61e9ff"/>
      <stop offset="0.12" stop-color="#60e4fa"/>
      <stop offset="0.27" stop-color="#5dd5ec"/>
      <stop offset="0.43" stop-color="#57bdd5"/>
      <stop offset="0.61" stop-color="#509ab5"/>
      <stop offset="0.79" stop-color="#466e8c"/>
      <stop offset="0.97" stop-color="#3a395a"/>
      <stop offset="1" stop-color="#383051"/>
    </radialGradient>
    <radialGradient id="radial-gradient-2" cx="128.88" cy="264.05" r="41.93" gradientTransform="matrix(1, 0, 0, -1, 64.65, 455.31)" gradientUnits="userSpaceOnUse">
      <stop offset="0" stop-color="#fffefe"/>
      <stop offset="0.1" stop-color="#f4f3f5"/>
      <stop offset="0.28" stop-color="#d7d5db"/>
      <stop offset="0.52" stop-color="#a8a4b2"/>
      <stop offset="0.81" stop-color="#67617a"/>
      <stop offset="1" stop-color="#383051"/>
    </radialGradient>
  </defs>
  <title>spaceblob</title>
  <g id="Layer_1-2" data-name="Layer 1">
    <g class="cls-2">
      <g>
        <rect class="cls-3" x="0.5" y="0.5" width="533.79" height="495.4"/>
        <circle class="cls-4 star" cx="179.04" cy="208.73" r="3.36" transform="translate(-9.05 127.67) rotate(-26.17)"/>
        <circle class="cls-4 star-2" cx="98.76" cy="310.1" r="5.07" transform="translate(-61.99 102.65) rotate(-26.17)"/>
        <circle class="cls-4" cx="372.86" cy="167.03" r="3.89" transform="translate(29.21 208.88) rotate(-26.17)"/>
        <circle class="cls-4 star" cx="103.04" cy="249.85" r="1.49" transform="translate(-34.98 98.37) rotate(-26.17)"/>
        <circle class="cls-4" cx="65.95" cy="129.86" r="1.49" transform="translate(14.14 69.71) rotate(-26.17)"/>
        <circle class="cls-4 star" cx="198.49" cy="106.08" r="1.49" transform="translate(38.22 125.73) rotate(-26.17)"/>
        <circle class="cls-4 star-2" cx="60.41" cy="286.94" r="1.49" transform="translate(-55.71 83.37) rotate(-26.17)"/>
        <circle class="cls-4" cx="279.75" cy="152.4" r="1.49" transform="translate(26.11 166.31) rotate(-26.17)"/>
        <circle class="cls-4 star-2" cx="260.64" cy="49.08" r="1.49" transform="translate(69.73 147.29) rotate(-26.17)"/>
        <circle class="cls-4 star" cx="299.62" cy="125" r="1.49" transform="translate(40.24 172.26) rotate(-26.17)"/>
        <circle class="cls-4" cx="340.09" cy="76.79" r="1.49" transform="translate(65.65 185.17) rotate(-26.17)"/>
        <circle class="cls-4 star" cx="351.07" cy="124.19" r="2.83" transform="translate(45.87 194.88) rotate(-26.17)"/>
        <g class="planet-1">
          <path class="cls-5" d="M332.39,445.52a4.74,4.74,0,0,0,6.13,2.61L391,426.73a4.74,4.74,0,0,1,4.74.7,144.2,144.2,0,0,0-114.08-231h-1.1a143.83,143.83,0,0,0-107.61,48.24l-.2.08A144.23,144.23,0,0,0,228.59,475l.08.19a144.41,144.41,0,0,0,139.62-20.14,4.74,4.74,0,0,1,0-8.73l17.65-7.3a145,145,0,0,0,9.76-11.61,4.74,4.74,0,0,0-4.74-.7l-52.46,21.4a4.74,4.74,0,0,1-6.37-5.36A4.74,4.74,0,0,0,332.39,445.52Z" transform="translate(64.65 27.31)"/>
          <g>
            <g>
              <path class="cls-6" d="M257,207.85a4.61,4.61,0,0,0,2.77,8.76l34.89-14.22a4.61,4.61,0,1,1,3.87,8.36l-.42.17-48.19,19.72a4.61,4.61,0,0,0,4.57,7.9l29.91-12.06,21.37-8.88a4.61,4.61,0,0,1,3.45,8.53L287.89,235l-4.28,1.73a4.61,4.61,0,0,0,3,8.7l.42-.17,4.28-1.73,33.94-14a4.61,4.61,0,0,1,4.17,8.17L277.68,259a4.61,4.61,0,0,0,3,8.7l.42-.17,34.2-14a4.61,4.61,0,0,1,3.45,8.53l-47,19.33a4.61,4.61,0,0,0,3,8.7l.42-.17,29.93-12.05L326.56,269a4.61,4.61,0,1,1,3.87,8.36l-.42.17-21.35,8.9-4.28,1.72a4.61,4.61,0,0,0,3.45,8.53l4.28-1.73,33.95-14a4.61,4.61,0,0,1,4.17,8.17l-51.77,21.26a4.61,4.61,0,0,0,3,8.7l.42-.17,34.2-14a4.61,4.61,0,0,1,3.45,8.53l-46.94,19.27a4.61,4.61,0,0,0,3.45,8.53l51.3-20.86a4.61,4.61,0,1,1,3.87,8.36l-.42.17-21.35,8.9-4.28,1.72a4.61,4.61,0,0,0,3.45,8.53l4.28-1.73,35.33-13.58c2.36-.95,3.65-.28,4.61,2.08a4.61,4.61,0,0,1-1.83,5.63l-51.77,21.26a4.61,4.61,0,0,0,2.77,8.76l26.06-10.53a4.62,4.62,0,0,1,.81-.24l8-3.46a4.61,4.61,0,1,1,3.87,8.36l-.42.17L334,375.68l-.64.3-21.14,8.53a4.61,4.61,0,0,0,4.57,7.9l29.93-12.05,21.37-8.88A4.61,4.61,0,0,1,371.5,380l-21.35,8.9-4.28,1.73a4.61,4.61,0,0,0,3.45,8.53l4.28-1.73,33.94-14a4.61,4.61,0,0,1,4.17,8.17l-51.77,21.26a4.61,4.61,0,0,0,3,8.7l.42-.17,34.2-14a4.61,4.61,0,1,1,3.87,8.36l-.42.17-47,19.28a4.61,4.61,0,0,0,3.45,8.53l51.3-20.93a4.61,4.61,0,0,1,4.62.68A141,141,0,0,0,281.87,197.65Z" transform="translate(64.65 27.31)"/>
              <path class="cls-6" d="M200.66,393.75,154.51,275.93A141.12,141.12,0,0,0,218.27,465q5.8,2.87,11.84,5.21Z" transform="translate(64.65 27.31)"/>
            </g>
            <path class="cls-7" d="M388.79,422.85l-51.27,20.93a4.61,4.61,0,0,1-3.45-8.53l47-19.28a4.61,4.61,0,0,0-3-8.7l-.42.17-34.2,14a4.61,4.61,0,1,1-3.87-8.36l.42-.17,51.77-21.26a4.61,4.61,0,0,0-4.17-8.17l-33.94,14-4.28,1.73a4.61,4.61,0,0,1-3.45-8.53l25.6-10.63a4.61,4.61,0,0,0-3.45-8.53l-51.3,20.87a4.61,4.61,0,0,1-4.57-7.9l48.19-19.72a4.61,4.61,0,0,0-3-8.7l-.42.17L322,370.49a4.61,4.61,0,0,1-2.77-8.76L371,340.47a4.61,4.61,0,0,0-4.17-8.17l-33.93,14-4.28,1.73a4.61,4.61,0,0,1-3.45-8.53l25.6-10.64a4.61,4.61,0,0,0-3-8.7l-.42.17-51.27,20.86a4.61,4.61,0,0,1-3.45-8.53l46.94-19.27a4.61,4.61,0,0,0-3.45-8.53l-34.2,14a4.61,4.61,0,1,1-3.87-8.36l.42-.17,51.77-21.26a4.61,4.61,0,0,0-4.17-8.17L312.11,295l-4.28,1.73a4.61,4.61,0,0,1-3.45-8.53L330,277.54a4.61,4.61,0,0,0-3-8.7l-.42.17-21.37,8.88-29.93,12.05a4.61,4.61,0,1,1-3.87-8.36l.42-.17,47-19.28a4.61,4.61,0,0,0-3.45-8.53l-34.2,14a4.61,4.61,0,1,1-3.87-8.36l.42-.17,51.77-21.26a4.61,4.61,0,0,0-4.17-8.17l-33.94,14-4.28,1.73a4.61,4.61,0,1,1-3.87-8.36l.42-.17,4.28-1.73,21.35-8.9a4.61,4.61,0,0,0-3.45-8.53l-21.36,8.77-29.93,12.05a4.61,4.61,0,0,1-4.57-7.9l48.19-19.72a4.61,4.61,0,0,0-3-8.7l-.42.17L259.77,216.6a4.61,4.61,0,0,1-2.77-8.76l24.85-10.2h-1.07a141,141,0,0,0-126.26,78.29l46.2,117.83,29.39,76.51a141.22,141.22,0,0,0,136.54-19.69,4.61,4.61,0,0,1,0-8.53l17.26-7.14a141.75,141.75,0,0,0,9.54-11.38A4.61,4.61,0,0,0,388.79,422.85Z" transform="translate(64.65 27.31)"/>
            <g>
              <path class="cls-8" d="M282.1,479.51a4.61,4.61,0,0,1-.95-8.8l25.6-10.63a4.61,4.61,0,0,0-3-8.7l-.42.17-21.37,8.88L252,472.48a4.61,4.61,0,0,1-3.45-8.53l47-19.28a4.61,4.61,0,0,0-3.45-8.53l-34.2,14a4.61,4.61,0,0,1-3.87-8.36l.42-.17,51.79-21.32a4.61,4.61,0,0,0-4.17-8.17l-33.89,14.05-4.28,1.73a4.61,4.61,0,1,1-3.87-8.36l.42-.17L286,408.74a4.61,4.61,0,0,0-3.45-8.53l-51.27,20.89a4.61,4.61,0,0,1-4.57-7.9l48.19-19.71a4.61,4.61,0,0,0-3-8.7l-.42.17-8,3.46a4.62,4.62,0,0,0-.81.24l-26.06,10.53a4.61,4.61,0,0,1-2.77-8.76l51.77-21.26a4.61,4.61,0,0,0-4.17-8.17l-38.2,15.78a4.61,4.61,0,0,1-3.45-8.53l25.6-10.63a4.61,4.61,0,0,0-3-8.7l-.42.17-21.37,8.88-29.9,12a4.61,4.61,0,0,1-3.45-8.53l46.94-19.25a4.61,4.61,0,0,0-3.45-8.53l-34.2,14a4.61,4.61,0,0,1-3.87-8.36l.42-.17,51.77-21.26a4.61,4.61,0,0,0-4.17-8.17l-38.2,15.78a4.61,4.61,0,0,1-3.45-8.53l25.6-10.63a4.61,4.61,0,0,0-3-8.7l-.42.17-51.3,20.93a4.61,4.61,0,0,1-3.87-8.36l.42-.17,39-15.74.2-.13,7.84-3.4a4.61,4.61,0,0,0-3.45-8.53l-34.2,14a4.61,4.61,0,0,1-3.87-8.36l.42-.17L244,266.56a4.61,4.61,0,0,0-4.17-8.17l-38.2,15.78a4.61,4.61,0,0,1-3.45-8.53L223.81,255a4.61,4.61,0,0,0-3-8.7l-.42.17L199,255.34l-29.9,11.91a4.61,4.61,0,0,1-4.57-7.9l21.14-8.53c.22-.09.44-.2.64-.3l26.41-10.9a4.61,4.61,0,0,0-3-8.7l-.42.17-33.88,13.81A141,141,0,0,0,280.82,479.52h1.28Z" transform="translate(64.65 27.31)"/>
              <path class="cls-8" d="M223.37,215.28a4.57,4.57,0,0,0,1.52-6.25,140.92,140.92,0,0,0-30.75,18.25Z" transform="translate(64.65 27.31)"/>
            </g>
          </g>
        </g>
        <g class="planet-2">
          <circle class="cls-9" cx="193.54" cy="191.26" r="30.1"/>
          <g>
            <circle class="cls-4" cx="193.54" cy="191.26" r="30.55"/>
            <path class="cls-8" d="M74.67,180.18c-5.63,0-10.27-.66-10.75-2.79-.77-3.32,9.16-7.91,17.63-11.18,11.83-4.56,27.88-9.28,45.17-13.28s33.78-6.83,46.46-7.93c9-.79,20-1,20.74,2.29s-9.16,7.91-17.63,11.18c-11.83,4.56-27.88,9.28-45.17,13.28s-33.78,6.83-46.46,7.93C81.38,180,77.86,180.18,74.67,180.18ZM183.15,145c-2.61,0-5.88.14-10,.5-12.61,1.1-29.07,3.92-46.34,7.92s-33.29,8.71-45.11,13.28c-16.34,6.3-17.53,9.49-17.29,10.53s2.71,3.39,20.16,1.9c12.61-1.1,29.07-3.92,46.34-7.92S164.22,162.53,176,158c16.35-6.31,17.53-9.48,17.29-10.54C193.15,146.58,191.66,145,183.15,145ZM79.8,178.52c-5.12,0-9.33-.61-9.79-2.54-.7-3,8.3-7.19,16-10.15a320.84,320.84,0,0,1,40.92-12,319.39,319.39,0,0,1,42-7.18c8.19-.72,18.11-.95,18.81,2.09h0c.7,3-8.3,7.19-16,10.15a320.84,320.84,0,0,1-40.92,12,319.39,319.39,0,0,1-42,7.18C85.86,178.33,82.69,178.52,79.8,178.52Zm98.09-31.81c-2.53,0-5.52.14-8.89.44a321.2,321.2,0,0,0-42,7.17,319.72,319.72,0,0,0-40.84,12c-10.26,4-16.12,7.51-15.64,9.48s7.28,2.63,18.23,1.67a321.2,321.2,0,0,0,42-7.17,319.72,319.72,0,0,0,40.84-12c10.26-4,16.12-7.51,15.64-9.48h0C186.9,147.44,183.55,146.71,177.89,146.71ZM84.46,177.05c-5.22,0-8.53-.7-8.91-2.32-1.13-4.86,25.32-14.05,51.54-20.12a290.44,290.44,0,0,1,38.07-6.5c7.43-.65,16.42-.84,17.07,1.9h0c.64,2.76-7.52,6.53-14.48,9.22a290.49,290.49,0,0,1-37.06,10.9C113.17,174.16,95,177,84.46,177Zm88.82-28.81c-2.29,0-5,.13-8.08.4a289.91,289.91,0,0,0-38,6.5c-31.59,7.32-51.94,16-51.13,19.47s22.9,2.32,54.48-5a289.89,289.89,0,0,0,37-10.88c9.27-3.57,14.56-6.79,14.15-8.59h0c-.28-1.28-3.31-1.93-8.41-1.93Zm-84.61,27.4c-4.74,0-7.78-.64-8.12-2.11-1-4.42,22.94-12.75,46.69-18.25a263.06,263.06,0,0,1,34.49-5.89c6.74-.59,14.9-.77,15.47,1.75h0c.58,2.51-6.82,5.95-13.13,8.38a263.07,263.07,0,0,1-33.56,9.87C114.69,173.07,98.19,175.65,88.67,175.65Zm80.45-26.09c-1.9,0-4.32.1-7.34.37a262.47,262.47,0,0,0-34.41,5.88c-28.59,6.64-47,14.45-46.28,17.6s20.72,2.08,49.31-4.54A262.47,262.47,0,0,0,163.88,159c12.43-4.8,12.93-7.14,12.8-7.75h0C176.57,150.79,175.65,149.56,169.12,149.56Z" transform="translate(64.65 27.31)"/>
            <path class="cls-4" d="M121.1,167.69l18.08-5.34,19.2-6.32a30.55,30.55,0,0,0-59.11,15.45Z" transform="translate(64.65 27.31)"/>
            <path class="cls-10" d="M129.68,180.69a39.68,39.68,0,0,1-25.86.47,30.55,30.55,0,0,0,51.71-32.44A39.83,39.83,0,0,1,129.68,180.69Z" transform="translate(64.65 27.31)"/>
          </g>
        </g>
      </g>
    </g>
  </g>
</svg>
