<svg id="Layer_1" data-name="Layer 1" xmlns="http://www.w3.org/2000/svg" xmlns:xlink="http://www.w3.org/1999/xlink" viewBox="0 0 585.35 579.67">
  <defs>
    <style>

           @keyframes infinite-spinning {
        from {
          transform: rotate(0deg);
        }
        to {
          transform: rotate(360deg);
        }
      }

      @keyframes infinite-spinning-2 {
        from {
          transform: rotate(-15deg);
        }
        to {
          transform: rotate(30deg);
        }
      }

      @-webkit-keyframes fader {
        from {
          opacity: 1.0;
        }
        to {
          opacity: 0.4;
        }
      }
      @-moz-keyframes fader {
        from {
          opacity: 1.0;
        }
        to {
          opacity: 0.4;
        }
      }
      @-o-keyframes fader {
        from {
          opacity: 1.0;
        }
        to {
          opacity: 0.4;
        }
      }
      @keyframes fader {
         from {
          opacity: 1.0;
        }
        to {
          opacity: 0.4;
        }
      }

      @-webkit-keyframes fader-2 {
        from {
          opacity: 1.0;
        }
        to {
          opacity: 0.6;
        }
      }
      @-moz-keyframes fader-2 {
        from {
          opacity: 1.0;
        }
        to {
          opacity: 0.6;
        }
      }
      @-o-keyframes fader-2 {
        from {
          opacity: 1.0;
        }
        to {
          opacity: 0.6;
        }
      }
      @keyframes fader-2 {
         from {
          opacity: 1.0;
        }
        to {
          opacity: 0.6;
        }
      }

      .planet-1 {
        -webkit-transform-origin: 50% 50%;
        -moz-transform-origin: 50% 50%;
        -o-transform-origin: 50% 50%;
        transform-origin: 50% 50%;
        animation: infinite-spinning 100s infinite;
        -webkit-animation: infinite-spinning 120s infinite;
        -moz-animation:    infinite-spinning 120s infinite;
        -o-animation:      infinite-spinning 120s infinite;
        animation-delay: 0;
      }

      .planet-2 {
        -webkit-transform-origin: 50% 50%;
        -moz-transform-origin: 50% 50%;
        -o-transform-origin: 50% 50%;
        transform-origin: 50% 50%;
        animation: infinite-spinning-2 35s infinite;
        -webkit-animation: infinite-spinning-2 35s infinite;
        -moz-animation:    infinite-spinning-2 35s infinite;
        -o-animation:      infinite-spinning-2 35s infinite;    
        animation-direction: alternate;  
        animation-delay: 0;
      }

      .outline {
        -webkit-transform-origin: 50% 50%;
        -moz-transform-origin: 50% 50%;
        -o-transform-origin: 50% 50%;
        transform-origin: 50% 50%;
        animation: infinite-spinning-2 35s infinite;
        -webkit-animation: infinite-spinning-2 35s infinite;
        -moz-animation:    infinite-spinning-2 35s infinite;
        -o-animation:      infinite-spinning-2 35s infinite;    
        animation-direction: alternate;  
        animation-delay: 0;
      }
      
      .cls-1, .cls-5, .cls-9 {
        fill: none;
      }

      .cls-2 {
        clip-path: url(#clip-path);
      }

      .cls-3 {
        fill: #383051;
        stroke: #fff;
      }

      .cls-3, .cls-5, .cls-9 {
        stroke-miterlimit: 10;
      }

      .cls-4 {
        fill: #fff;
      }

      .cls-5 {
        stroke-width: 39.44px;
        stroke: url(#radial-gradient);
      }

      .cls-6 {
        fill: #4b3d6b;
      }

      .cls-7 {
        fill: #3cbfd0;
      }

      .cls-8 {
        fill: #61e9ff;
      }

      .cls-9 {
        stroke-width: 23.67px;
        stroke: url(#radial-gradient-2);
      }

      .cls-10 {
        fill: #231f20;
        opacity: 0.1;
        isolation: isolate;
      }
    </style>
    <clipPath id="clip-path" transform="translate(80.11 59.49)">
      <path class="cls-1" d="M422.09,126.7,408.9,167.57a66.91,66.91,0,0,0-1,37.75l11.3,42.45A139,139,0,0,1,353.69,404.3l-8.76,5a141.63,141.63,0,0,1-159.07-12.86h0a66.91,66.91,0,0,0-60-12.4l-41,11.41C37,408.78-8.22,367,1.27,318.22l18.41-94.73A66.91,66.91,0,0,0,20.74,206a66.91,66.91,0,0,0-4.67-20.24L6.95,163.1c-18.45-45.83,17.42-95.16,66.7-91.73l59.94,4.16a66.91,66.91,0,0,0,63.88-35.65l2.13-4A66.88,66.88,0,0,1,305.5,19l1.5,1.39a66.91,66.91,0,0,0,49,18.9h0C402.4,37.63,436.35,82.53,422.09,126.7Z"/>
    </clipPath>
    <radialGradient id="radial-gradient" cx="283.94" cy="79.61" r="171.8" gradientTransform="matrix(1, 0, 0, -1, 0, 428)" gradientUnits="userSpaceOnUse">
      <stop offset="0" stop-color="#61e9ff"/>
      <stop offset="0.12" stop-color="#60e4fa"/>
      <stop offset="0.27" stop-color="#5dd5ec"/>
      <stop offset="0.43" stop-color="#57bdd5"/>
      <stop offset="0.61" stop-color="#509ab5"/>
      <stop offset="0.79" stop-color="#466e8c"/>
      <stop offset="0.97" stop-color="#3a395a"/>
      <stop offset="1" stop-color="#383051"/>
    </radialGradient>
    <radialGradient id="radial-gradient-2" cx="123.97" cy="265.95" r="43.58" gradientTransform="matrix(1, 0, 0, -1, 80.11, 487.49)" gradientUnits="userSpaceOnUse">
      <stop offset="0" stop-color="#fffefe"/>
      <stop offset="0.1" stop-color="#f4f3f5"/>
      <stop offset="0.28" stop-color="#d7d5db"/>
      <stop offset="0.52" stop-color="#a8a4b2"/>
      <stop offset="0.81" stop-color="#67617a"/>
      <stop offset="1" stop-color="#383051"/>
    </radialGradient>
  </defs>
  <title>spaceblob-3</title>
  <g id="Layer_1-2" data-name="Layer 1">
    <g class="cls-2">
      <g>
        <rect class="cls-3" x="0.5" y="0.5" width="584.35" height="542.32"/>
        <circle class="cls-4" cx="176.87" cy="209.28" r="3.54" transform="translate(5.94 158.95) rotate(-26.17)"/>
        <circle class="cls-4" cx="92.2" cy="316.18" r="5.35" transform="translate(-49.89 132.56) rotate(-26.17)"/>
        <circle class="cls-4" cx="381.27" cy="165.3" r="4.1" transform="translate(46.29 244.59) rotate(-26.17)"/>
        <circle class="cls-4" cx="96.72" cy="252.64" r="1.57" transform="translate(-21.4 128.05) rotate(-26.17)"/>
        <circle class="cls-4" cx="57.6" cy="126.1" r="1.57" transform="translate(30.4 97.82) rotate(-26.17)"/>
        <circle class="cls-4" cx="197.38" cy="101.02" r="1.57" transform="translate(55.79 156.9) rotate(-26.17)"/>
        <circle class="cls-4" cx="51.76" cy="291.76" r="1.57" transform="translate(-43.26 112.23) rotate(-26.17)"/>
        <circle class="cls-4" cx="283.07" cy="149.88" r="1.57" transform="translate(43.03 199.7) rotate(-26.17)"/>
        <circle class="cls-4" cx="262.93" cy="40.91" r="1.57" transform="translate(89.02 179.64) rotate(-26.17)"/>
        <circle class="cls-4" cx="304.03" cy="120.98" r="1.57" transform="translate(57.92 205.98) rotate(-26.17)"/>
        <circle class="cls-4" cx="346.71" cy="70.13" r="1.57" transform="translate(84.72 219.59) rotate(-26.17)"/>
        <circle class="cls-4" cx="358.29" cy="120.13" r="2.98" transform="translate(63.86 229.82) rotate(-26.17)"/>
        <g>
          <path class="cls-5" d="M338.59,459a5,5,0,0,0,6.47,2.75l55.32-22.57a5,5,0,0,1,5,.74A152.08,152.08,0,0,0,285.07,196.31h-1.16a151.69,151.69,0,0,0-113.49,50.87l-.21.08a152.11,152.11,0,0,0,58.91,242.86l.08.2a152.3,152.3,0,0,0,147.25-21.24,5,5,0,0,1,0-9.21l18.61-7.7a152.88,152.88,0,0,0,10.29-12.24,5,5,0,0,0-5-.74L345,461.76a5,5,0,0,1-6.72-5.65A5,5,0,0,0,338.59,459Z" transform="translate(80.11 59.49)"/>
          <g>
            <g>
              <path class="cls-6" d="M259.1,208.35a4.86,4.86,0,0,0,2.92,9.24l36.8-15a4.86,4.86,0,1,1,4.08,8.82l-.44.18-50.82,20.8a4.86,4.86,0,0,0,4.82,8.33L288,228l22.54-9.36a4.86,4.86,0,0,1,3.64,9L291.66,237l-4.51,1.82a4.86,4.86,0,0,0,3.2,9.18l.44-.18L295.3,246l35.79-14.81a4.86,4.86,0,0,1,4.4,8.62l-54.6,22.42a4.86,4.86,0,0,0,3.2,9.18l.44-.18,36.07-14.78a4.86,4.86,0,0,1,3.64,9L274.7,285.87a4.86,4.86,0,0,0,3.2,9.18l.44-.18,31.56-12.71,22.54-9.36a4.86,4.86,0,1,1,4.08,8.82l-.44.18-22.52,9.39L309,293a4.86,4.86,0,0,0,3.64,9l4.51-1.82L353,285.42a4.86,4.86,0,0,1,4.4,8.62l-54.6,22.42a4.86,4.86,0,0,0,3.2,9.18l.44-.18,36.07-14.78a4.86,4.86,0,0,1,3.64,9L296.65,340a4.86,4.86,0,0,0,3.64,9l54.1-22a4.86,4.86,0,1,1,4.08,8.82L358,336l-22.52,9.39L331,347.2a4.86,4.86,0,0,0,3.64,9l4.51-1.82,37.26-14.32c2.49-1,3.85-.3,4.86,2.19a4.86,4.86,0,0,1-1.93,5.94l-54.6,22.42a4.86,4.86,0,0,0,2.92,9.24l27.48-11.1a4.87,4.87,0,0,1,.85-.25l8.47-3.65a4.86,4.86,0,1,1,4.08,8.82l-.44.18-27.85,11.5-.68.32-22.29,9A4.86,4.86,0,0,0,322.1,403l31.56-12.71,22.54-9.36a4.86,4.86,0,0,1,3.64,9l-22.52,9.39-4.51,1.82a4.86,4.86,0,0,0,3.64,9l4.51-1.82,35.79-14.81a4.86,4.86,0,0,1,4.4,8.62l-54.6,22.42a4.86,4.86,0,0,0,3.2,9.18l.44-.18,36.07-14.78a4.86,4.86,0,1,1,4.08,8.82l-.44.18L340.34,448.1a4.86,4.86,0,0,0,3.64,9L398.08,435a4.86,4.86,0,0,1,4.87.72A148.72,148.72,0,0,0,285.31,197.59Z" transform="translate(80.11 59.49)"/>
              <path class="cls-6" d="M199.67,404.4,151,280.15A148.83,148.83,0,0,0,218.24,479.6q6.11,3,12.49,5.49Z" transform="translate(80.11 59.49)"/>
            </g>
            <path class="cls-7" d="M398.07,435.09,344,457.16a4.86,4.86,0,0,1-3.64-9l49.56-20.33a4.86,4.86,0,0,0-3.2-9.18l-.44.18-36.07,14.78a4.86,4.86,0,1,1-4.08-8.82l.44-.18,54.6-22.42a4.86,4.86,0,0,0-4.4-8.62L361,408.38l-4.51,1.82a4.86,4.86,0,0,1-3.64-9l27-11.21a4.86,4.86,0,0,0-3.64-9l-54.1,22a4.86,4.86,0,0,1-4.82-8.33l50.82-20.8a4.86,4.86,0,0,0-3.2-9.18l-.44.18-36.8,15a4.86,4.86,0,0,1-2.92-9.24l54.6-22.42a4.86,4.86,0,0,0-4.4-8.62L339.15,354.4l-4.51,1.82a4.86,4.86,0,0,1-3.64-9L358,336a4.86,4.86,0,0,0-3.2-9.18l-.44.18-54.07,22a4.86,4.86,0,0,1-3.64-9l49.5-20.32a4.86,4.86,0,0,0-3.64-9l-36.07,14.78a4.86,4.86,0,1,1-4.08-8.82l.44-.18L357.4,294a4.86,4.86,0,0,0-4.4-8.62l-35.8,14.82-4.51,1.82a4.86,4.86,0,0,1-3.64-9l27-11.21a4.86,4.86,0,0,0-3.2-9.18l-.44.18-22.54,9.36-31.56,12.71a4.86,4.86,0,1,1-4.08-8.82l.44-.18,49.56-20.33a4.86,4.86,0,0,0-3.64-9l-36.07,14.78a4.86,4.86,0,1,1-4.08-8.82l.44-.18,54.6-22.42a4.86,4.86,0,0,0-4.4-8.62l-35.79,14.81L290.78,248a4.86,4.86,0,1,1-4.08-8.82l.44-.18,4.51-1.82,22.52-9.39a4.86,4.86,0,0,0-3.64-9L288,228l-31.56,12.71a4.86,4.86,0,0,1-4.82-8.33l50.82-20.8a4.86,4.86,0,0,0-3.2-9.18l-.44.18-36.8,15a4.86,4.86,0,0,1-2.92-9.24l26.21-10.76h-1.13A148.71,148.71,0,0,0,151,280.15l48.72,124.26,31,80.69a148.93,148.93,0,0,0,144-20.77,4.86,4.86,0,0,1,0-9l18.2-7.53a149.49,149.49,0,0,0,10.06-12A4.86,4.86,0,0,0,398.07,435.09Z" transform="translate(80.11 59.49)"/>
            <g>
              <path class="cls-8" d="M285.55,494.85a4.86,4.86,0,0,1-1-9.28l27-11.21a4.86,4.86,0,0,0-3.2-9.18l-.44.18-22.54,9.36-31.56,12.71a4.86,4.86,0,0,1-3.64-9l49.56-20.33a4.86,4.86,0,0,0-3.64-9L260,463.88a4.86,4.86,0,0,1-4.08-8.82l.44-.18L311,432.4a4.86,4.86,0,0,0-4.4-8.62L270.86,438.6l-4.51,1.82a4.86,4.86,0,1,1-4.08-8.82l.44-.18,27-11.21a4.86,4.86,0,0,0-3.64-9l-54.07,22a4.86,4.86,0,0,1-4.82-8.33L278,404.12a4.86,4.86,0,0,0-3.2-9.18l-.44.18-8.47,3.65a4.87,4.87,0,0,0-.85.25l-27.48,11.1a4.86,4.86,0,0,1-2.92-9.24l54.6-22.42a4.86,4.86,0,0,0-4.4-8.62l-40.29,16.64a4.86,4.86,0,0,1-3.64-9l27-11.21a4.86,4.86,0,0,0-3.2-9.18l-.44.18-22.54,9.36L210.2,379.3a4.86,4.86,0,0,1-3.64-9l49.5-20.3a4.86,4.86,0,0,0-3.64-9l-36.07,14.78a4.86,4.86,0,0,1-4.08-8.82l.44-.18,54.6-22.42a4.86,4.86,0,0,0-4.4-8.62l-40.29,16.64a4.86,4.86,0,0,1-3.64-9l27-11.21a4.86,4.86,0,0,0-3.2-9.18l-.44.18-54.1,22.07a4.86,4.86,0,0,1-4.08-8.82l.44-.18,41.08-16.6.21-.14,8.27-3.59a4.86,4.86,0,0,0-3.64-9l-36.07,14.78a4.86,4.86,0,0,1-4.08-8.82l.44-.18,54.6-22.42a4.86,4.86,0,0,0-4.4-8.62l-40.29,16.64a4.86,4.86,0,0,1-3.64-9l27-11.21a4.86,4.86,0,0,0-3.2-9.18l-.44.18-22.54,9.36L166.37,271a4.86,4.86,0,0,1-4.82-8.33l22.29-9c.23-.09.46-.21.68-.32l27.85-11.5a4.86,4.86,0,0,0-3.2-9.18l-.44.18L173,247.41A148.71,148.71,0,0,0,284.2,494.86h1.35Z" transform="translate(80.11 59.49)"/>
              <path class="cls-8" d="M223.62,216.19a4.82,4.82,0,0,0,1.6-6.59,148.62,148.62,0,0,0-32.43,19.25Z" transform="translate(80.11 59.49)"/>
            </g>
          </g>
        </g>
        <g>
          <circle class="cls-9" cx="204.08" cy="221.54" r="31.74"/>
          <g>
            <circle class="cls-4" cx="204.08" cy="221.54" r="32.22"/>
            <path class="cls-8" d="M66.79,179.17c-5.94,0-10.83-.7-11.34-2.94-.81-3.5,9.66-8.34,18.59-11.79,12.48-4.81,29.4-9.79,47.64-14s35.63-7.2,49-8.36c9.53-.83,21.06-1.09,21.87,2.41s-9.66,8.34-18.59,11.79c-12.48,4.81-29.4,9.79-47.64,14s-35.63,7.2-49,8.36C73.87,178.94,70.16,179.17,66.79,179.17ZM181.2,142.11c-2.75,0-6.2.15-10.53.53-13.3,1.16-30.66,4.13-48.87,8.35s-35.11,9.19-47.57,14C57,171.63,55.74,175,56,176.1s2.86,3.58,21.26,2c13.3-1.16,30.66-4.13,48.87-8.35s35.11-9.19,47.57-14c17.24-6.65,18.49-10,18.23-11.12C191.74,143.74,190.17,142.11,181.2,142.11Zm-109,35.31c-5.4,0-9.84-.64-10.32-2.68-.74-3.19,8.75-7.58,16.85-10.7,11.3-4.36,26.63-8.87,43.15-12.7s32.27-6.52,44.34-7.57c8.64-.76,19.1-1,19.84,2.2h0c.74,3.19-8.75,7.58-16.85,10.7-11.3,4.36-26.63,8.87-43.15,12.7s-32.27,6.52-44.34,7.57C78.6,177.22,75.25,177.42,72.2,177.42Zm103.45-33.55c-2.67,0-5.82.15-9.38.46-12,1.05-27.76,3.74-44.26,7.56s-31.79,8.32-43.07,12.67c-10.82,4.17-17,7.92-16.49,10s7.68,2.77,19.23,1.76c12-1.05,27.76-3.74,44.26-7.56s31.79-8.32,43.07-12.67c10.82-4.17,17-7.92,16.49-10h0C185.15,144.64,181.62,143.87,175.65,143.87Zm-98.53,32c-5.51,0-9-.74-9.4-2.45-1.19-5.13,26.7-14.82,54.35-21.22a306.3,306.3,0,0,1,40.15-6.86c7.84-.69,17.32-.89,18,2h0c.67,2.91-7.93,6.89-15.27,9.72a306.35,306.35,0,0,1-39.08,11.5c-18.47,4.26-37.68,7.27-48.75,7.27Zm93.67-30.38c-2.42,0-5.28.14-8.52.42a305.74,305.74,0,0,0-40.07,6.85c-33.31,7.72-54.78,16.85-53.92,20.53s24.15,2.45,57.46-5.27a305.72,305.72,0,0,0,39-11.47c9.78-3.77,15.36-7.16,14.92-9.06h0c-.3-1.35-3.49-2-8.87-2Zm-89.23,28.9c-5,0-8.2-.68-8.56-2.23-1.08-4.66,24.19-13.45,49.24-19.25a277.43,277.43,0,0,1,36.37-6.21c7.11-.62,15.71-.81,16.32,1.85h0c.61,2.65-7.19,6.27-13.85,8.84a277.44,277.44,0,0,1-35.39,10.41C109,171.67,91.6,174.39,81.56,174.39Zm84.84-27.51c-2,0-4.56.11-7.74.39a276.81,276.81,0,0,0-36.29,6.2c-30.15,7-49.58,15.24-48.81,18.56s21.85,2.19,52-4.79a276.8,276.8,0,0,0,35.32-10.39c13.11-5.06,13.64-7.53,13.5-8.17h0C174.26,148.18,173.29,146.88,166.4,146.88Z" transform="translate(80.11 59.49)"/>
            <path class="cls-4" d="M115.76,166l19.07-5.63,20.25-6.66A32.22,32.22,0,0,0,92.74,170Z" transform="translate(80.11 59.49)"/>
            <path class="cls-10" d="M124.81,179.71a41.85,41.85,0,0,1-27.27.5A32.22,32.22,0,0,0,152.07,146,42,42,0,0,1,124.81,179.71Z" transform="translate(80.11 59.49)"/>
          </g>
        </g>
      </g>
    </g>
  </g>
</svg>
