<?xml version="1.0" encoding="utf-8"?>
<!-- Generator: Adobe Illustrator 17.1.0, SVG Export Plug-In . SVG Version: 6.00 Build 0)  -->
<!DOCTYPE svg PUBLIC "-//W3C//DTD SVG 1.1//EN" "http://www.w3.org/Graphics/SVG/1.1/DTD/svg11.dtd">
<svg version="1.1" id="Layer_1" xmlns:sketch="http://www.bohemiancoding.com/sketch/ns"
	 xmlns="http://www.w3.org/2000/svg" xmlns:xlink="http://www.w3.org/1999/xlink" x="0px" y="0px" viewBox="0 0 32 32"
	 enable-background="new 0 0 32 32" xml:space="preserve">
<title>32notes</title>
<desc>Created with Sketch.</desc>
<g id="Page-1" sketch:type="MSPage">
	<g id="_x33_2notes" sketch:type="MSArtboardGroup">
		<path id="Left-" sketch:type="MSShapeGroup" fill="#FFFFFF" d="M10,4v14.4C9.4,18.2,8.7,18,8,18c-2.2,0-4,1.3-4,3s1.8,3,4,3
			s4-1.3,4-3v-4.5l12,3v2.9c-0.6-0.2-1.3-0.4-2-0.4c-2.2,0-4,1.3-4,3s1.8,3,4,3s4-1.3,4-3V8L10,4z M24,17.5l-12-3v-2l12,3V17.5z
			 M24,13.5l-12-3v-2l12,3V13.5z"/>
	</g>
</g>
</svg>
