<?xml version="1.0" encoding="utf-8"?>
<!-- Generator: Adobe Illustrator 17.1.0, SVG Export Plug-In . SVG Version: 6.00 Build 0)  -->
<!DOCTYPE svg PUBLIC "-//W3C//DTD SVG 1.1//EN" "http://www.w3.org/Graphics/SVG/1.1/DTD/svg11.dtd">
<svg version="1.1" id="Layer_1" xmlns:sketch="http://www.bohemiancoding.com/sketch/ns"
	 xmlns="http://www.w3.org/2000/svg" xmlns:xlink="http://www.w3.org/1999/xlink" x="0px" y="0px" viewBox="0 0 32 32"
	 enable-background="new 0 0 32 32" xml:space="preserve">
<title>fortissimo</title>
<desc>Created with Sketch.</desc>
<g id="Page-1" sketch:type="MSPage">
	<g id="fortissimo" sketch:alignment="middle" sketch:type="MSArtboardGroup">
		<g enable-background="new    ">
			<path fill="#FFFFFF" d="M12.7,11.9c0.1-0.7,0.4-1.3,0.7-1.9s0.7-1,1.1-1.3c0.4-0.4,0.8-0.6,1.3-0.8c0.5-0.2,1-0.3,1.4-0.3
				c0.5,0,0.9,0.1,1.3,0.2c0.4,0.1,0.7,0.3,0.9,0.5c0.4-0.4,0.8-0.7,1.3-0.9c0.5-0.2,0.9-0.3,1.4-0.3c0.5,0,0.8,0,1.2,0.1
				c0.3,0.1,0.6,0.2,0.7,0.3c-0.1,0.3-0.2,0.6-0.3,0.9c-0.1,0.3-0.1,0.7-0.2,1c-0.2,0.1-0.5,0.2-0.8,0.1c0-0.6-0.1-1-0.3-1.3
				C22.3,8.1,22,8,21.6,8C21.4,8,21.2,8,21,8.1c-0.2,0.1-0.3,0.3-0.5,0.6s-0.3,0.7-0.4,1.2c-0.1,0.5-0.3,1.2-0.5,2h1.8
				c0,0.1,0,0.3,0,0.4c0,0.1-0.1,0.2-0.1,0.3c-0.3,0-0.7,0-1,0c-0.3,0-0.6,0.1-0.8,0.1c-0.1,0.9-0.3,1.6-0.4,2.3
				c-0.1,0.6-0.2,1.2-0.3,1.6c-0.1,0.5-0.2,0.9-0.3,1.3c-0.1,0.4-0.2,0.7-0.3,1.1c-0.2,0.6-0.4,1.2-0.7,1.7
				c-0.3,0.6-0.7,1.1-1.1,1.5c-0.4,0.4-0.9,0.8-1.4,1.1c-0.5,0.3-1.1,0.4-1.6,0.4c-0.4,0-0.8-0.1-1-0.2c-0.3-0.1-0.5-0.3-0.7-0.5
				c-0.3,0.4-0.6,0.7-1,1c-0.4,0.2-0.7,0.4-1.2,0.4c-0.6,0-1.1-0.2-1.6-0.6c0-0.2,0-0.4,0-0.6c0-0.2,0.1-0.4,0.1-0.5
				c0.3,0.1,0.6,0.2,0.9,0.2S9.6,23,10,23c0.2,0,0.4,0,0.5-0.1c0.1-0.1,0.3-0.2,0.4-0.5c0.1-0.3,0.2-0.7,0.4-1.2
				c0.1-0.5,0.3-1.3,0.4-2.3c0.1-0.9,0.3-1.8,0.4-2.8c0.1-1,0.3-2.1,0.5-3.4c-0.2,0-0.4,0-0.6-0.1c-0.2,0-0.4,0-0.6,0
				c0-0.3,0.1-0.5,0.2-0.7H12.7z M16.5,20.1c0.1-0.5,0.2-0.9,0.3-1.4c0.1-0.5,0.2-1,0.3-1.5c0.1-0.6,0.2-1.2,0.3-1.9
				c0.1-0.7,0.2-1.6,0.4-2.6c-0.2,0-0.5,0-0.7-0.1c-0.3,0-0.5,0-0.9,0c-0.3,0-0.7,0-1,0c-0.3,0-0.6,0.1-0.9,0.1
				c-0.1,0.7-0.3,1.5-0.4,2.4s-0.3,1.8-0.5,2.7c-0.1,0.9-0.3,1.7-0.5,2.4c-0.2,0.7-0.5,1.4-0.7,2c0.4,0.2,0.9,0.3,1.4,0.3
				c0.4,0,0.8,0,1.1-0.1c0.3-0.1,0.6-0.2,0.8-0.4c0.2-0.2,0.4-0.4,0.6-0.7S16.3,20.6,16.5,20.1z M17.9,11.8c0.1-0.4,0.2-0.9,0.3-1.2
				c0.1-0.4,0.3-0.7,0.4-1c-0.2-0.3-0.4-0.6-0.7-0.8c-0.3-0.2-0.6-0.3-1-0.3c-0.6,0-1.1,0.3-1.5,0.9c-0.4,0.6-0.7,1.4-0.9,2.5h3.4
				L17.9,11.8z"/>
		</g>
	</g>
</g>
</svg>
