<?xml version="1.0" encoding="utf-8"?>
<!-- Generator: Adobe Illustrator 17.1.0, SVG Export Plug-In . SVG Version: 6.00 Build 0)  -->
<!DOCTYPE svg PUBLIC "-//W3C//DTD SVG 1.1//EN" "http://www.w3.org/Graphics/SVG/1.1/DTD/svg11.dtd">
<svg version="1.1" id="Layer_1" xmlns:sketch="http://www.bohemiancoding.com/sketch/ns"
	 xmlns="http://www.w3.org/2000/svg" xmlns:xlink="http://www.w3.org/1999/xlink" x="0px" y="0px" viewBox="0 0 32 32"
	 enable-background="new 0 0 32 32" xml:space="preserve">
<title>mezzoforte</title>
<desc>Created with Sketch.</desc>
<g id="Page-1" sketch:type="MSPage">
	<g id="mezzoforte" sketch:alignment="middle" sketch:type="MSArtboardGroup">
		<g enable-background="new    ">
			<path fill="#FFFFFF" d="M8,14.8c0.1-0.4,0.1-0.7,0.1-1c0-0.2,0-0.4-0.1-0.5c-0.1-0.1-0.2-0.2-0.3-0.2c-0.2,0-0.4,0-0.7,0
				c0,0,0-0.1,0-0.3c0-0.2,0-0.3,0.1-0.4c0.1,0,0.3,0,0.5-0.1C8,12.2,8.2,12.1,8.4,12s0.5-0.1,0.7-0.2s0.4-0.2,0.5-0.2
				c0.4,0.1,0.5,0.5,0.4,1.2c-0.1,0.5-0.2,0.9-0.3,1.3s-0.2,0.7-0.4,1h0l0.3-0.6c0.1-0.3,0.3-0.6,0.6-0.9s0.6-0.6,0.9-0.9
				c0.3-0.3,0.7-0.5,1-0.7c0.4-0.2,0.7-0.3,1-0.3c0.2,0,0.3,0,0.5,0.1c0.2,0.1,0.3,0.2,0.4,0.3s0.2,0.4,0.3,0.6c0.1,0.3,0.1,0.6,0,1
				c0,0.2-0.1,0.5-0.2,0.7S14.1,14.8,14,15h0l0.3-0.6c0.1-0.3,0.3-0.6,0.6-0.9s0.6-0.6,0.9-0.9c0.3-0.3,0.7-0.5,1.1-0.7
				s0.7-0.3,1-0.3c0.3,0,0.6,0.1,0.8,0.3c0.2,0.2,0.3,0.4,0.4,0.7c0.1,0.3,0.1,0.7,0.1,1.1c0,0.4-0.1,0.9-0.2,1.4l-0.5,2.1
				c-0.1,0.4-0.2,0.7-0.2,0.9c0,0.2-0.1,0.4-0.1,0.5c0,0.1,0,0.2,0.1,0.2c0.1,0,0.1,0.1,0.2,0.1c0.1,0,0.3,0,0.4-0.1
				s0.3-0.2,0.6-0.4c0.2,0.2,0.3,0.3,0.3,0.6c-0.3,0.3-0.6,0.6-1,0.8c-0.4,0.2-0.7,0.4-1.1,0.4c-0.3,0-0.6,0-0.8-0.1
				c-0.2-0.1-0.3-0.3-0.4-0.5c-0.1-0.2-0.1-0.5,0-0.9s0.1-0.8,0.2-1.4l0.5-2.1c0.1-0.5,0.2-0.8,0.2-1.1c0-0.3,0-0.5,0-0.7
				c0-0.2-0.1-0.3-0.2-0.4c-0.1-0.1-0.2-0.1-0.3-0.1c-0.2,0-0.4,0.1-0.7,0.3s-0.6,0.5-0.9,0.9c-0.3,0.4-0.6,0.9-0.9,1.5
				s-0.5,1.3-0.6,2.1L13.3,20h-1.6l0.8-4c0.1-0.7,0.2-1.2,0.3-1.6c0-0.4,0-0.7,0-0.9c0-0.2-0.1-0.4-0.2-0.4
				c-0.1-0.1-0.2-0.1-0.4-0.1c-0.2,0-0.4,0.1-0.7,0.3c-0.3,0.2-0.6,0.5-0.9,0.9c-0.3,0.4-0.6,0.9-0.9,1.5s-0.5,1.3-0.6,2L8.7,20H7
				L8,14.8z"/>
			<path fill="#FFFFFF" d="M22.6,11.8c0.1-0.8,0.3-1.5,0.6-2.1c0.3-0.6,0.6-1.1,1-1.5s0.8-0.7,1.2-0.9c0.4-0.2,0.9-0.3,1.4-0.3
				c0.5,0,0.8,0,1.2,0.1c0.3,0.1,0.6,0.2,0.7,0.3c-0.1,0.3-0.2,0.6-0.3,0.9c-0.1,0.3-0.1,0.7-0.2,1c-0.2,0.1-0.5,0.2-0.8,0.1
				c0-0.6-0.1-1-0.3-1.3C27,8.1,26.7,8,26.3,8c-0.2,0-0.4,0.1-0.6,0.2c-0.2,0.1-0.3,0.3-0.5,0.6C25.1,9,25,9.4,24.8,10
				c-0.1,0.5-0.3,1.2-0.5,2h1.8c0,0.1,0,0.3,0,0.4s-0.1,0.2-0.1,0.3c-0.3,0-0.7,0-1,0c-0.3,0-0.6,0.1-0.8,0.1
				c-0.2,1.2-0.4,2.2-0.5,3.1c-0.1,0.9-0.2,1.6-0.3,2c-0.2,1-0.4,1.8-0.6,2.7c-0.2,0.8-0.5,1.5-0.9,2.1c-0.3,0.6-0.7,1-1.1,1.4
				c-0.4,0.3-0.9,0.5-1.4,0.5c-0.6,0-1.1-0.2-1.6-0.6c0-0.2,0-0.4,0-0.6c0-0.2,0.1-0.4,0.1-0.5c0.3,0.1,0.6,0.2,0.9,0.2
				s0.7,0.1,1.1,0.1c0.2,0,0.4,0,0.5-0.1c0.2-0.1,0.3-0.2,0.4-0.5c0.1-0.3,0.2-0.7,0.4-1.2c0.1-0.5,0.3-1.3,0.4-2.3
				c0.1-0.9,0.3-1.8,0.4-2.8s0.3-2.1,0.5-3.4c-0.2,0-0.4,0-0.6-0.1c-0.2,0-0.4,0-0.6,0c0-0.3,0.1-0.5,0.2-0.7h1.2L22.6,11.8z"/>
		</g>
	</g>
</g>
</svg>
