<?xml version="1.0" encoding="utf-8"?>
<!-- Generator: Adobe Illustrator 17.1.0, SVG Export Plug-In . SVG Version: 6.00 Build 0)  -->
<!DOCTYPE svg PUBLIC "-//W3C//DTD SVG 1.1//EN" "http://www.w3.org/Graphics/SVG/1.1/DTD/svg11.dtd">
<svg version="1.1" id="Layer_1" xmlns:sketch="http://www.bohemiancoding.com/sketch/ns"
	 xmlns="http://www.w3.org/2000/svg" xmlns:xlink="http://www.w3.org/1999/xlink" x="0px" y="0px" viewBox="0 0 32 32"
	 enable-background="new 0 0 32 32" xml:space="preserve">
<title>mezzopiano</title>
<desc>Created with Sketch.</desc>
<g id="Page-1" sketch:type="MSPage">
	<g id="mezzopiano" sketch:alignment="middle" sketch:type="MSArtboardGroup">
		<g enable-background="new    ">
			<path fill="#FFFFFF" d="M6.5,14.8c0.1-0.4,0.1-0.7,0.1-1c0-0.2,0-0.4-0.1-0.5c-0.1-0.1-0.2-0.2-0.3-0.2c-0.2,0-0.4,0-0.7,0
				c0,0,0-0.1,0-0.3c0-0.2,0-0.3,0.1-0.4c0.1,0,0.3,0,0.5-0.1c0.2-0.1,0.5-0.1,0.7-0.2s0.5-0.1,0.7-0.2s0.4-0.2,0.5-0.2
				c0.4,0.1,0.5,0.5,0.4,1.2c-0.1,0.5-0.2,0.9-0.3,1.3s-0.2,0.7-0.4,1h0l0.3-0.6c0.1-0.3,0.3-0.6,0.6-0.9s0.6-0.6,0.9-0.9
				c0.3-0.3,0.7-0.5,1-0.7c0.4-0.2,0.7-0.3,1-0.3c0.2,0,0.3,0,0.5,0.1c0.2,0.1,0.3,0.2,0.4,0.3s0.2,0.4,0.3,0.6c0.1,0.3,0.1,0.6,0,1
				c0,0.2-0.1,0.5-0.2,0.7s-0.1,0.4-0.2,0.7h0l0.3-0.6c0.1-0.3,0.3-0.6,0.6-0.9s0.6-0.6,0.9-0.9c0.3-0.3,0.7-0.5,1.1-0.7
				s0.7-0.3,1-0.3c0.3,0,0.6,0.1,0.8,0.3c0.2,0.2,0.3,0.4,0.4,0.7c0.1,0.3,0.1,0.7,0.1,1.1c0,0.4-0.1,0.9-0.2,1.4l-0.5,2.1
				c-0.1,0.4-0.2,0.7-0.2,0.9c0,0.2-0.1,0.4-0.1,0.5c0,0.1,0,0.2,0.1,0.2s0.1,0.1,0.2,0.1c0.1,0,0.3,0,0.4-0.1
				c0.2-0.1,0.3-0.2,0.6-0.4c0.2,0.2,0.3,0.3,0.3,0.6c-0.3,0.3-0.6,0.6-1,0.8c-0.4,0.2-0.7,0.4-1.1,0.4c-0.3,0-0.6,0-0.8-0.1
				c-0.2-0.1-0.3-0.3-0.4-0.5c-0.1-0.2-0.1-0.5,0-0.9s0.1-0.8,0.2-1.4l0.5-2.1c0.1-0.5,0.2-0.8,0.2-1.1c0-0.3,0-0.5,0-0.7
				c0-0.2-0.1-0.3-0.2-0.4c-0.1-0.1-0.2-0.1-0.3-0.1c-0.2,0-0.4,0.1-0.7,0.3s-0.6,0.5-0.9,0.9c-0.3,0.4-0.6,0.9-0.9,1.5
				s-0.5,1.3-0.6,2.1L11.8,20h-1.6l0.8-4c0.1-0.7,0.2-1.2,0.3-1.6c0-0.4,0-0.7,0-0.9c0-0.2-0.1-0.4-0.2-0.4
				c-0.1-0.1-0.2-0.1-0.4-0.1c-0.2,0-0.4,0.1-0.7,0.3c-0.3,0.2-0.6,0.5-0.9,0.9c-0.3,0.4-0.6,0.9-0.9,1.5s-0.5,1.3-0.6,2L7.1,20H5.5
				L6.5,14.8z"/>
			<path fill="#FFFFFF" d="M21.9,14.9c0.1-0.4,0.3-0.7,0.6-1.1s0.5-0.7,0.8-1.1c0.3-0.3,0.6-0.6,1-0.8c0.4-0.2,0.7-0.3,1.1-0.3
				c0.6,0,1,0.3,1.3,0.9c0.3,0.6,0.2,1.6,0,2.9c-0.1,0.7-0.4,1.3-0.7,1.9s-0.7,1.1-1.1,1.5c-0.4,0.4-0.9,0.8-1.4,1
				c-0.5,0.2-1.1,0.4-1.7,0.4c-0.1,0-0.3,0-0.4,0c-0.1,0-0.3,0-0.4-0.1c0,0.2,0,0.5,0,0.8s-0.1,0.7-0.2,1.2l-0.4,2.4h-1.6l1.7-9.6
				c0.1-0.4,0.1-0.7,0.1-1c0-0.2,0-0.4-0.1-0.5c-0.1-0.1-0.2-0.2-0.3-0.2c-0.2,0-0.4,0-0.7,0c0-0.1,0-0.3,0-0.4c0-0.1,0-0.2,0.1-0.3
				c0.1,0,0.3,0,0.5-0.1c0.2-0.1,0.5-0.1,0.7-0.2c0.2-0.1,0.5-0.1,0.7-0.2c0.2-0.1,0.4-0.2,0.5-0.2c0.4,0.1,0.5,0.5,0.4,1.2
				c-0.1,0.4-0.1,0.7-0.2,1S22,14.5,21.9,14.9L21.9,14.9z M21.2,19c0.3,0.1,0.7,0.2,1.1,0.2c0.4,0,0.7-0.1,1-0.2
				c0.3-0.1,0.5-0.4,0.8-0.6c0.2-0.3,0.4-0.6,0.5-1c0.1-0.4,0.3-0.8,0.4-1.2c0.2-1,0.3-1.8,0.2-2.3C25,13.3,24.7,13,24.4,13
				c-0.2,0-0.4,0.1-0.6,0.3c-0.3,0.2-0.5,0.5-0.8,0.9c-0.3,0.4-0.6,0.9-0.8,1.5c-0.3,0.6-0.5,1.3-0.7,2L21.2,19z"/>
		</g>
	</g>
</g>
</svg>
