<?xml version="1.0" encoding="utf-8"?>
<!-- Generator: Adobe Illustrator 18.1.1, SVG Export Plug-In . SVG Version: 6.00 Build 0)  -->
<!DOCTYPE svg PUBLIC "-//W3C//DTD SVG 1.1//EN" "http://www.w3.org/Graphics/SVG/1.1/DTD/svg11.dtd">
<svg version="1.1" id="Layer_1" xmlns="http://www.w3.org/2000/svg" xmlns:xlink="http://www.w3.org/1999/xlink" x="0px" y="0px"
	 viewBox="0 0 197.9 61.5" enable-background="new 0 0 197.9 61.5" xml:space="preserve">
<g>
	<line fill="none" stroke="#FFFFFF" stroke-width="1.8087" x1="0.2" y1="44.8" x2="198" y2="44.8"/>
	<g>
		<path fill="#FFFFFF" d="M0,58.7l2-0.4C2.2,59.4,3.2,60,4.8,60c0.7,0,1.3-0.1,1.7-0.4c0.4-0.3,0.6-0.7,0.6-1.1
			c0-0.3-0.1-0.6-0.3-0.9c-0.2-0.3-0.6-0.5-1.1-0.6l-2.2-0.6c-0.8-0.2-1.3-0.4-1.7-0.7c-0.4-0.2-0.6-0.6-0.9-1.1
			c-0.2-0.5-0.3-0.9-0.3-1.5c0-1,0.4-1.8,1.1-2.5c0.8-0.6,1.7-0.9,2.9-0.9c1,0,1.9,0.2,2.6,0.6c0.8,0.4,1.3,1,1.5,1.8l-2,0.5
			c-0.3-0.9-1-1.3-2.1-1.3c-0.6,0-1.1,0.1-1.5,0.4c-0.3,0.3-0.5,0.6-0.5,1c0,0.7,0.5,1.1,1.6,1.4l1.9,0.5c1.2,0.3,2,0.7,2.4,1.3
			c0.4,0.6,0.6,1.2,0.6,1.9c0,1.1-0.4,2-1.3,2.7c-0.8,0.6-1.9,1-3.3,1c-1.1,0-2.1-0.2-3-0.7C0.8,60.5,0.3,59.7,0,58.7z"/>
		<path fill="#FFFFFF" d="M39.8,57.5l1.9,0.2c-0.1,1.1-0.6,2.1-1.3,2.8c-0.8,0.7-1.8,1.1-3,1.1c-1,0-1.9-0.3-2.5-0.8
			c-0.7-0.5-1.2-1.2-1.5-2.1c-0.4-0.9-0.5-1.9-0.5-3c0-1.7,0.4-3.2,1.2-4.3c0.8-1.1,2-1.6,3.4-1.6c1.1,0,2.1,0.3,2.8,1
			c0.8,0.7,1.2,1.7,1.4,3l-1.9,0.2c-0.4-1.7-1.1-2.6-2.3-2.6c-0.8,0-1.4,0.4-1.8,1.1c-0.4,0.7-0.6,1.8-0.6,3.1
			c0,1.4,0.2,2.4,0.7,3.1c0.5,0.7,1.1,1.1,1.8,1.1c0.6,0,1.1-0.2,1.5-0.7C39.5,58.8,39.8,58.2,39.8,57.5z"/>
		<path fill="#FFFFFF" d="M67.9,61.5h-2.1V50h2.1V61.5z"/>
		<path fill="#FFFFFF" d="M100.2,61.5h-7.4V50h7.4v1.7h-5.3v3.1h4.3v1.7h-4.3v3.2h5.4V61.5z"/>
		<path fill="#FFFFFF" d="M133.1,61.5h-2l-4.3-7.3c-0.1-0.1-0.2-0.3-0.3-0.5c-0.1-0.1-0.2-0.3-0.3-0.5v8.4h-1.7V50h2.3l4,6.7
			c0,0.1,0.3,0.5,0.7,1.2v-8h1.6V61.5z"/>
		<path fill="#FFFFFF" d="M164.4,57.5l1.9,0.2c-0.1,1.1-0.6,2.1-1.3,2.8c-0.8,0.7-1.8,1.1-3,1.1c-1,0-1.9-0.3-2.5-0.8
			c-0.7-0.5-1.2-1.2-1.5-2.1c-0.4-0.9-0.5-1.9-0.5-3c0-1.7,0.4-3.2,1.2-4.3c0.8-1.1,2-1.6,3.4-1.6c1.1,0,2.1,0.3,2.8,1
			c0.8,0.7,1.2,1.7,1.4,3l-1.9,0.2c-0.4-1.7-1.1-2.6-2.3-2.6c-0.8,0-1.4,0.4-1.8,1.1c-0.4,0.7-0.6,1.8-0.6,3.1
			c0,1.4,0.2,2.4,0.7,3.1c0.5,0.7,1.1,1.1,1.8,1.1c0.6,0,1.1-0.2,1.5-0.7C164.1,58.8,164.3,58.2,164.4,57.5z"/>
		<path fill="#FFFFFF" d="M197.9,61.5h-7.4V50h7.4v1.7h-5.3v3.1h4.3v1.7h-4.3v3.2h5.4V61.5z"/>
	</g>
	<g>
		<path fill="#FFFFFF" d="M12.8,3.8h4c5.7,0,8.7,2.6,8.7,7.4c0,5.3-2.9,7.9-8.8,7.9h-3.9V3.8z M0.2,0v2.9h1.1c3.3,0,4.2,1.4,4.2,4.9
			v24.3c0,3.6-0.9,4.9-4.2,4.9H0.2v2.9c3-0.1,5.9-0.1,8.9-0.1s6,0,9,0.1V37h-1c-3.4,0-4.3-1.3-4.3-4.9v-9.5h5.3
			c9.7,0,14.4-3.4,14.4-11.2C32.5,3.5,27.4,0,16.9,0H0.2z"/>
		<path fill="#FFFFFF" d="M41.7,8.1C44,8.1,46.3,8,48.5,8v2.3h-0.9c-2.9,0-3.4,1-3.4,4v14.1c0,5.9,1.8,8.6,7.4,8.6
			c5.5,0,7.3-2.7,7.3-8.5v-14c0-3.1-0.6-4.1-3.6-4.1h-0.8V8C56.8,8,58.9,8.1,61,8.1c2.1,0,4.2-0.1,6.2-0.1v2.3h-0.9
			c-2.2,0-2.9,1.2-2.9,4v13.9c0,8.6-3.5,12.5-12.3,12.5c-8.3,0-12.6-4-12.6-11.8V14.2c0-2.7-0.6-4-2.9-4h-0.8V8
			C37.2,8,39.5,8.1,41.7,8.1z"/>
		<path fill="#FFFFFF" d="M80.2,11h3.3c4.9,0,7.1,1.8,7.1,6c0,4.1-2.5,5.6-7.8,5.6h-2.6V11z M70.2,8v2.3H71c2.7,0,3.4,1.1,3.4,4
			v19.4c0,2.9-0.7,4-3.4,4h-0.8v2.3c2.4-0.1,4.7-0.1,7.1-0.1c2.4,0,4.8,0,7.2,0.1v-2.3h-0.9c-2.7,0-3.4-1-3.4-4v-8.2h2.9
			c4.3,0,5.3,1.2,6.5,4.7c0.6,1.7,0.9,5.2,2.6,9.8h8.6v-2.3c-0.2,0-0.4,0-0.5,0c-2.7,0-3.5-1.6-4.4-5.2c-1.2-5-1.6-7.9-5.6-8.5
			c3.7-1,5.8-3.7,5.8-7.4c0-6-4.1-8.5-12.6-8.5H70.2z"/>
		<path fill="#FFFFFF" d="M112.7,11h3.6c8.8,0,13,3.9,13,12.5c0,9.1-4.1,13.3-12.7,13.3h-3.9V11z M102.6,8v2.3h0.8
			c2.6,0,3.4,1.1,3.4,4v19.4c0,2.9-0.8,4-3.4,4h-0.8v2.3h15.2c11.8,0,17.6-5.3,17.6-16.3C135.4,13,129.4,8,117,8H102.6z"/>
		<path fill="#FFFFFF" d="M143.6,8.1c2.3,0,4.5-0.1,6.8-0.1v2.3h-0.9c-2.9,0-3.4,1-3.4,4v14.1c0,5.9,1.8,8.6,7.4,8.6
			c5.5,0,7.3-2.7,7.3-8.5v-14c0-3.1-0.6-4.1-3.6-4.1h-0.8V8c2.2,0.1,4.4,0.1,6.5,0.1c2.1,0,4.2-0.1,6.2-0.1v2.3h-0.9
			c-2.2,0-2.9,1.2-2.9,4v13.9c0,8.6-3.5,12.5-12.3,12.5c-8.3,0-12.6-4-12.6-11.8V14.2c0-2.7-0.6-4-2.9-4h-0.8V8
			C139,8,141.3,8.1,143.6,8.1z"/>
		<path fill="#FFFFFF" d="M197.5,8.1v8.3h-2.6c0-0.3,0-0.6,0-0.8c0-4.1-1.1-4.4-5.3-4.4H182V22h2.4c4,0,4.8-0.3,4.8-4.3h2.4v11.3
			h-2.3c-0.1-3.9-1-4.3-4.8-4.3H182v11.9h7.3c4.9,0,5.7-0.6,5.8-6.3h2.6v9.5h-26v-2.3h1.1c2.8,0,3.4-1.1,3.4-4V14.2
			c0-2.9-0.7-4-3.4-4H172V8.1H197.5z"/>
	</g>
</g>
</svg>
