<?xml version="1.0" encoding="utf-8"?>
<!-- Generator: Adobe Illustrator 18.1.1, SVG Export Plug-In . SVG Version: 6.00 Build 0)  -->
<!DOCTYPE svg PUBLIC "-//W3C//DTD SVG 1.1//EN" "http://www.w3.org/Graphics/SVG/1.1/DTD/svg11.dtd">
<svg version="1.1" id="Layer_1" xmlns="http://www.w3.org/2000/svg" xmlns:xlink="http://www.w3.org/1999/xlink" x="0px" y="0px"
	 viewBox="15.4 31.9 960 340.4" enable-background="new 15.4 31.9 960 340.4" xml:space="preserve">
<g>
	<g>
		<path fill="#000000" d="M91.7,257.8c0,13.5-3.7,24.5-10.9,32.8c-7.2,8.3-16.4,12.7-27.1,12.7c-10.9,0-19.9-4.3-27.1-12.7
			c-7.5-8.3-11.2-19.3-11.2-32.8V77.4c0-13.5,3.7-24.5,10.9-32.8s16.4-12.7,27.1-12.7c10.9,0,19.9,4.3,27.1,12.7
			c7.2,8.3,10.9,19.3,10.9,32.8v54.4H61.5v-57c0-3.2-0.6-5.8-2-7.2c-1.4-1.4-3.5-2.3-6-2.3c-2.6,0-4.6,0.9-6,2.3c-1.4,1.4-2,4-2,7.2
			v185.3c0,3.2,0.6,5.5,2,7.2c1.4,1.7,3.5,2.6,6,2.6c2.6,0,4.6-0.9,6-2.6c1.4-1.7,2-4,2-7.2v-56.4h30.2
			C91.7,203.7,91.7,257.8,91.7,257.8z"/>
		<path fill="#000000" d="M182.9,257.8c0,6.6-1.2,12.7-3.2,18.4c-2,5.8-4.9,10.4-8.3,14.4c-3.5,4-7.8,7.2-12.7,9.2
			c-4.9,2.3-10.1,3.2-15.3,3.2s-10.4-1.2-15.3-3.2c-4.9-2.3-8.9-5.2-12.7-9.2c-3.5-4-6.3-8.6-8.3-14.4c-2-5.8-3.2-11.8-3.2-18.4
			V77.4c0-6.6,1.2-12.7,3.2-18.4c2-5.8,4.9-10.4,8.3-14.4s7.8-7.2,12.7-9.2c4.9-2.3,10.1-3.5,15.3-3.5s10.4,1.2,15.3,3.2
			c4.9,2.3,8.9,5.2,12.7,9.2c3.5,4,6.3,8.6,8.3,14.4s3.2,11.8,3.2,18.4V257.8z M151.5,74.8c0-3.2-0.6-5.8-2-7.2
			c-1.4-1.4-3.5-2.3-6-2.3s-4.6,0.9-6,2.3c-1.4,1.4-2,4-2,7.2v185.3c0,3.2,0.6,5.5,2,7.2c1.4,1.7,3.5,2.6,6,2.6s4.6-0.9,6-2.6
			c1.4-1.7,2-4,2-7.2V74.8z"/>
		<path fill="#000000" d="M289.4,299.8v-185l-23,185.3h-21.6l-20.7-185.6v185.6h-27.3V35.3h45.5L259.5,185l21.9-149.6h39.4v264.7
			h-31.4V299.8z"/>
		<path fill="#000000" d="M410,148.1c0,8.3-1.2,15.3-3.2,20.4c-2.3,5.2-4.9,9.5-8.3,12.7c-3.5,3.2-7.2,5.2-11.5,6.3
			c-4,1.2-8.1,1.7-12.1,1.7h-8.9v110.5h-31.1V35.1h40c4,0,8.1,0.6,12.1,1.7c4,1.2,7.8,3.5,11.5,6.3c3.2,3.2,6,7.2,8.3,12.7
			c2.3,5.5,3.2,12.4,3.2,20.7V148.1z M379.5,77.6c0-3.5-0.6-6-1.4-8.1c-0.9-1.7-2.3-2.6-4.3-2.6h-8.1v90.6h8.1c2,0,3.5-0.9,4.3-2.6
			s1.4-4.3,1.4-8.1V77.6z"/>
		<path fill="#000000" d="M495.7,257.8c0,13.5-3.5,24.5-10.1,32.8c-6.6,8.3-15.5,12.7-26.2,12.7c-10.9,0-19.9-4.3-26.8-12.7
			c-7.2-8.3-10.6-19.3-10.6-32.8V35.1h29.4v225c0,3.2,0.6,5.5,2,7.2s3.5,2.6,6,2.6c2.9,0,4.9-0.9,6.3-2.6s2-4,2-7.2v-225H496v222.7
			H495.7z"/>
		<path fill="#000000" d="M558.4,69.9v229.9h-30.8V69.9h-22.2V35.1h73.4v34.8C578.9,69.9,558.4,69.9,558.4,69.9z"/>
		<path fill="#000000" d="M589.5,299.8V35.1h64.2v31.7h-33.4v80.9h22.4v31.7h-22.4v88.6h33.4v31.7h-64.2V299.8z"/>
		<path fill="#000000" d="M714.4,299.8c-1.2-5.8-2-12.4-2.9-19.6c-0.9-7.2-1.2-14.4-1.2-21.6v-61.9c0-3.2-0.6-5.8-1.7-7.5
			c-1.2-2-2.9-2.9-5.2-2.9h-7.2v114h-31.1V35.6h40c4,0,8.1,0.6,12.1,1.7c4,1.2,7.8,3.5,11.5,6.3c3.2,3.2,6,7.2,8.3,12.7
			s3.2,12.4,3.2,20.7v67.6c0,6.3-1.4,11.8-4,15.8c-2.6,4.3-6,8.1-10.4,11.5c4.3,3.5,7.8,7.5,10.6,11.5c2.9,4.3,4.3,9.5,4.3,15.8
			v56.1c0,8.3,0.6,16.4,1.4,23.6c0.9,7.5,2,14.4,2.9,20.7H714.4z M709.8,77.6c0-3.5-0.6-6-1.4-8.1c-0.9-1.7-2.3-2.6-4.3-2.6H696
			v88.9h8.1c2,0,3.5-0.9,4.3-2.6s1.4-4.3,1.4-8.1V77.6z"/>
	</g>
	<g>
		<path fill="#000000" d="M962.2,326.6c4,2,7.2,4.3,9.2,6.9c2,2.6,3.2,5.5,3.5,8.1c0.3,2.9,0.6,4.9,0.6,6c0,3.7-0.9,6.9-2.6,9.8
			c-1.7,2.9-4,5.2-6.9,7.2s-6.3,3.5-10.4,4.3c-4,1.2-8.1,1.4-12.7,1.4h-19.3v-15.8h25.3c2.3,0,4.6-0.6,6.3-2c2-1.4,2.9-2.9,2.9-4.9
			c0-1.7-0.9-3.2-2.3-4.3c-1.7-1.2-4-1.7-6.9-1.7c-4.6,0-8.9,0-12.9,0.3c-4,0.3-8.1,0.6-12.4,1.4c-4,0.9-8.6,1.7-12.9,3.2
			c-4.6,1.4-9.8,3.2-15.3,5.2c-4.3,1.7-9.5,3.5-15.3,5.8c-5.8,2-11.5,4.3-17.6,6c-6,2-12.1,3.5-18.4,4.9c-6.3,1.4-12.1,2-17.8,2
			c-9.5,0-17.3-2-23.3-5.8c-6-3.7-9.2-10.1-9.2-19c0-3.2,0.9-6,2.6-8.6c1.7-2.6,4-5.2,6.9-6.9c2.9-2,6.3-3.5,10.4-4.6
			c4-1.2,8.1-1.7,12.7-1.7h22.7v16.4h-28.2c-2.6,0-4.6,0.9-6,2.3c-1.4,1.4-2,2.9-2,4c0,1.4,0.6,2.6,2,4c1.4,1.4,3.5,2,6,2
			c6.6,0,12.1-0.3,16.1-0.6c4-0.6,8.1-1.2,11.5-2.3c3.5-0.9,7.2-2,11.2-3.7c3.7-1.7,8.9-3.5,15-5.8c12.4-4.6,24.5-8.3,36-11.5
			c11.5-3.2,23-4.9,34.5-4.9C952.4,323.4,958.2,324.5,962.2,326.6z"/>
		<path fill="#000000" d="M967.7,275.6c5.2,4.3,7.8,9.8,7.8,16.1c0,6.3-2.6,11.8-7.8,15.8c-5.2,4.3-12.4,6.3-21.3,6.3H823.2
			c-8.9,0-16.1-2-21.3-6.3c-5.2-4.3-7.8-9.5-7.8-15.8c0-6.3,2.6-11.8,7.8-16.1c5.2-4.3,12.4-6.6,21.3-6.6h36.3v17.3h-39.1
			c-2.3,0-4,0.6-5.2,1.4c-1.2,0.9-1.7,2.3-1.7,4c0,1.7,0.6,3.2,1.7,4c1.2,0.9,2.9,1.4,5.2,1.4h128.6c2.3,0,4-0.6,5.2-1.4
			c1.2-0.9,1.7-2.3,1.7-4c0-1.7-0.6-3.2-1.7-4c-1.2-0.9-2.9-1.4-5.2-1.4h-39.1V269h36.3C955.3,269,962.2,271.3,967.7,275.6z"/>
		<path fill="#000000" d="M973.1,258.4H795.9v-17.8h177.3V258.4z"/>
		<path fill="#000000" d="M973.1,230.2H795.9v-37.7h19.6v20.4H873v-14.1h18.4v14.1h63.3v-20.4h18.4L973.1,230.2L973.1,230.2z"/>
		<path fill="#000000" d="M973.1,148.1l-97.8,22.2h97.8V185H795.9v-15.8l99.6-19h-99.6v-14.1h177.3V148.1z"/>
		<path fill="#000000" d="M967.7,88.3c5.2,4.3,7.8,9.8,7.8,16.1c0,6.3-2.6,11.8-7.8,15.8c-5.2,4.3-12.4,6.3-21.3,6.3H823.2
			c-8.9,0-16.1-2-21.3-6.3c-5.2-4.3-7.8-9.5-7.8-15.8c0-6.3,2.6-11.8,7.8-16.1c5.2-4.3,12.4-6.6,21.3-6.6h36.3v17.3h-39.1
			c-2.3,0-4,0.6-5.2,1.4c-1.2,0.9-1.7,2.3-1.7,4c0,1.7,0.6,3.2,1.7,4c1.2,0.9,2.9,1.4,5.2,1.4h128.6c2.3,0,4-0.6,5.2-1.4
			c1.2-0.9,1.7-2.3,1.7-4c0-1.7-0.6-3.2-1.7-4c-1.2-0.9-2.9-1.4-5.2-1.4h-39.1V81.7h36.3C955.3,81.7,962.2,84,967.7,88.3z"/>
		<path fill="#000000" d="M973.1,71.9H795.9V34.2h19.6v20.4H873V40.5h18.4v14.1h63.3V34.2h18.4L973.1,71.9L973.1,71.9z"/>
	</g>
	<circle fill="#000000" cx="723.6" cy="347.3" r="25"/>
	<circle fill="#000000" cx="656" cy="347.3" r="25"/>
	<circle fill="#000000" cx="588.4" cy="347.3" r="25"/>
</g>
</svg>
