<?xml version="1.0" encoding="utf-8"?>
<!-- Generator: Adobe Illustrator 18.1.0, SVG Export Plug-In . SVG Version: 6.00 Build 0)  -->
<!DOCTYPE svg PUBLIC "-//W3C//DTD SVG 1.1//EN" "http://www.w3.org/Graphics/SVG/1.1/DTD/svg11.dtd">
<svg version="1.1" id="Layer_1" xmlns="http://www.w3.org/2000/svg" xmlns:xlink="http://www.w3.org/1999/xlink" x="0px" y="0px"
	 viewBox="0 0 333.6 118.3" enable-background="new 0 0 333.6 118.3" xml:space="preserve">
<g>
	<g>
		<path d="M26.5,78.5c0,4.7-1.3,8.5-3.8,11.4c-2.5,2.9-5.7,4.4-9.4,4.4c-3.8,0-6.9-1.5-9.4-4.4C1.3,87,0,83.2,0,78.5V15.8
			c0-4.7,1.3-8.5,3.8-11.4C6.3,1.5,9.5,0,13.2,0c3.8,0,6.9,1.5,9.4,4.4c2.5,2.9,3.8,6.7,3.8,11.4v18.9H16V14.9c0-1.1-0.2-2-0.7-2.5
			c-0.5-0.5-1.2-0.8-2.1-0.8s-1.6,0.3-2.1,0.8c-0.5,0.5-0.7,1.4-0.7,2.5v64.4c0,1.1,0.2,1.9,0.7,2.5c0.5,0.6,1.2,0.9,2.1,0.9
			s1.6-0.3,2.1-0.9c0.5-0.6,0.7-1.4,0.7-2.5V59.7h10.5V78.5z"/>
		<path d="M58.2,78.5c0,2.3-0.4,4.4-1.1,6.4c-0.7,2-1.7,3.6-2.9,5c-1.2,1.4-2.7,2.5-4.4,3.2c-1.7,0.8-3.5,1.1-5.3,1.1
			s-3.6-0.4-5.3-1.1c-1.7-0.8-3.1-1.8-4.4-3.2c-1.2-1.4-2.2-3-2.9-5c-0.7-2-1.1-4.1-1.1-6.4V15.8c0-2.3,0.4-4.4,1.1-6.4
			c0.7-2,1.7-3.6,2.9-5c1.2-1.4,2.7-2.5,4.4-3.2C40.9,0.4,42.7,0,44.5,0s3.6,0.4,5.3,1.1c1.7,0.8,3.1,1.8,4.4,3.2
			c1.2,1.4,2.2,3,2.9,5c0.7,2,1.1,4.1,1.1,6.4V78.5z M47.3,14.9c0-1.1-0.2-2-0.7-2.5c-0.5-0.5-1.2-0.8-2.1-0.8s-1.6,0.3-2.1,0.8
			c-0.5,0.5-0.7,1.4-0.7,2.5v64.4c0,1.1,0.2,1.9,0.7,2.5c0.5,0.6,1.2,0.9,2.1,0.9s1.6-0.3,2.1-0.9c0.5-0.6,0.7-1.4,0.7-2.5V14.9z"/>
		<path d="M95.2,93.1V28.8l-8,64.4h-7.5l-7.2-64.5v64.5h-9.5v-92h15.8l6,52l7.6-52h13.7v92H95.2z"/>
		<path d="M137.1,40.4c0,2.9-0.4,5.3-1.1,7.1c-0.8,1.8-1.7,3.3-2.9,4.4c-1.2,1.1-2.5,1.8-4,2.2c-1.4,0.4-2.8,0.6-4.2,0.6h-3.1v38.4
			H111v-92h13.9c1.4,0,2.8,0.2,4.2,0.6c1.4,0.4,2.7,1.2,4,2.2c1.1,1.1,2.1,2.5,2.9,4.4c0.8,1.9,1.1,4.3,1.1,7.2V40.4z M126.5,15.9
			c0-1.2-0.2-2.1-0.5-2.8c-0.3-0.6-0.8-0.9-1.5-0.9h-2.8v31.5h2.8c0.7,0,1.2-0.3,1.5-0.9c0.3-0.6,0.5-1.5,0.5-2.8V15.9z"/>
		<path d="M166.9,78.5c0,4.7-1.2,8.5-3.5,11.4c-2.3,2.9-5.4,4.4-9.1,4.4c-3.8,0-6.9-1.5-9.3-4.4c-2.5-2.9-3.7-6.7-3.7-11.4V1.1h10.2
			v78.2c0,1.1,0.2,1.9,0.7,2.5c0.5,0.6,1.2,0.9,2.1,0.9c1,0,1.7-0.3,2.2-0.9c0.5-0.6,0.7-1.4,0.7-2.5V1.1h9.8V78.5z"/>
		<path d="M188.7,13.2v79.9H178V13.2h-7.7V1.1h25.5v12.1H188.7z"/>
		<path d="M199.5,93.1v-92h22.3v11h-11.6v28.1h7.8v11h-7.8v30.8h11.6v11H199.5z"/>
		<path d="M242.9,93.1c-0.4-2-0.7-4.3-1-6.8c-0.3-2.5-0.4-5-0.4-7.5V57.3c0-1.1-0.2-2-0.6-2.6c-0.4-0.7-1-1-1.8-1h-2.5v39.6h-10.8
			v-92h13.9c1.4,0,2.8,0.2,4.2,0.6c1.4,0.4,2.7,1.2,4,2.2c1.1,1.1,2.1,2.5,2.9,4.4c0.8,1.9,1.1,4.3,1.1,7.2v23.5
			c0,2.2-0.5,4.1-1.4,5.5c-0.9,1.5-2.1,2.8-3.6,4c1.5,1.2,2.7,2.6,3.7,4c1,1.5,1.5,3.3,1.5,5.5v19.5c0,2.9,0.2,5.7,0.5,8.2
			c0.3,2.6,0.7,5,1,7.2H242.9z M241.3,15.9c0-1.2-0.2-2.1-0.5-2.8c-0.3-0.6-0.8-0.9-1.5-0.9h-2.8v30.9h2.8c0.7,0,1.2-0.3,1.5-0.9
			c0.3-0.6,0.5-1.5,0.5-2.8V15.9z"/>
	</g>
	<g>
		<path d="M329,102.4c1.4,0.7,2.5,1.5,3.2,2.4c0.7,0.9,1.1,1.9,1.2,2.8c0.1,1,0.2,1.7,0.2,2.1c0,1.3-0.3,2.4-0.9,3.4
			c-0.6,1-1.4,1.8-2.4,2.5c-1,0.7-2.2,1.2-3.6,1.5c-1.4,0.4-2.8,0.5-4.4,0.5h-6.7v-5.5h8.8c0.8,0,1.6-0.2,2.2-0.7c0.7-0.5,1-1,1-1.7
			c0-0.6-0.3-1.1-0.8-1.5c-0.6-0.4-1.4-0.6-2.4-0.6c-1.6,0-3.1,0-4.5,0.1c-1.4,0.1-2.8,0.2-4.3,0.5c-1.4,0.3-3,0.6-4.5,1.1
			c-1.6,0.5-3.4,1.1-5.3,1.8c-1.5,0.6-3.3,1.2-5.3,2c-2,0.7-4,1.5-6.1,2.1c-2.1,0.7-4.2,1.2-6.4,1.7c-2.2,0.5-4.2,0.7-6.2,0.7
			c-3.3,0-6-0.7-8.1-2c-2.1-1.3-3.2-3.5-3.2-6.6c0-1.1,0.3-2.1,0.9-3c0.6-0.9,1.4-1.8,2.4-2.4c1-0.7,2.2-1.2,3.6-1.6
			c1.4-0.4,2.8-0.6,4.4-0.6h7.9v5.7h-9.8c-0.9,0-1.6,0.3-2.1,0.8c-0.5,0.5-0.7,1-0.7,1.4c0,0.5,0.2,0.9,0.7,1.4
			c0.5,0.5,1.2,0.7,2.1,0.7c2.3,0,4.2-0.1,5.6-0.2c1.4-0.2,2.8-0.4,4-0.8c1.2-0.3,2.5-0.7,3.9-1.3c1.3-0.6,3.1-1.2,5.2-2
			c4.3-1.6,8.5-2.9,12.5-4c4-1.1,8-1.7,12-1.7C325.6,101.3,327.6,101.7,329,102.4z"/>
		<path d="M330.9,84.7c1.8,1.5,2.7,3.4,2.7,5.6c0,2.2-0.9,4.1-2.7,5.5c-1.8,1.5-4.3,2.2-7.4,2.2h-42.8c-3.1,0-5.6-0.7-7.4-2.2
			c-1.8-1.5-2.7-3.3-2.7-5.5c0-2.2,0.9-4.1,2.7-5.6c1.8-1.5,4.3-2.3,7.4-2.3h12.6v6h-13.6c-0.8,0-1.4,0.2-1.8,0.5
			c-0.4,0.3-0.6,0.8-0.6,1.4s0.2,1.1,0.6,1.4c0.4,0.3,1,0.5,1.8,0.5h44.7c0.8,0,1.4-0.2,1.8-0.5c0.4-0.3,0.6-0.8,0.6-1.4
			s-0.2-1.1-0.6-1.4c-0.4-0.3-1-0.5-1.8-0.5h-13.6v-6h12.6C326.6,82.4,329,83.2,330.9,84.7z"/>
		<path d="M332.8,78.7h-61.6v-6.2h61.6V78.7z"/>
		<path d="M332.8,68.9h-61.6V55.8h6.8v7.1h20v-4.9h6.4v4.9h22v-7.1h6.4V68.9z"/>
		<path d="M332.8,40.4l-34,7.7h34v5.1h-61.6v-5.5l34.6-6.6h-34.6v-4.9h61.6V40.4z"/>
		<path d="M330.9,19.6c1.8,1.5,2.7,3.4,2.7,5.6c0,2.2-0.9,4.1-2.7,5.5c-1.8,1.5-4.3,2.2-7.4,2.2h-42.8c-3.1,0-5.6-0.7-7.4-2.2
			c-1.8-1.5-2.7-3.3-2.7-5.5c0-2.2,0.9-4.1,2.7-5.6c1.8-1.5,4.3-2.3,7.4-2.3h12.6v6h-13.6c-0.8,0-1.4,0.2-1.8,0.5
			c-0.4,0.3-0.6,0.8-0.6,1.4s0.2,1.1,0.6,1.4c0.4,0.3,1,0.5,1.8,0.5h44.7c0.8,0,1.4-0.2,1.8-0.5c0.4-0.3,0.6-0.8,0.6-1.4
			s-0.2-1.1-0.6-1.4c-0.4-0.3-1-0.5-1.8-0.5h-13.6v-6h12.6C326.6,17.3,329,18.1,330.9,19.6z"/>
		<path d="M332.8,13.9h-61.6V0.8h6.8v7.1h20V3h6.4v4.9h22V0.8h6.4V13.9z"/>
	</g>
	<circle cx="246.1" cy="109.6" r="8.7"/>
	<circle cx="222.6" cy="109.6" r="8.7"/>
	<circle cx="199.1" cy="109.6" r="8.7"/>
</g>
</svg>
