<?xml version="1.0" encoding="utf-8"?>
<!-- Generator: Adobe Illustrator 17.1.0, SVG Export Plug-In . SVG Version: 6.00 Build 0)  -->
<!DOCTYPE svg PUBLIC "-//W3C//DTD SVG 1.1//EN" "http://www.w3.org/Graphics/SVG/1.1/DTD/svg11.dtd">
<svg version="1.1" id="Layer_1" xmlns="http://www.w3.org/2000/svg" xmlns:xlink="http://www.w3.org/1999/xlink" x="0px" y="0px"
	 viewBox="0 0 33 33" enable-background="new 0 0 33 33" xml:space="preserve">
<g>
	<path fill="#F6A721" d="M16.7,2C24.6,2,31,8.4,31,16.3v0.3C31,24.6,24.6,31,16.7,31h-0.3C8.4,31,2,24.6,2,16.7v-0.3
		C2,8.4,8.4,2,16.3,2H16.7 M16.7,0h-0.3C7.3,0,0,7.3,0,16.3v0.3C0,25.7,7.3,33,16.3,33h0.3c9,0,16.3-7.3,16.3-16.3v-0.3
		C33,7.3,25.7,0,16.7,0L16.7,0z"/>
</g>
<g id="ARROW__x2F__RIGHT_1_">
	<g id="ARROW__x2F__RIGHT">
		<g>
			<path fill="#F6A721" d="M10,16.5C10,16.5,10,16.5,10,16.5c0,0.4,0.2,0.7,0.4,0.9l0,0l7.8,7.8l0,0c0.2,0.2,0.6,0.4,0.9,0.4
				c0.7,0,1.3-0.6,1.3-1.3c0-0.4-0.2-0.8-0.5-1l-6.8-6.8l6.9-6.9l0,0c0.2-0.2,0.4-0.6,0.4-0.9c0-0.7-0.6-1.3-1.3-1.3
				c-0.4,0-0.7,0.1-0.9,0.4l0,0l-7.8,7.8l0,0C10.2,15.8,10,16.1,10,16.5C10,16.5,10,16.5,10,16.5z"/>
		</g>
	</g>
</g>
</svg>
