<?xml version="1.0" encoding="utf-8"?>
<!-- Generator: Adobe Illustrator 17.1.0, SVG Export Plug-In . SVG Version: 6.00 Build 0)  -->
<!DOCTYPE svg PUBLIC "-//W3C//DTD SVG 1.1//EN" "http://www.w3.org/Graphics/SVG/1.1/DTD/svg11.dtd">
<svg version="1.1" id="Layer_1" xmlns:sketch="http://www.bohemiancoding.com/sketch/ns"
	 xmlns="http://www.w3.org/2000/svg" xmlns:xlink="http://www.w3.org/1999/xlink" x="0px" y="0px" viewBox="0 0 32 32"
	 enable-background="new 0 0 32 32" xml:space="preserve">
<title>forte</title>
<desc>Created with Sketch.</desc>
<g id="Page-1" sketch:type="MSPage">
	<g id="forte" sketch:alignment="middle" sketch:type="MSArtboardGroup">
		<g enable-background="new    ">
			<path fill="#FFFFFF" d="M15.6,11.8c0.1-0.8,0.3-1.5,0.6-2.1c0.3-0.6,0.6-1.1,1-1.5s0.8-0.7,1.2-0.9c0.5-0.2,0.9-0.3,1.4-0.3
				c0.5,0,0.8,0,1.2,0.1c0.3,0.1,0.6,0.2,0.7,0.3c-0.1,0.3-0.2,0.6-0.3,0.9c-0.1,0.3-0.1,0.7-0.2,1c-0.2,0.1-0.5,0.2-0.8,0.1
				c0-0.6-0.1-1-0.3-1.3C20,8.1,19.7,8,19.3,8c-0.2,0-0.4,0.1-0.6,0.2c-0.2,0.1-0.3,0.3-0.5,0.6C18.1,9,18,9.4,17.8,10
				c-0.1,0.5-0.3,1.2-0.4,2h1.8c0,0.1,0,0.3,0,0.4c0,0.1-0.1,0.2-0.1,0.3c-0.3,0-0.7,0-1,0c-0.3,0-0.6,0.1-0.8,0.1
				c-0.2,1.2-0.4,2.2-0.5,3.1c-0.1,0.9-0.2,1.6-0.3,2c-0.2,1-0.4,1.8-0.6,2.7c-0.2,0.8-0.5,1.5-0.9,2.1c-0.3,0.6-0.7,1-1.1,1.4
				c-0.4,0.3-0.9,0.5-1.4,0.5c-0.6,0-1.1-0.2-1.6-0.6c0-0.2,0-0.4,0-0.6c0-0.2,0.1-0.4,0.1-0.5c0.3,0.1,0.6,0.2,0.9,0.2
				s0.7,0.1,1.1,0.1c0.2,0,0.4,0,0.5-0.1c0.1-0.1,0.3-0.2,0.4-0.5c0.1-0.3,0.2-0.7,0.4-1.2c0.1-0.5,0.3-1.3,0.4-2.3
				c0.1-0.9,0.3-1.8,0.4-2.8c0.1-1,0.3-2.1,0.5-3.4c-0.2,0-0.4,0-0.6-0.1c-0.2,0-0.4,0-0.6,0c0-0.3,0.1-0.5,0.2-0.7h1.2L15.6,11.8z"
				/>
		</g>
	</g>
</g>
</svg>
