<?xml version="1.0" encoding="utf-8"?>
<!-- Generator: Adobe Illustrator 18.0.0, SVG Export Plug-In . SVG Version: 6.00 Build 0)  -->
<!DOCTYPE svg PUBLIC "-//W3C//DTD SVG 1.1//EN" "http://www.w3.org/Graphics/SVG/1.1/DTD/svg11.dtd">
<svg version="1.1" id="Layer_1" xmlns="http://www.w3.org/2000/svg" xmlns:xlink="http://www.w3.org/1999/xlink" x="0px" y="0px"
	 viewBox="0 0 120 120" enable-background="new 0 0 120 120" xml:space="preserve">
<rect fill="#DE4949" width="120" height="120"/>
<path fill="#FFFFFF" d="M60.1,38.2c-7,0-13.5,2.4-18.6,6.4c-0.7,0.5-1.6,0.1-1.6-0.8l0-22.7c0-1.7-1.4-3-3-3h-4c-1.7,0-3,1.4-3,3
	l0,46.7c0,16.8,13.4,30.9,30.2,30.9c7,0,13.5-2.4,18.6-6.4c0.7-0.5,1.6-0.1,1.6,0.8v2.5c0,1.7,1.4,3,3,3h4c1.7,0,3-1.4,3-3V69.1
	C90.3,52.3,76.9,38.2,60.1,38.2z M60,88.6c-11.1,0-20.2-9-20.2-20.2s9-20.2,20.2-20.2s20.2,9,20.2,20.2S71.1,88.6,60,88.6z"/>
</svg>
