<?xml version="1.0" encoding="utf-8"?>
<!-- Generator: Adobe Illustrator 18.1.1, SVG Export Plug-In . SVG Version: 6.00 Build 0)  -->
<!DOCTYPE svg PUBLIC "-//W3C//DTD SVG 1.1//EN" "http://www.w3.org/Graphics/SVG/1.1/DTD/svg11.dtd">
<svg version="1.1" xmlns="http://www.w3.org/2000/svg" xmlns:xlink="http://www.w3.org/1999/xlink" x="0px" y="0px"
	 viewBox="0 0 300 300" enable-background="new 0 0 300 300" xml:space="preserve">
<symbol  id="Logo_Light" viewBox="-100 -100 200 200">
	<g id="Logo_1_">
		<path fill="#FFFFFF" d="M0,83.3C-46,83.3-83.3,46-83.3,0S-46-83.3,0-83.3S83.3-46,83.3,0S46,83.3,0,83.3z M-52.4,23.1l18.6,18.7
			c0.9,0.9,2.2,1.5,3.5,1.5h19.4c1.3,0,2.6-0.6,3.6-1.5l0.9-0.9c2-2,2-5.1,0-7.1l-4.7-4.7c-2-2-2-5.1,0-7.1l1.8-1.8
			c1.9-1.9,1.9-5.1,0-7.1l-4.7-4.7c-1.9-2-5.1-2-7.1,0l-1.8,1.8c-2,1.9-5.1,1.9-7.1,0l-4.7-4.7c-2-1.9-5.1-1.9-7.1,0l-10.6,10.6
			C-54.4,18-54.4,21.2-52.4,23.1z M40.7-37L36-41.7c-1.9-2-5.1-2-7.1,0L9.4-22.2c-1.9,1.9-1.9,5.1,0,7.1l4.7,4.7
			c1.9,1.9,5.1,1.9,7.1,0l19.5-19.5C42.6-31.9,42.6-35,40.7-37z M52.4,16.1L41.8,5.5c-1.9-1.9-5.1-1.9-7.1,0l-4.7,4.7
			c-2,1.9-5.1,1.9-7.1,0l-51.8-51.9c-2-2-5.1-2-7.1,0l-4.7,4.7c-1.9,2-1.9,5.1,0,7.1L11.2,22c2,1.9,2,5.1,0,7.1l-4.7,4.7
			c-2,2-2,5.1,0,7.1l0.9,1c1,0.9,2.2,1.5,3.6,1.5h19.4c1.3,0,2.6-0.6,3.5-1.5l18.6-18.6C54.4,21.2,54.4,18,52.4,16.1z"/>
		<path fill="#FFFFFF" d="M0,100c-55.2,0-100-44.8-100-100S-55.2-100,0-100S100-55.2,100,0S55.2,100,0,100z M0-91.7
			c-50.6,0-91.7,41-91.7,91.7s41,91.7,91.7,91.7S91.7,50.6,91.7,0S50.6-91.7,0-91.7z"/>
	</g>
</symbol>
<g id="Logo">
	
		<use xlink:href="#Logo_Light"  width="200" height="200" x="-100" y="-100" transform="matrix(1 0 0 -1 150 150)" overflow="visible"/>
</g>
<g id="Comments">
</g>
</svg>
