<?xml version="1.0" encoding="utf-8"?>
<!-- Generator: Adobe Illustrator 18.1.1, SVG Export Plug-In . SVG Version: 6.00 Build 0)  -->
<!DOCTYPE svg PUBLIC "-//W3C//DTD SVG 1.1//EN" "http://www.w3.org/Graphics/SVG/1.1/DTD/svg11.dtd">
<svg version="1.1" xmlns="http://www.w3.org/2000/svg" xmlns:xlink="http://www.w3.org/1999/xlink" x="0px" y="0px"
	 viewBox="0 0 300 300" enable-background="new 0 0 300 300" xml:space="preserve">
<symbol  id="Logo_Dark" viewBox="-60 -60 120 120">
	<path fill="#231F20" d="M0,50c-27.6,0-50-22.4-50-50s22.4-50,50-50S50-27.6,50,0S27.6,50,0,50z M-31.5,13.9l11.1,11.2
		c0.6,0.6,1.3,0.9,2.1,0.9h11.7c0.8,0,1.6-0.4,2.1-0.9l0.5-0.6c1.2-1.2,1.2-3.1,0-4.3l-2.8-2.8c-1.2-1.2-1.2-3.1,0-4.2l1.1-1.1
		c1.2-1.2,1.2-3.1,0-4.2L-8.5,5c-1.2-1.2-3.1-1.2-4.2,0l-1.1,1.1c-1.2,1.2-3.1,1.2-4.2,0l-2.8-2.8c-1.2-1.2-3.1-1.2-4.2,0l-6.4,6.4
		C-32.6,10.8-32.6,12.7-31.5,13.9z M24.4-22.2L21.6-25c-1.2-1.2-3.1-1.2-4.2,0L5.7-13.3c-1.2,1.2-1.2,3.1,0,4.2l2.8,2.8
		c1.2,1.2,3.1,1.2,4.2,0L24.4-18C25.6-19.1,25.6-21,24.4-22.2z M31.5,9.6l-6.4-6.4c-1.2-1.2-3.1-1.2-4.2,0L18,6.1
		c-1.2,1.2-3.1,1.2-4.2,0L-17.3-25c-1.2-1.2-3.1-1.2-4.2,0l-2.8,2.8c-1.2,1.2-1.2,3.1,0,4.2L6.7,13.2c1.2,1.2,1.2,3.1,0,4.2
		l-2.8,2.8c-1.2,1.2-1.2,3.1,0,4.2l0.5,0.6C5,25.6,5.8,26,6.5,26h11.7c0.8,0,1.6-0.4,2.1-0.9l11.1-11.2
		C32.6,12.7,32.6,10.8,31.5,9.6z"/>
	<path fill="#231F20" d="M0,60c-33.1,0-60-26.9-60-60s26.9-60,60-60S60-33.1,60,0S33.1,60,0,60z M0-55c-30.4,0-55,24.6-55,55
		s24.6,55,55,55S55,30.4,55,0S30.4-55,0-55z"/>
</symbol>
<g id="Logo">
	
		<use xlink:href="#Logo_Dark"  width="120" height="120" x="-60" y="-60" transform="matrix(1.6667 0 0 -1.6667 150 150)" overflow="visible"/>
</g>
<g id="Comments">
</g>
</svg>
