<?xml version="1.0" encoding="utf-8"?>
<!-- Generator: Adobe Illustrator 17.1.0, SVG Export Plug-In . SVG Version: 6.00 Build 0)  -->
<!DOCTYPE svg PUBLIC "-//W3C//DTD SVG 1.1//EN" "http://www.w3.org/Graphics/SVG/1.1/DTD/svg11.dtd">
<svg version="1.1" id="Layer_1" xmlns="http://www.w3.org/2000/svg" xmlns:xlink="http://www.w3.org/1999/xlink" x="0px" y="0px"
	 viewBox="0 0 70 56.4" enable-background="new 0 0 70 56.4" xml:space="preserve">
<g>
	<path fill="#F6A721" d="M14.7,56.4c-1,0-1.9-0.4-2.6-1.1l-3.7-3.7C7,50.2,7,48,8.4,46.5l33.2-33.2c0.3-0.3,0.5-0.7,0.5-1.1
		c0-0.4-0.2-0.8-0.5-1.1L38,7.4c-0.7-0.7-1.1-1.6-1.1-2.6c0-1,0.4-1.9,1.1-2.5L39,1.2C39.8,0.4,40.7,0,41.6,0h12.6
		c0.9,0,1.8,0.4,2.6,1.1l12.2,12.2c0.7,0.7,1.1,1.6,1.1,2.6c0,1-0.4,1.9-1.1,2.6l-7.4,7.4c-1.4,1.4-3.7,1.4-5.1,0l-3.7-3.7
		c-0.6-0.6-1.7-0.6-2.3,0L17.2,55.3C16.6,56,15.7,56.4,14.7,56.4z M41.6,2c-0.4,0-0.8,0.2-1.1,0.6l-1.1,1.1
		c-0.3,0.3-0.5,0.7-0.5,1.2c0,0.4,0.2,0.8,0.5,1.1l3.7,3.7c0.7,0.7,1.1,1.6,1.1,2.6s-0.4,1.9-1.1,2.6L9.9,48c-0.6,0.6-0.6,1.6,0,2.3
		l3.7,3.7c0.6,0.6,1.7,0.6,2.3,0l33.2-33.2c1.4-1.4,3.7-1.4,5.1,0l3.7,3.7c0.6,0.6,1.7,0.6,2.3,0l7.4-7.4c0.3-0.3,0.5-0.7,0.5-1.2
		c0-0.4-0.2-0.9-0.5-1.2L55.4,2.5C55,2.2,54.6,2,54.2,2H41.6z"/>
	<path fill="#F6A721" d="M11,26.9c-1,0-1.9-0.4-2.6-1.1l-7.4-7.4C0.4,17.8,0,16.9,0,15.9c0-1,0.4-1.9,1.1-2.6L13.2,1.1
		C13.9,0.4,14.9,0,15.8,0h12.6c0.9,0,1.8,0.4,2.6,1.1L32,2.3c0.7,0.7,1,1.6,1,2.6c0,1-0.4,1.9-1.1,2.6l-3.7,3.7
		c-0.3,0.3-0.5,0.7-0.5,1.1c0,0.4,0.2,0.8,0.5,1.1l1.9,1.8c0.7,0.7,1.1,1.6,1.1,2.6s-0.4,1.9-1.1,2.6L26.5,24
		c-1.4,1.4-3.7,1.4-5.1,0l-1.8-1.9c-0.6-0.6-1.7-0.6-2.3,0l-3.7,3.7C12.9,26.5,12,26.9,11,26.9z M15.8,2c-0.4,0-0.8,0.2-1.1,0.6
		L2.5,14.8C2.2,15.1,2,15.5,2,15.9c0,0.4,0.2,0.8,0.5,1.1l7.4,7.4c0.6,0.6,1.7,0.6,2.3,0l3.7-3.7c1.4-1.4,3.7-1.4,5.1,0l1.8,1.9
		c0.6,0.6,1.7,0.6,2.3,0l3.7-3.7c0.3-0.3,0.5-0.7,0.5-1.1s-0.2-0.8-0.5-1.1l-1.9-1.8c-0.7-0.7-1.1-1.6-1.1-2.6c0-1,0.4-1.9,1.1-2.6
		L30.6,6c0.3-0.3,0.5-0.7,0.5-1.1c0-0.4-0.2-0.8-0.5-1.1l-1.1-1.1C29.2,2.2,28.7,2,28.4,2H15.8z"/>
	<path fill="#F6A721" d="M55.3,56.4c-1,0-1.9-0.4-2.6-1.1L39.8,42.4c-0.7-0.7-1.1-1.6-1.1-2.6s0.4-1.9,1.1-2.6l3.7-3.7
		c1.4-1.4,3.7-1.4,5.1,0l12.9,12.9c1.4,1.4,1.4,3.7,0,5.1l-3.7,3.7C57.2,56,56.3,56.4,55.3,56.4z M46.1,34.6c-0.4,0-0.8,0.2-1.1,0.5
		l-3.7,3.7c-0.3,0.3-0.5,0.7-0.5,1.1s0.2,0.8,0.5,1.1l12.9,12.9c0.6,0.6,1.7,0.6,2.3,0l3.7-3.7c0.6-0.6,0.6-1.7,0-2.3L47.2,35.1
		C46.9,34.8,46.5,34.6,46.1,34.6z"/>
</g>
</svg>
