<?xml version="1.0" encoding="utf-8"?>
<!-- Generator: Adobe Illustrator 18.1.0, SVG Export Plug-In . SVG Version: 6.00 Build 0)  -->
<!DOCTYPE svg PUBLIC "-//W3C//DTD SVG 1.1//EN" "http://www.w3.org/Graphics/SVG/1.1/DTD/svg11.dtd">
<svg version="1.1" id="Layer_1" xmlns="http://www.w3.org/2000/svg" xmlns:xlink="http://www.w3.org/1999/xlink" x="0px" y="0px"
	 viewBox="0 0 441.7 119.3" enable-background="new 0 0 441.7 119.3" xml:space="preserve">
<g>
	<path fill-rule="evenodd" clip-rule="evenodd" fill="#FFFFFF" d="M361.5,94h-6.7l-0.9-2.2c-1.5,2.2-4.5,3.4-7.4,3.4
		c-7.3,0-12.1-5.5-12.1-15.9V15.9c0-9.4,5.8-15.9,13.3-15.9c7.5,0,13.3,6.5,13.3,15.9v19h-10.6V15.1c0-2.1-0.9-3.4-2.8-3.4
		c-1.7,0-2.8,1.3-2.8,3.4v66.1c0,2.1,1.2,3.4,2.9,3.4c1.9,0,3-1.3,3-3.4V58.6h-2.6v-10h13.2V94 M329.6,94h-9l-11.1-50.7V94h-9V1.2
		h11l9.3,51.5V1.2h8.9V94z M295,94h-10.9V1.2H295V94z M278.8,94H268V29l-8.1,65h-7.5L245,28.9V94h-9.6V1.2h15.9l6,52.4L265,1.2h13.8
		V94z M230.4,94h-10.8V29l-8.1,65h-7.5l-7.3-65.1V94H187V1.2h15.9l6,52.4l7.7-52.4h13.8V94z M171.1,65.3l-2-37l-2.8,37H171.1z
		 M183.6,94h-11.1l-0.7-16.8h-6.4l-1,16.8h-9.6l7.5-92.8H176L183.6,94z M140.7,39.8V16c0-2.7-0.7-3.7-2-3.7H136v31.2h2.8
		C140,43.5,140.7,42.5,140.7,39.8z M153.1,94h-10.8c-0.8-4.1-1.4-9.5-1.4-14.4V57.8c0-2.1-0.8-3.7-2.4-3.7H136V94h-10.9V1.2h14
		c5.5,0,12.3,2.8,12.3,14.6v23.7c0,4.4-2.1,7.2-5,9.6c2.9,2.4,5.2,5.2,5.2,9.6v19.7C151.6,84.3,152.4,89.4,153.1,94z M120.8,94H114
		l-0.9-2.2c-1.5,2.2-4.5,3.4-7.4,3.4c-7.3,0-12.1-5.5-12.1-15.9V15.9C93.6,6.5,99.4,0,107,0c7.5,0,13.3,6.5,13.3,15.9v19h-10.6V15.1
		c0-2.1-0.9-3.4-2.8-3.4c-1.7,0-2.8,1.3-2.8,3.4v66.1c0,2.1,1.2,3.4,2.9,3.4c1.9,0,3-1.3,3-3.4V58.6h-2.6v-10h13.2V94z M78.2,80v-65
		c0-2.1-1-3.4-2.8-3.4c-1.9,0-2.9,1.3-2.9,3.4v65c0,2.1,1,3.4,2.9,3.4C77.1,83.4,78.2,82.1,78.2,80z M89.2,79.2
		c0,9.4-6.3,15.9-13.8,15.9c-7.5,0-13.8-6.5-13.8-15.9V15.9C61.6,6.5,67.9,0,75.4,0c7.5,0,13.8,6.5,13.8,15.9V79.2z M46.3,39.8V16
		c0-2.7-0.7-3.7-2-3.7h-2.8v31.2h2.8C45.6,43.5,46.3,42.5,46.3,39.8z M58.7,94H47.9c-0.8-4.1-1.4-9.5-1.4-14.4V57.8
		c0-2.1-0.8-3.7-2.4-3.7h-2.6V94H30.6V1.2h14C50.1,1.2,57,3.9,57,15.8v23.7c0,4.4-2.1,7.2-5,9.6c2.9,2.4,5.2,5.2,5.2,9.6v19.7
		C57.2,84.3,58,89.4,58.7,94z M15.7,40.4V16c0-2.7-0.7-3.7-2-3.7h-2.8v31.8h2.8C15,44.1,15.7,43,15.7,40.4z M26.3,40.7
		c0,11.7-6.8,14.5-12.3,14.5h-3.1V94H0V1.2h14c5.5,0,12.3,2.8,12.3,14.6V40.7z"/>
	<path fill-rule="evenodd" clip-rule="evenodd" fill="#FFFFFF" d="M431.5,0.9c10.1,0,10.2,6.2,10.2,8.1c0,4.9-4.9,7.6-10.9,7.6h-6.5
		v-5.3h8.5c1.6,0,3.1-1,3.1-2.3c0-1.1-1.2-2-3.1-2c-6.2,0-10.4,0.4-17.9,3.4c-6,2.2-15.6,6.2-23.1,6.2c-6.3,0-10.8-2.4-10.8-8.3
		c0-4.2,4.9-7.3,10.9-7.3h7.6v5.5H390c-1.8,0-2.7,1.3-2.7,2.1c0,0.9,0.9,2,2.7,2c8.8,0,9.9-1.1,17.9-4.2
		C416.2,3.3,423.8,0.9,431.5,0.9 M431.5,18.7c10.1,0,10.2,6.2,10.2,8.1c0,4.9-4.9,7.6-10.9,7.6h-6.5V29h8.5c1.6,0,3.1-1,3.1-2.3
		c0-1.1-1.2-2-3.1-2c-6.2,0-10.4,0.4-17.9,3.4c-6,2.2-15.6,6.2-23.1,6.2c-6.3,0-10.8-2.4-10.8-8.3c0-4.2,4.9-7.3,10.9-7.3h7.6v5.5
		H390c-1.8,0-2.7,1.3-2.7,2.1c0,0.9,0.9,2,2.7,2c8.8,0,9.9-1.1,17.9-4.2C416.2,21.1,423.8,18.7,431.5,18.7z M441,35.6v12.6h-59.3
		V35.6h6.5v6.8h19.3v-4.7h6.2v4.7h21.2v-6.8H441z M432,51.1c6,0,9.8,3.3,9.8,7.6s-3.8,7.5-9.8,7.5h-41.2c-6,0-9.8-3.3-9.8-7.5
		s3.8-7.6,9.8-7.6h12.2v5.8h-13c-1.6,0-2.4,0.6-2.4,1.8s0.8,1.8,2.4,1.8h43c1.6,0,2.4-0.6,2.4-1.8s-0.8-1.8-2.4-1.8h-13v-5.8H432z
		 M432,68.8c6,0,9.8,3.3,9.8,7.6c0,4.2-3.8,7.5-9.8,7.5h-41.2c-6,0-9.8-3.3-9.8-7.5c0-4.2,3.8-7.6,9.8-7.6h12.2v5.8h-13
		c-1.6,0-2.4,0.6-2.4,1.8c0,1.2,0.8,1.8,2.4,1.8h43c1.6,0,2.4-0.6,2.4-1.8c0-1.2-0.8-1.8-2.4-1.8h-13v-5.8H432z M432,86.4
		c6,0,9.8,3,9.8,7.1c0,4.2-3.8,7.3-9.8,7.3h-50.3v-5.6h51.2c1.6,0,2.4-0.6,2.4-1.8c0-1.3-0.8-1.9-2.4-1.9h-51.2v-5.3H432z
		 M431.5,103.6c10.1,0,10.2,6.2,10.2,8.1c0,4.9-4.9,7.6-10.9,7.6h-6.5V114h8.5c1.6,0,3.1-1,3.1-2.3c0-1.1-1.2-2-3.1-2
		c-6.2,0-10.4,0.4-17.9,3.4c-6,2.2-15.6,6.2-23.1,6.2c-6.3,0-10.8-2.4-10.8-8.3c0-4.2,4.9-7.3,10.9-7.3h7.6v5.5H390
		c-1.8,0-2.7,1.3-2.7,2.1c0,0.9,0.9,2,2.7,2c8.8,0,9.9-1.1,17.9-4.2C416.2,106.1,423.8,103.6,431.5,103.6z"/>
	<path fill-rule="evenodd" clip-rule="evenodd" fill="#FFFFFF" d="M316.5,110.5c0,4.5-3.6,8.1-8.1,8.1c-4.5,0-8.1-3.6-8.1-8.1
		s3.6-8.1,8.1-8.1C312.8,102.4,316.5,106,316.5,110.5"/>
	<path fill-rule="evenodd" clip-rule="evenodd" fill="#FFFFFF" d="M340,110.5c0,4.5-3.6,8.1-8.1,8.1c-4.5,0-8.1-3.6-8.1-8.1
		s3.6-8.1,8.1-8.1C336.3,102.4,340,106,340,110.5"/>
	<path fill-rule="evenodd" clip-rule="evenodd" fill="#FFFFFF" d="M363.9,110.5c0,4.5-3.6,8.1-8.1,8.1c-4.5,0-8.1-3.6-8.1-8.1
		s3.6-8.1,8.1-8.1C360.2,102.4,363.9,106,363.9,110.5"/>
</g>
</svg>
