<?xml version="1.0" encoding="utf-8"?>
<!-- Generator: Adobe Illustrator 19.2.1, SVG Export Plug-In . SVG Version: 6.00 Build 0)  -->
<svg version="1.1" id="Layer_1" xmlns="http://www.w3.org/2000/svg" xmlns:xlink="http://www.w3.org/1999/xlink" x="0px" y="0px"
	 viewBox="0 0 150 150" style="enable-background:new 0 0 150 150;" xml:space="preserve">
<style type="text/css">
	.st0{fill:none;stroke:#666666;stroke-width:2;stroke-linecap:round;stroke-miterlimit:10;}
	.st1{fill:#FFFFFF;stroke:#666666;stroke-width:2;stroke-linecap:round;stroke-miterlimit:10;}
</style>
<g>
	<line class="st0" x1="144.8" y1="103.7" x2="75.5" y2="75"/>
	<line class="st0" x1="75.5" y1="75" x2="6.2" y2="46.3"/>
	<line class="st0" x1="104.2" y1="5.7" x2="75.5" y2="75"/>
	<line class="st0" x1="75.5" y1="75" x2="46.8" y2="144.3"/>
	<line class="st0" x1="144.8" y1="46.3" x2="75.5" y2="75"/>
	<line class="st0" x1="75.5" y1="75" x2="6.2" y2="103.7"/>
	<line class="st0" x1="46.8" y1="5.7" x2="75.5" y2="75"/>
	<line class="st0" x1="75.5" y1="75" x2="104.2" y2="144.3"/>
	<line class="st0" x1="128.5" y1="128" x2="75.5" y2="75"/>
	<line class="st0" x1="75.5" y1="75" x2="22.5" y2="22"/>
	<line class="st0" x1="128.5" y1="22" x2="75.5" y2="75"/>
	<line class="st0" x1="75.5" y1="75" x2="22.5" y2="128"/>
	<line class="st0" x1="150" y1="75" x2="75" y2="75"/>
	<line class="st0" x1="75" y1="75" x2="0" y2="75"/>
	<line class="st0" x1="75" y1="0" x2="75" y2="75"/>
	<line class="st0" x1="75" y1="75" x2="75" y2="150"/>
	<line class="st0" x1="149.1" y1="89.6" x2="75.5" y2="75"/>
	<line class="st0" x1="75.5" y1="75" x2="1.9" y2="60.4"/>
	<line class="st0" x1="90.1" y1="1.4" x2="75.5" y2="75"/>
	<line class="st0" x1="75.5" y1="75" x2="60.9" y2="148.6"/>
	<line class="st0" x1="137.9" y1="33.3" x2="75.5" y2="75"/>
	<line class="st0" x1="75.5" y1="75" x2="13.1" y2="116.7"/>
	<line class="st0" x1="33.8" y1="12.6" x2="75.5" y2="75"/>
	<line class="st0" x1="75.5" y1="75" x2="117.2" y2="137.4"/>
	<line class="st0" x1="137.9" y1="116.7" x2="75.5" y2="75"/>
	<line class="st0" x1="75.5" y1="75" x2="13.1" y2="33.3"/>
	<line class="st0" x1="117.2" y1="12.6" x2="75.5" y2="75"/>
	<line class="st0" x1="75.5" y1="75" x2="33.8" y2="137.4"/>
	<line class="st0" x1="149.1" y1="60.4" x2="75.5" y2="75"/>
	<line class="st0" x1="75.5" y1="75" x2="1.9" y2="89.6"/>
	<line class="st0" x1="60.9" y1="1.4" x2="75.5" y2="75"/>
	<line class="st0" x1="75.5" y1="75" x2="90.1" y2="148.6"/>
	<line class="st0" x1="147.3" y1="96.8" x2="111.4" y2="85.9"/>
	<line class="st0" x1="39.6" y1="64.1" x2="3.7" y2="53.2"/>
	<line class="st0" x1="97.3" y1="3.2" x2="86.4" y2="39.1"/>
	<line class="st0" x1="64.6" y1="110.9" x2="53.7" y2="146.8"/>
	<line class="st0" x1="141.6" y1="39.7" x2="108.6" y2="57.3"/>
	<line class="st0" x1="42.4" y1="92.7" x2="9.4" y2="110.3"/>
	<line class="st0" x1="57.8" y1="41.9" x2="40.2" y2="8.9"/>
	<line class="st0" x1="110.8" y1="141.1" x2="93.2" y2="108.1"/>
	<line class="st0" x1="133.5" y1="122.6" x2="104.5" y2="98.8"/>
	<line class="st0" x1="46.5" y1="51.2" x2="17.5" y2="27.4"/>
	<line class="st0" x1="123.1" y1="17" x2="99.3" y2="46"/>
	<line class="st0" x1="51.7" y1="104" x2="27.9" y2="133"/>
	<line class="st0" x1="150.1" y1="67.7" x2="112.8" y2="71.3"/>
	<line class="st0" x1="38.2" y1="78.7" x2="0.9" y2="82.3"/>
	<line class="st0" x1="71.8" y1="37.7" x2="68.2" y2="0.4"/>
	<line class="st0" x1="82.8" y1="149.6" x2="79.2" y2="112.3"/>
	<line class="st0" x1="150.1" y1="82.3" x2="112.8" y2="78.7"/>
	<line class="st0" x1="38.2" y1="71.3" x2="0.9" y2="67.7"/>
	<line class="st0" x1="82.8" y1="0.4" x2="79.2" y2="37.7"/>
	<line class="st0" x1="71.8" y1="112.3" x2="68.2" y2="149.6"/>
	<line class="st0" x1="133.5" y1="27.4" x2="104.5" y2="51.2"/>
	<line class="st0" x1="46.5" y1="98.8" x2="17.5" y2="122.6"/>
	<line class="st0" x1="51.7" y1="46" x2="27.9" y2="17"/>
	<line class="st0" x1="123.1" y1="133" x2="99.3" y2="104"/>
	<line class="st0" x1="141.6" y1="110.3" x2="108.6" y2="92.7"/>
	<line class="st0" x1="42.4" y1="57.3" x2="9.4" y2="39.7"/>
	<line class="st0" x1="110.8" y1="8.9" x2="93.2" y2="41.9"/>
	<line class="st0" x1="57.8" y1="108.1" x2="40.2" y2="141.1"/>
	<line class="st0" x1="147.3" y1="53.2" x2="111.4" y2="64.1"/>
	<line class="st0" x1="39.6" y1="85.9" x2="3.7" y2="96.8"/>
	<line class="st0" x1="64.6" y1="39.1" x2="53.7" y2="3.2"/>
	<line class="st0" x1="97.3" y1="146.8" x2="86.4" y2="110.9"/>
	<g>
		<polygon class="st1" points="120,104 105,119 60,74 45,89 25,69 59,35 81,35 90,44 75,59 		"/>
		<line class="st0" x1="110" y1="109" x2="65" y2="64"/>
		<line class="st0" x1="65" y1="74" x2="70" y2="69"/>
		<line class="st0" x1="70" y1="79" x2="75" y2="74"/>
		<line class="st0" x1="80" y1="79" x2="75" y2="84"/>
		<line class="st0" x1="85" y1="84" x2="80" y2="89"/>
		<line class="st0" x1="90" y1="89" x2="85" y2="94"/>
		<line class="st0" x1="95" y1="94" x2="90" y2="99"/>
		<line class="st0" x1="100" y1="99" x2="95" y2="104"/>
		<line class="st0" x1="105" y1="104" x2="100" y2="109"/>
		<line class="st0" x1="100" y1="99" x2="105" y2="94"/>
		<line class="st0" x1="90" y1="89" x2="95" y2="84"/>
		<line class="st0" x1="80" y1="79" x2="85" y2="74"/>
		<line class="st0" x1="70" y1="69" x2="75" y2="64"/>
		<line class="st0" x1="40" y1="79" x2="80" y2="39"/>
		<line class="st0" x1="35" y1="74" x2="70" y2="39"/>
		<line class="st0" x1="45" y1="74" x2="50" y2="79"/>
		<line class="st0" x1="50" y1="69" x2="55" y2="74"/>
		<line class="st0" x1="55" y1="64" x2="60" y2="69"/>
		<line class="st0" x1="60" y1="59" x2="65" y2="64"/>
		<line class="st0" x1="65" y1="54" x2="70" y2="59"/>
		<line class="st0" x1="70" y1="49" x2="75" y2="54"/>
		<line class="st0" x1="75" y1="44" x2="80" y2="49"/>
		<line class="st0" x1="60" y1="69" x2="65" y2="64"/>
		<line class="st0" x1="45" y1="64" x2="50" y2="69"/>
		<line class="st0" x1="55" y1="54" x2="60" y2="59"/>
		<line class="st0" x1="65" y1="44" x2="70" y2="49"/>
	</g>
</g>
</svg>
