<svg id="Layer_1" data-name="Layer 1" xmlns="http://www.w3.org/2000/svg" viewBox="0 0 152.14 152">
  <defs>
    <style>
      .cls-1 {
        fill: none;
      }

      .cls-1, .cls-2 {
        stroke: #666;
        stroke-linecap: round;
        stroke-miterlimit: 10;
        stroke-width: 2px;
      }

      .cls-2 {
        fill: #fff;
      }
    </style>
  </defs>
  <title>leftspeaker-opt</title>
  <g>
    <line class="cls-1" x1="145.79" y1="104.7" x2="76.5" y2="76"/>
    <line class="cls-1" x1="76.5" y1="76" x2="7.21" y2="47.3"/>
    <line class="cls-1" x1="105.2" y1="6.71" x2="76.5" y2="76"/>
    <line class="cls-1" x1="76.5" y1="76" x2="47.8" y2="145.29"/>
    <line class="cls-1" x1="145.79" y1="47.3" x2="76.5" y2="76"/>
    <line class="cls-1" x1="76.5" y1="76" x2="7.21" y2="104.7"/>
    <line class="cls-1" x1="47.8" y1="6.71" x2="76.5" y2="76"/>
    <line class="cls-1" x1="76.5" y1="76" x2="105.2" y2="145.29"/>
    <line class="cls-1" x1="129.53" y1="129.03" x2="76.5" y2="76"/>
    <line class="cls-1" x1="76.5" y1="76" x2="23.47" y2="22.97"/>
    <line class="cls-1" x1="129.53" y1="22.97" x2="76.5" y2="76"/>
    <line class="cls-1" x1="76.5" y1="76" x2="23.47" y2="129.03"/>
    <line class="cls-1" x1="151" y1="76" x2="76" y2="76"/>
    <line class="cls-1" x1="76" y1="76" x2="1" y2="76"/>
    <line class="cls-1" x1="76" y1="1" x2="76" y2="76"/>
    <line class="cls-1" x1="76" y1="76" x2="76" y2="151"/>
    <line class="cls-1" x1="150.06" y1="90.63" x2="76.5" y2="76"/>
    <line class="cls-1" x1="76.5" y1="76" x2="2.94" y2="61.37"/>
    <line class="cls-1" x1="91.13" y1="2.44" x2="76.5" y2="76"/>
    <line class="cls-1" x1="76.5" y1="76" x2="61.87" y2="149.56"/>
    <line class="cls-1" x1="138.86" y1="34.33" x2="76.5" y2="76"/>
    <line class="cls-1" x1="76.5" y1="76" x2="14.14" y2="117.67"/>
    <line class="cls-1" x1="34.83" y1="13.64" x2="76.5" y2="76"/>
    <line class="cls-1" x1="76.5" y1="76" x2="118.17" y2="138.36"/>
    <line class="cls-1" x1="138.86" y1="117.67" x2="76.5" y2="76"/>
    <line class="cls-1" x1="76.5" y1="76" x2="14.14" y2="34.33"/>
    <line class="cls-1" x1="118.17" y1="13.64" x2="76.5" y2="76"/>
    <line class="cls-1" x1="76.5" y1="76" x2="34.83" y2="138.36"/>
    <line class="cls-1" x1="150.06" y1="61.37" x2="76.5" y2="76"/>
    <line class="cls-1" x1="76.5" y1="76" x2="2.94" y2="90.63"/>
    <line class="cls-1" x1="61.87" y1="2.44" x2="76.5" y2="76"/>
    <line class="cls-1" x1="76.5" y1="76" x2="91.13" y2="149.56"/>
    <line class="cls-1" x1="148.27" y1="97.77" x2="112.39" y2="86.89"/>
    <line class="cls-1" x1="40.61" y1="65.11" x2="4.73" y2="54.23"/>
    <line class="cls-1" x1="98.27" y1="4.23" x2="87.39" y2="40.11"/>
    <line class="cls-1" x1="65.61" y1="111.89" x2="54.73" y2="147.77"/>
    <line class="cls-1" x1="142.64" y1="40.65" x2="109.58" y2="58.32"/>
    <line class="cls-1" x1="43.42" y1="93.68" x2="10.36" y2="111.35"/>
    <line class="cls-1" x1="58.82" y1="42.92" x2="41.15" y2="9.86"/>
    <line class="cls-1" x1="111.85" y1="142.14" x2="94.18" y2="109.08"/>
    <line class="cls-1" x1="134.48" y1="123.58" x2="105.49" y2="99.79"/>
    <line class="cls-1" x1="47.51" y1="52.21" x2="18.52" y2="28.42"/>
    <line class="cls-1" x1="124.08" y1="18.02" x2="100.29" y2="47.01"/>
    <line class="cls-1" x1="52.71" y1="104.99" x2="28.92" y2="133.98"/>
    <line class="cls-1" x1="151.14" y1="68.65" x2="113.82" y2="72.32"/>
    <line class="cls-1" x1="39.18" y1="79.68" x2="1.86" y2="83.35"/>
    <line class="cls-1" x1="72.82" y1="38.68" x2="69.15" y2="1.36"/>
    <line class="cls-1" x1="83.85" y1="150.64" x2="80.18" y2="113.32"/>
    <line class="cls-1" x1="151.14" y1="83.35" x2="113.82" y2="79.68"/>
    <line class="cls-1" x1="39.18" y1="72.32" x2="1.86" y2="68.65"/>
    <line class="cls-1" x1="83.85" y1="1.36" x2="80.18" y2="38.68"/>
    <line class="cls-1" x1="72.82" y1="113.32" x2="69.15" y2="150.64"/>
    <line class="cls-1" x1="134.48" y1="28.42" x2="105.49" y2="52.21"/>
    <line class="cls-1" x1="47.51" y1="99.79" x2="18.52" y2="123.58"/>
    <line class="cls-1" x1="52.71" y1="47.01" x2="28.92" y2="18.02"/>
    <line class="cls-1" x1="124.08" y1="133.98" x2="100.29" y2="104.99"/>
    <line class="cls-1" x1="142.64" y1="111.35" x2="109.58" y2="93.68"/>
    <line class="cls-1" x1="43.42" y1="58.32" x2="10.36" y2="40.65"/>
    <line class="cls-1" x1="111.85" y1="9.86" x2="94.18" y2="42.92"/>
    <line class="cls-1" x1="58.82" y1="109.08" x2="41.15" y2="142.14"/>
    <line class="cls-1" x1="148.27" y1="54.23" x2="112.39" y2="65.11"/>
    <line class="cls-1" x1="40.61" y1="86.89" x2="4.73" y2="97.77"/>
    <line class="cls-1" x1="65.61" y1="40.11" x2="54.73" y2="4.23"/>
    <line class="cls-1" x1="98.27" y1="147.77" x2="87.39" y2="111.89"/>
    <g>
      <polygon class="cls-2" points="121 105 106 120 61 75 46 90 26 70 60 36 82 36 91 45 76 60 121 105"/>
      <line class="cls-1" x1="111" y1="110" x2="66" y2="65"/>
      <line class="cls-1" x1="66" y1="75" x2="71" y2="70"/>
      <line class="cls-1" x1="71" y1="80" x2="76" y2="75"/>
      <line class="cls-1" x1="81" y1="80" x2="76" y2="85"/>
      <line class="cls-1" x1="86" y1="85" x2="81" y2="90"/>
      <line class="cls-1" x1="91" y1="90" x2="86" y2="95"/>
      <line class="cls-1" x1="96" y1="95" x2="91" y2="100"/>
      <line class="cls-1" x1="101" y1="100" x2="96" y2="105"/>
      <line class="cls-1" x1="106" y1="105" x2="101" y2="110"/>
      <line class="cls-1" x1="101" y1="100" x2="106" y2="95"/>
      <line class="cls-1" x1="91" y1="90" x2="96" y2="85"/>
      <line class="cls-1" x1="81" y1="80" x2="86" y2="75"/>
      <line class="cls-1" x1="71" y1="70" x2="76" y2="65"/>
      <line class="cls-1" x1="41" y1="80" x2="81" y2="40"/>
      <line class="cls-1" x1="36" y1="75" x2="71" y2="40"/>
      <line class="cls-1" x1="46" y1="75" x2="51" y2="80"/>
      <line class="cls-1" x1="51" y1="70" x2="56" y2="75"/>
      <line class="cls-1" x1="56" y1="65" x2="61" y2="70"/>
      <line class="cls-1" x1="61" y1="60" x2="66" y2="65"/>
      <line class="cls-1" x1="66" y1="55" x2="71" y2="60"/>
      <line class="cls-1" x1="71" y1="50" x2="76" y2="55"/>
      <line class="cls-1" x1="76" y1="45" x2="81" y2="50"/>
      <line class="cls-1" x1="61" y1="70" x2="66" y2="65"/>
      <line class="cls-1" x1="46" y1="65" x2="51" y2="70"/>
      <line class="cls-1" x1="56" y1="55" x2="61" y2="60"/>
      <line class="cls-1" x1="66" y1="45" x2="71" y2="50"/>
    </g>
  </g>
</svg>
