<svg id="Layer_1" data-name="Layer 1" xmlns="http://www.w3.org/2000/svg" viewBox="0 0 152 152">
  <defs>
    <style>
      .cls-1 {
        fill: none;
      }

      .cls-1, .cls-2 {
        stroke: #666;
        stroke-linecap: round;
        stroke-miterlimit: 10;
        stroke-width: 2px;
      }

      .cls-2 {
        fill: #fff;
      }
    </style>
  </defs>
  <title>rightspeaker-opt</title>
  <g>
    <line class="cls-1" x1="6.35" y1="104.7" x2="75.64" y2="76"/>
    <line class="cls-1" x1="75.64" y1="76" x2="144.93" y2="47.3"/>
    <line class="cls-1" x1="46.94" y1="6.71" x2="75.64" y2="76"/>
    <line class="cls-1" x1="75.64" y1="76" x2="104.34" y2="145.29"/>
    <line class="cls-1" x1="6.35" y1="47.3" x2="75.64" y2="76"/>
    <line class="cls-1" x1="75.64" y1="76" x2="144.93" y2="104.7"/>
    <line class="cls-1" x1="104.34" y1="6.71" x2="75.64" y2="76"/>
    <line class="cls-1" x1="75.64" y1="76" x2="46.94" y2="145.29"/>
    <line class="cls-1" x1="22.61" y1="129.03" x2="75.64" y2="76"/>
    <line class="cls-1" x1="75.64" y1="76" x2="128.67" y2="22.97"/>
    <line class="cls-1" x1="22.61" y1="22.97" x2="75.64" y2="76"/>
    <line class="cls-1" x1="75.64" y1="76" x2="128.67" y2="129.03"/>
    <line class="cls-1" x1="1" y1="76" x2="76" y2="76"/>
    <line class="cls-1" x1="76" y1="76" x2="151" y2="76"/>
    <line class="cls-1" x1="76" y1="1" x2="76" y2="76"/>
    <line class="cls-1" x1="76" y1="76" x2="76" y2="151"/>
    <line class="cls-1" x1="2.08" y1="90.63" x2="75.64" y2="76"/>
    <line class="cls-1" x1="75.64" y1="76" x2="149.2" y2="61.37"/>
    <line class="cls-1" x1="61.01" y1="2.44" x2="75.64" y2="76"/>
    <line class="cls-1" x1="75.64" y1="76" x2="90.27" y2="149.56"/>
    <line class="cls-1" x1="13.28" y1="34.33" x2="75.64" y2="76"/>
    <line class="cls-1" x1="75.64" y1="76" x2="138" y2="117.67"/>
    <line class="cls-1" x1="117.31" y1="13.64" x2="75.64" y2="76"/>
    <line class="cls-1" x1="75.64" y1="76" x2="33.97" y2="138.36"/>
    <line class="cls-1" x1="13.28" y1="117.67" x2="75.64" y2="76"/>
    <line class="cls-1" x1="75.64" y1="76" x2="138" y2="34.33"/>
    <line class="cls-1" x1="33.97" y1="13.64" x2="75.64" y2="76"/>
    <line class="cls-1" x1="75.64" y1="76" x2="117.31" y2="138.36"/>
    <line class="cls-1" x1="2.08" y1="61.37" x2="75.64" y2="76"/>
    <line class="cls-1" x1="75.64" y1="76" x2="149.2" y2="90.63"/>
    <line class="cls-1" x1="90.27" y1="2.44" x2="75.64" y2="76"/>
    <line class="cls-1" x1="75.64" y1="76" x2="61.01" y2="149.56"/>
    <line class="cls-1" x1="39.75" y1="86.89" x2="3.87" y2="97.77"/>
    <line class="cls-1" x1="147.41" y1="54.23" x2="111.53" y2="65.11"/>
    <line class="cls-1" x1="64.75" y1="40.11" x2="53.87" y2="4.23"/>
    <line class="cls-1" x1="97.41" y1="147.77" x2="86.53" y2="111.89"/>
    <line class="cls-1" x1="42.56" y1="58.32" x2="9.5" y2="40.65"/>
    <line class="cls-1" x1="141.78" y1="111.35" x2="108.72" y2="93.68"/>
    <line class="cls-1" x1="110.99" y1="9.86" x2="93.32" y2="42.92"/>
    <line class="cls-1" x1="57.96" y1="109.08" x2="40.29" y2="142.14"/>
    <line class="cls-1" x1="46.65" y1="99.79" x2="17.66" y2="123.58"/>
    <line class="cls-1" x1="133.62" y1="28.42" x2="104.63" y2="52.21"/>
    <line class="cls-1" x1="51.85" y1="47.01" x2="28.06" y2="18.02"/>
    <line class="cls-1" x1="123.22" y1="133.98" x2="99.43" y2="104.99"/>
    <line class="cls-1" x1="38.32" y1="72.32" x2="1" y2="68.65"/>
    <line class="cls-1" x1="150.28" y1="83.35" x2="112.96" y2="79.68"/>
    <line class="cls-1" x1="82.99" y1="1.36" x2="79.32" y2="38.68"/>
    <line class="cls-1" x1="71.96" y1="113.32" x2="68.29" y2="150.64"/>
    <line class="cls-1" x1="38.32" y1="79.68" x2="1" y2="83.35"/>
    <line class="cls-1" x1="150.28" y1="68.65" x2="112.96" y2="72.32"/>
    <line class="cls-1" x1="71.96" y1="38.68" x2="68.29" y2="1.36"/>
    <line class="cls-1" x1="82.99" y1="150.64" x2="79.32" y2="113.32"/>
    <line class="cls-1" x1="46.65" y1="52.21" x2="17.66" y2="28.42"/>
    <line class="cls-1" x1="133.62" y1="123.58" x2="104.63" y2="99.79"/>
    <line class="cls-1" x1="123.22" y1="18.02" x2="99.43" y2="47.01"/>
    <line class="cls-1" x1="51.85" y1="104.99" x2="28.06" y2="133.98"/>
    <line class="cls-1" x1="42.56" y1="93.68" x2="9.5" y2="111.35"/>
    <line class="cls-1" x1="141.78" y1="40.65" x2="108.72" y2="58.32"/>
    <line class="cls-1" x1="57.96" y1="42.92" x2="40.29" y2="9.86"/>
    <line class="cls-1" x1="110.99" y1="142.14" x2="93.32" y2="109.08"/>
    <line class="cls-1" x1="39.75" y1="65.11" x2="3.87" y2="54.23"/>
    <line class="cls-1" x1="147.41" y1="97.77" x2="111.53" y2="86.89"/>
    <line class="cls-1" x1="97.41" y1="4.23" x2="86.53" y2="40.11"/>
    <line class="cls-1" x1="64.75" y1="111.89" x2="53.87" y2="147.77"/>
    <g>
      <polygon class="cls-2" points="31.14 105 46.14 120 91.14 75 106.14 90 126.14 70 92.14 36 70.14 36 61.14 45 76.14 60 31.14 105"/>
      <line class="cls-1" x1="41.14" y1="110" x2="86.14" y2="65"/>
      <line class="cls-1" x1="86.14" y1="75" x2="81.14" y2="70"/>
      <line class="cls-1" x1="81.14" y1="80" x2="76.14" y2="75"/>
      <line class="cls-1" x1="71.14" y1="80" x2="76.14" y2="85"/>
      <line class="cls-1" x1="66.14" y1="85" x2="71.14" y2="90"/>
      <line class="cls-1" x1="61.14" y1="90" x2="66.14" y2="95"/>
      <line class="cls-1" x1="56.14" y1="95" x2="61.14" y2="100"/>
      <line class="cls-1" x1="51.14" y1="100" x2="56.14" y2="105"/>
      <line class="cls-1" x1="46.14" y1="105" x2="51.14" y2="110"/>
      <line class="cls-1" x1="51.14" y1="100" x2="46.14" y2="95"/>
      <line class="cls-1" x1="61.14" y1="90" x2="56.14" y2="85"/>
      <line class="cls-1" x1="71.14" y1="80" x2="66.14" y2="75"/>
      <line class="cls-1" x1="81.14" y1="70" x2="76.14" y2="65"/>
      <line class="cls-1" x1="111.14" y1="80" x2="71.14" y2="40"/>
      <line class="cls-1" x1="116.14" y1="75" x2="81.14" y2="40"/>
      <line class="cls-1" x1="106.14" y1="75" x2="101.14" y2="80"/>
      <line class="cls-1" x1="101.14" y1="70" x2="96.14" y2="75"/>
      <line class="cls-1" x1="96.14" y1="65" x2="91.14" y2="70"/>
      <line class="cls-1" x1="91.14" y1="60" x2="86.14" y2="65"/>
      <line class="cls-1" x1="86.14" y1="55" x2="81.14" y2="60"/>
      <line class="cls-1" x1="81.14" y1="50" x2="76.14" y2="55"/>
      <line class="cls-1" x1="76.14" y1="45" x2="71.14" y2="50"/>
      <line class="cls-1" x1="91.14" y1="70" x2="86.14" y2="65"/>
      <line class="cls-1" x1="106.14" y1="65" x2="101.14" y2="70"/>
      <line class="cls-1" x1="96.14" y1="55" x2="91.14" y2="60"/>
      <line class="cls-1" x1="86.14" y1="45" x2="81.14" y2="50"/>
    </g>
  </g>
</svg>
