<?xml version="1.0" encoding="utf-8"?>
<!-- Generator: Adobe Illustrator 19.2.1, SVG Export Plug-In . SVG Version: 6.00 Build 0)  -->
<svg version="1.1" id="Layer_1" xmlns="http://www.w3.org/2000/svg" xmlns:xlink="http://www.w3.org/1999/xlink" x="0px" y="0px"
	 viewBox="0 0 150 150" style="enable-background:new 0 0 150 150;" xml:space="preserve">
<style type="text/css">
	.st0{fill:none;stroke:#666666;stroke-width:2;stroke-linecap:round;stroke-miterlimit:10;}
	.st1{fill:#FFFFFF;stroke:#666666;stroke-width:2;stroke-linecap:round;stroke-miterlimit:10;}
</style>
<g>
	<line class="st0" x1="5.3" y1="103.7" x2="74.6" y2="75"/>
	<line class="st0" x1="74.6" y1="75" x2="143.9" y2="46.3"/>
	<line class="st0" x1="45.9" y1="5.7" x2="74.6" y2="75"/>
	<line class="st0" x1="74.6" y1="75" x2="103.3" y2="144.3"/>
	<line class="st0" x1="5.3" y1="46.3" x2="74.6" y2="75"/>
	<line class="st0" x1="74.6" y1="75" x2="143.9" y2="103.7"/>
	<line class="st0" x1="103.3" y1="5.7" x2="74.6" y2="75"/>
	<line class="st0" x1="74.6" y1="75" x2="45.9" y2="144.3"/>
	<line class="st0" x1="21.6" y1="128" x2="74.6" y2="75"/>
	<line class="st0" x1="74.6" y1="75" x2="127.7" y2="22"/>
	<line class="st0" x1="21.6" y1="22" x2="74.6" y2="75"/>
	<line class="st0" x1="74.6" y1="75" x2="127.7" y2="128"/>
	<line class="st0" x1="0" y1="75" x2="75" y2="75"/>
	<line class="st0" x1="75" y1="75" x2="150" y2="75"/>
	<line class="st0" x1="75" y1="0" x2="75" y2="75"/>
	<line class="st0" x1="75" y1="75" x2="75" y2="150"/>
	<line class="st0" x1="1.1" y1="89.6" x2="74.6" y2="75"/>
	<line class="st0" x1="74.6" y1="75" x2="148.2" y2="60.4"/>
	<line class="st0" x1="60" y1="1.4" x2="74.6" y2="75"/>
	<line class="st0" x1="74.6" y1="75" x2="89.3" y2="148.6"/>
	<line class="st0" x1="12.3" y1="33.3" x2="74.6" y2="75"/>
	<line class="st0" x1="74.6" y1="75" x2="137" y2="116.7"/>
	<line class="st0" x1="116.3" y1="12.6" x2="74.6" y2="75"/>
	<line class="st0" x1="74.6" y1="75" x2="33" y2="137.4"/>
	<line class="st0" x1="12.3" y1="116.7" x2="74.6" y2="75"/>
	<line class="st0" x1="74.6" y1="75" x2="137" y2="33.3"/>
	<line class="st0" x1="33" y1="12.6" x2="74.6" y2="75"/>
	<line class="st0" x1="74.6" y1="75" x2="116.3" y2="137.4"/>
	<line class="st0" x1="1.1" y1="60.4" x2="74.6" y2="75"/>
	<line class="st0" x1="74.6" y1="75" x2="148.2" y2="89.6"/>
	<line class="st0" x1="89.3" y1="1.4" x2="74.6" y2="75"/>
	<line class="st0" x1="74.6" y1="75" x2="60" y2="148.6"/>
	<line class="st0" x1="38.8" y1="85.9" x2="2.9" y2="96.8"/>
	<line class="st0" x1="146.4" y1="53.2" x2="110.5" y2="64.1"/>
	<line class="st0" x1="63.8" y1="39.1" x2="52.9" y2="3.2"/>
	<line class="st0" x1="96.4" y1="146.8" x2="85.5" y2="110.9"/>
	<line class="st0" x1="41.6" y1="57.3" x2="8.5" y2="39.7"/>
	<line class="st0" x1="140.8" y1="110.3" x2="107.7" y2="92.7"/>
	<line class="st0" x1="110" y1="8.9" x2="92.3" y2="41.9"/>
	<line class="st0" x1="57" y1="108.1" x2="39.3" y2="141.1"/>
	<line class="st0" x1="45.7" y1="98.8" x2="16.7" y2="122.6"/>
	<line class="st0" x1="132.6" y1="27.4" x2="103.6" y2="51.2"/>
	<line class="st0" x1="50.8" y1="46" x2="27.1" y2="17"/>
	<line class="st0" x1="122.2" y1="133" x2="98.4" y2="104"/>
	<line class="st0" x1="37.3" y1="71.3" x2="0" y2="67.7"/>
	<line class="st0" x1="149.3" y1="82.3" x2="112" y2="78.7"/>
	<line class="st0" x1="82" y1="0.4" x2="78.3" y2="37.7"/>
	<line class="st0" x1="71" y1="112.3" x2="67.3" y2="149.6"/>
	<line class="st0" x1="37.3" y1="78.7" x2="0" y2="82.3"/>
	<line class="st0" x1="149.3" y1="67.7" x2="112" y2="71.3"/>
	<line class="st0" x1="71" y1="37.7" x2="67.3" y2="0.4"/>
	<line class="st0" x1="82" y1="149.6" x2="78.3" y2="112.3"/>
	<line class="st0" x1="45.7" y1="51.2" x2="16.7" y2="27.4"/>
	<line class="st0" x1="132.6" y1="122.6" x2="103.6" y2="98.8"/>
	<line class="st0" x1="122.2" y1="17" x2="98.4" y2="46"/>
	<line class="st0" x1="50.8" y1="104" x2="27.1" y2="133"/>
	<line class="st0" x1="41.6" y1="92.7" x2="8.5" y2="110.3"/>
	<line class="st0" x1="140.8" y1="39.7" x2="107.7" y2="57.3"/>
	<line class="st0" x1="57" y1="41.9" x2="39.3" y2="8.9"/>
	<line class="st0" x1="110" y1="141.1" x2="92.3" y2="108.1"/>
	<line class="st0" x1="38.8" y1="64.1" x2="2.9" y2="53.2"/>
	<line class="st0" x1="146.4" y1="96.8" x2="110.5" y2="85.9"/>
	<line class="st0" x1="96.4" y1="3.2" x2="85.5" y2="39.1"/>
	<line class="st0" x1="63.8" y1="110.9" x2="52.9" y2="146.8"/>
	<g>
		<polygon class="st1" points="30.1,104 45.1,119 90.1,74 105.1,89 125.1,69 91.1,35 69.1,35 60.1,44 75.1,59 		"/>
		<line class="st0" x1="40.1" y1="109" x2="85.1" y2="64"/>
		<line class="st0" x1="85.1" y1="74" x2="80.1" y2="69"/>
		<line class="st0" x1="80.1" y1="79" x2="75.1" y2="74"/>
		<line class="st0" x1="70.1" y1="79" x2="75.1" y2="84"/>
		<line class="st0" x1="65.1" y1="84" x2="70.1" y2="89"/>
		<line class="st0" x1="60.1" y1="89" x2="65.1" y2="94"/>
		<line class="st0" x1="55.1" y1="94" x2="60.1" y2="99"/>
		<line class="st0" x1="50.1" y1="99" x2="55.1" y2="104"/>
		<line class="st0" x1="45.1" y1="104" x2="50.1" y2="109"/>
		<line class="st0" x1="50.1" y1="99" x2="45.1" y2="94"/>
		<line class="st0" x1="60.1" y1="89" x2="55.1" y2="84"/>
		<line class="st0" x1="70.1" y1="79" x2="65.1" y2="74"/>
		<line class="st0" x1="80.1" y1="69" x2="75.1" y2="64"/>
		<line class="st0" x1="110.1" y1="79" x2="70.1" y2="39"/>
		<line class="st0" x1="115.1" y1="74" x2="80.1" y2="39"/>
		<line class="st0" x1="105.1" y1="74" x2="100.1" y2="79"/>
		<line class="st0" x1="100.1" y1="69" x2="95.1" y2="74"/>
		<line class="st0" x1="95.1" y1="64" x2="90.1" y2="69"/>
		<line class="st0" x1="90.1" y1="59" x2="85.1" y2="64"/>
		<line class="st0" x1="85.1" y1="54" x2="80.1" y2="59"/>
		<line class="st0" x1="80.1" y1="49" x2="75.1" y2="54"/>
		<line class="st0" x1="75.1" y1="44" x2="70.1" y2="49"/>
		<line class="st0" x1="90.1" y1="69" x2="85.1" y2="64"/>
		<line class="st0" x1="105.1" y1="64" x2="100.1" y2="69"/>
		<line class="st0" x1="95.1" y1="54" x2="90.1" y2="59"/>
		<line class="st0" x1="85.1" y1="44" x2="80.1" y2="49"/>
	</g>
</g>
</svg>
